<?xml version="1.0" encoding="utf-8"?>
<!-- Generator: Adobe Illustrator 27.5.0, SVG Export Plug-In . SVG Version: 6.00 Build 0)  -->
<svg version="1.1" xmlns="http://www.w3.org/2000/svg" xmlns:xlink="http://www.w3.org/1999/xlink" x="0px" y="0px"
	 viewBox="0 0 500 500" style="enable-background:new 0 0 500 500;" xml:space="preserve">
<g id="BACKGROUND">
	<rect style="fill:#FFFFFF;" width="500" height="500"/>
</g>
<g id="OBJECTS">
	<g>
		<path style="fill:#DBECF5;" d="M127.898,392.272c-46.743-2.229-87.846-32.183-103.52-76.276
			c-5.442-15.309-8.859-33.166-8.253-53.538c2.394-80.427,74.921-103.406,109.031-102.448c34.109,0.957,80.546,0.479,134.643-33.511
			c54.096-33.99,130.932-31.117,162.888,5.266c31.955,36.383,25.732,73.246,20.944,108.671
			c-4.787,35.426-2.217,59.602,11.578,83.299c13.795,23.697,13.077,58.988-60.169,60.372
			C338.846,385.17,206.996,396.045,127.898,392.272z"/>
		<g>
			<g>
				<g>
					<path style="fill:#4E8484;" d="M75.853,208.54c1.948,3.427,3.305,7.233,4.544,10.961c3.39,10.203,5.252,20.9,5.927,31.618
						c0.545,8.657,0.3,17.346-0.586,25.971c-0.163,1.586,2.318,1.574,2.48,0c2.263-22.008,0.552-45.576-8.417-66.063
						c-0.553-1.264-1.123-2.538-1.806-3.74C77.205,205.901,75.062,207.149,75.853,208.54L75.853,208.54z"/>
				</g>
				<g>
					<path style="fill:#4E8484;" d="M110.287,180.992c-3.365,2.06-6.036,5.65-8.21,8.836c-6.845,10.035-10.464,22.165-12.635,33.996
						c-2.099,11.44-2.848,23.097-2.842,34.716c0.001,1.596,2.48,1.598,2.48,0c-0.008-17.65,1.555-35.803,7.654-52.499
						c2.736-7.49,6.517-15.074,12.177-20.678c0.654-0.647,1.338-1.262,2.059-1.833c-0.326,0.258,0.185-0.13,0.366-0.262
						c0.065-0.048,0.134-0.092,0.203-0.134C112.898,182.301,111.654,180.156,110.287,180.992L110.287,180.992z"/>
				</g>
			</g>
			<path style="fill:#70ACAD;" d="M75.966,205.999c0,0-2.633-10.293-19.628-6.223c-16.995,4.069-20.107,32.075-25.133,38.538
				c-5.027,6.463-5.027,6.463-5.027,6.463s18.671-2.872,40.213-9.335c21.543-6.463,23.378-16.326,21.303-22.74
				C85.062,204.563,75.966,205.999,75.966,205.999z"/>
			<path style="fill:#70ACAD;" d="M114.982,179.908c0,0-7.66-4.309-13.404,0c-5.745,4.309-8.138,19.628,9.335,24.894
				c17.474,5.266,34.229,18.67,34.229,18.67s6.463-30.16-4.309-45.479C130.062,162.674,116.658,169.855,114.982,179.908z"/>
			<path style="opacity:0.38;fill:#4E8484;" d="M87.695,212.702c-2.633-8.138-11.729-6.702-11.729-6.702s-0.107-0.408-0.405-1.024
				c-9.072,3.001-20.122,10.32-31.67,25.011c-9.006,11.457-14.983,14.085-17.613,14.661c-0.097,0.124-0.1,0.129-0.1,0.129
				s18.671-2.872,40.213-9.335C87.934,228.978,89.77,219.115,87.695,212.702z"/>
			<path style="fill:#4E8484;" d="M43.891,231.372c1.258-3.338,3.093-6.44,5.189-9.339c2.101-2.904,4.568-5.551,7.289-7.921
				c2.737-2.355,5.848-4.289,9.148-5.756c3.301-1.493,6.912-2.2,10.449-2.357c-3.406,1.069-6.678,2.195-9.697,3.904
				c-0.389,0.183-0.765,0.394-1.123,0.64l-1.102,0.676c-0.737,0.445-1.478,0.881-2.156,1.418c-0.691,0.515-1.414,0.983-2.097,1.506
				l-1.994,1.647c-2.63,2.235-5.065,4.707-7.378,7.312C48.127,225.729,45.949,228.474,43.891,231.372z"/>
			<path style="opacity:0.38;fill:#4E8484;" d="M145.142,223.473c0,0,6.463-30.16-4.309-45.479
				c-10.771-15.319-24.176-8.139-25.851,1.915C114.982,179.908,136.483,192.667,145.142,223.473z"/>
			<path style="fill:#4E8484;" d="M136.45,203.458c-1.558-2.255-3.094-4.464-4.659-6.637c-1.588-2.155-3.171-4.297-4.897-6.308
				c-1.709-2.023-3.522-3.941-5.461-5.739c-1.983-1.747-4.093-3.324-6.45-4.751c2.69,0.566,5.237,1.824,7.523,3.406
				c2.271,1.614,4.26,3.576,6.072,5.663c1.766,2.128,3.33,4.406,4.659,6.81C134.563,198.303,135.714,200.808,136.45,203.458z"/>
		</g>
		<g>
			<path style="fill:#EBB04B;" d="M110.999,392.943h-22.93c-2.2,0-3.983-1.783-3.983-3.983V268.605c0-2.2,1.783-3.983,3.983-3.983
				h22.93c2.2,0,3.983,1.783,3.983,3.983V388.96C114.982,391.16,113.199,392.943,110.999,392.943z"/>
			<rect x="84.086" y="277.091" style="fill:#CC903A;" width="30.896" height="5.203"/>
			
				<ellipse transform="matrix(0.6974 -0.7167 0.7167 0.6974 -238.2946 184.6582)" style="fill:#CC903A;" cx="99.534" cy="374.53" rx="8.233" ry="8.233"/>
			<path style="opacity:0.56;fill:#EBB04B;" d="M84.086,388.818c0,2.278,1.847,4.125,4.125,4.125h22.647
				c2.278,0,4.125-1.847,4.125-4.125V318.8C114.982,318.8,112.497,384.694,84.086,388.818z"/>
		</g>
		<g>
			<path style="fill:#38273F;" d="M367.725,378.103H119.982V221.838c0-7.69,6.234-13.924,13.924-13.924h219.895
				c7.69,0,13.924,6.234,13.924,13.924V378.103z"/>
			<path style="fill:#DBECF5;" d="M358.317,371.64V230.734c0-7.712-6.348-13.964-14.18-13.964H143.57
				c-7.831,0-14.18,6.252-14.18,13.964V371.64H358.317z"/>
			<path style="fill:#CADFE8;" d="M352.112,219.19L129.39,371.64h228.927V230.734C358.317,225.935,355.857,221.703,352.112,219.19z"
				/>
			<path d="M367.004,396.294H119.985c-6.479,0-11.732-5.253-11.732-11.732v-6.46h270.482v6.46
				C378.736,391.042,373.483,396.294,367.004,396.294z"/>
			<g>
				<rect x="140.328" y="245.973" style="fill:#FFFFFF;" width="203.46" height="112.98"/>
				<polygon style="fill:#D35352;" points="237.75,295.881 237.75,278.826 247.803,278.826 247.803,295.881 242.777,291.931 				"/>
				<path style="fill:#EBB04B;" d="M259.25,271.711c0,2.032-2.525,3.548-3.257,5.315c-0.76,1.832-0.075,4.682-1.455,6.062
					c-1.381,1.38-4.23,0.695-6.062,1.455c-1.767,0.733-3.283,3.257-5.315,3.257c-2.032,0-3.548-2.524-5.315-3.257
					c-1.832-0.76-4.682-0.075-6.062-1.455c-1.38-1.38-0.695-4.23-1.455-6.062c-0.733-1.767-3.257-3.283-3.257-5.314
					c0-2.032,2.525-3.548,3.257-5.315c0.76-1.832,0.075-4.682,1.455-6.062c1.38-1.38,4.23-0.695,6.062-1.455
					c1.767-0.733,3.282-3.257,5.315-3.257s3.548,2.525,5.315,3.257c1.832,0.76,4.682,0.075,6.062,1.455
					c1.38,1.38,0.695,4.23,1.455,6.062C256.725,268.163,259.25,269.679,259.25,271.711z"/>
				
					<ellipse transform="matrix(0.9249 -0.3802 0.3802 0.9249 -85.0366 112.8383)" style="fill:#D35352;" cx="243.16" cy="271.711" rx="10.886" ry="10.886"/>
				<path style="fill:#D4DADD;" d="M321.168,306.772H168.454c-1.52,0-2.753-1.232-2.753-2.753l0,0c0-1.52,1.232-2.753,2.753-2.753
					h152.715c1.52,0,2.753,1.233,2.753,2.753l0,0C323.921,305.539,322.689,306.772,321.168,306.772z"/>
				<path style="fill:#D4DADD;" d="M265.285,321.553h-42.207c-1.52,0-2.753-1.232-2.753-2.753l0,0c0-1.52,1.232-2.753,2.753-2.753
					h42.207c1.52,0,2.753,1.232,2.753,2.753l0,0C268.038,320.32,266.806,321.553,265.285,321.553z"/>
				<path style="fill:#D4DADD;" d="M198.022,349.139h-22.657c-1.52,0-2.753-1.232-2.753-2.753l0,0c0-1.52,1.232-2.753,2.753-2.753
					h22.657c1.52,0,2.753,1.232,2.753,2.753l0,0C200.775,347.907,199.543,349.139,198.022,349.139z"/>
				<path style="fill:#D4DADD;" d="M310.225,349.139h-22.657c-1.52,0-2.753-1.232-2.753-2.753l0,0c0-1.52,1.232-2.753,2.753-2.753
					h22.657c1.52,0,2.753,1.232,2.753,2.753l0,0C312.977,347.907,311.745,349.139,310.225,349.139z"/>
			</g>
			<path style="fill:#483551;" d="M269.098,385.523h-52.812c-3.957,0-7.165-3.208-7.165-7.165v-0.255h67.142v0.255
				C276.263,382.315,273.055,385.523,269.098,385.523z"/>
			<path style="fill:#142142;" d="M356.995,224.876c-2.251-4.781-7.154-8.105-12.858-8.105H143.57
				c-5.704,0-10.608,3.324-12.858,8.105H356.995z"/>
			<g>
				<path style="fill:#DBECF5;" d="M141.45,222.221c1.93,0,1.934-3,0-3C139.519,219.221,139.516,222.221,141.45,222.221
					L141.45,222.221z"/>
			</g>
			<g>
				<path style="fill:#DBECF5;" d="M147.097,222.221c1.93,0,1.934-3,0-3C145.167,219.221,145.163,222.221,147.097,222.221
					L147.097,222.221z"/>
			</g>
			<g>
				<path style="fill:#DBECF5;" d="M152.744,222.221c1.93,0,1.934-3,0-3C150.813,219.221,150.81,222.221,152.744,222.221
					L152.744,222.221z"/>
			</g>
		</g>
		<g>
			<path style="fill:#203160;" d="M388.357,159.782l-93.699-2.738c-5.218-0.152-8.526,5.542-5.809,9.999l33.67,55.238
				c0.843,1.384,2.168,2.407,3.72,2.875l82.884,24.968c5.006,1.508,9.686-3.145,8.206-8.16l-22.854-77.468
				C393.669,161.767,391.201,159.865,388.357,159.782z"/>
			<path style="fill:#070C21;" d="M386.558,162.257l-93.7-2.738c-5.218-0.152-8.526,5.542-5.809,9.999l33.67,55.238
				c0.843,1.384,2.168,2.407,3.72,2.875l82.884,24.968c5.006,1.508,9.686-3.145,8.206-8.16l-22.854-77.468
				C391.87,164.242,389.401,162.34,386.558,162.257z"/>
			<path style="fill:#142142;" d="M284.692,208.393c0,0,54.216,27.647,82.94,57.807l29.083-37.7c0,0-17.593-51.344-82.581-60.679
				L284.692,208.393z"/>
			<g>
				<path style="fill:#EBB04B;" d="M400.714,265.369c-0.286,0-0.518-0.232-0.518-0.518v-79.958c0-0.286,0.232-0.518,0.518-0.518
					s0.518,0.232,0.518,0.518v79.958C401.232,265.137,401,265.369,400.714,265.369z"/>
			</g>
			<path style="fill:#EBB04B;" d="M399.702,265.015c0,0-4.468,0.905-5.48,10.014c-1.012,9.11-2.446,15.051-2.446,15.051h3.963
				l0.49-4.99l1.451,4.99h7.507l0.506-9.821l1.829,9.821h2.81C410.332,290.079,407.797,262.484,399.702,265.015z"/>
			<g>
				<path style="fill:#FFC97B;" d="M393.781,290.079h1.957l0.49-4.99l-0.151-4.157C395.087,285.696,394.19,288.773,393.781,290.079z
					"/>
				<path style="fill:#FFC97B;" d="M396.33,272.667c0.676-3.38,2.013-5.953,3.034-7.54c-1.051,0.415-4.297,2.294-5.143,9.902
					c-1.012,9.11-2.446,15.051-2.446,15.051h1.947C394.772,285.531,395.21,278.267,396.33,272.667z"/>
			</g>
			<path style="fill:#0F1B33;" d="M358.045,183.382c5.164,7.951,11.347,19.384,12.305,29.734
				c1.187,12.819-12.437,28.63-20.623,36.883c6.498,5.212,12.632,10.663,17.905,16.2l29.083-37.7
				C396.715,228.5,387.553,201.775,358.045,183.382z"/>
			<path style="fill:#1E3156;" d="M309.619,186.349c8.545-10.344,17.402-14.183,28.825-12.492c-7.251-2.65-15.326-4.746-24.31-6.036
				l-29.442,40.572c0,0,2.224,1.134,6.009,3.193C294.205,206.634,302.941,194.432,309.619,186.349z"/>
		</g>
		<g>
			<path style="fill:#959DFC;" d="M401.861,279.724h64.975c2.039,0,3.589,1.834,3.249,3.845l-17.076,100.885
				c-0.268,1.585-1.641,2.745-3.249,2.745h-68.279c-2.082,0-3.642-1.907-3.23-3.947l20.38-100.885
				C398.942,280.829,400.293,279.724,401.861,279.724z"/>
			<polygon style="fill:#FFFFFF;" points="405.859,290.203 459.485,290.203 445.855,376.719 389.591,376.719 			"/>
			<path style="fill:#7F84FD;" d="M474.497,279.724h-7.66c2.039,0,3.589,1.834,3.249,3.845l-17.076,100.885
				c-0.268,1.585-1.641,2.745-3.249,2.745h7.66c1.607,0,2.98-1.16,3.249-2.745l17.076-100.885
				C478.085,281.557,476.536,279.724,474.497,279.724z"/>
			<polygon style="fill:#38273F;" points="469.72,330.978 481.028,385.523 460.669,385.523 			"/>
		</g>
		<g>
			<path style="fill:#7F84FD;" d="M47.568,392.943H28.725c-2.2,0-3.983-1.783-3.983-3.983v-91.969c0-2.2,1.783-3.983,3.983-3.983
				h18.843c2.2,0,3.983,1.783,3.983,3.983v91.969C51.551,391.16,49.768,392.943,47.568,392.943z"/>
			<rect x="24.742" y="304.17" style="fill:#5E67D3;" width="26.809" height="5.203"/>
			<rect x="24.742" y="380.471" style="fill:#5E67D3;" width="26.809" height="5.203"/>
			<path style="opacity:0.37;fill:#7F84FD;" d="M24.742,388.818c0,2.278,1.847,4.125,4.125,4.125h18.559
				c2.278,0,4.125-1.847,4.125-4.125v-79.445C51.551,309.374,48.074,386.824,24.742,388.818z"/>
		</g>
		<g>
			<path style="fill:#4045BC;" d="M80.103,392.943h-24.57c-2.2,0-3.983-1.783-3.983-3.983V277.248c0-2.2,1.783-3.983,3.983-3.983
				h24.57c2.2,0,3.983,1.783,3.983,3.983V388.96C84.086,391.16,82.303,392.943,80.103,392.943z"/>
			<rect x="51.551" y="282.597" style="fill:#2F3691;" width="32.535" height="5.203"/>
			
				<ellipse transform="matrix(0.2298 -0.9732 0.9732 0.2298 -312.1609 354.6273)" style="fill:#2F3691;" cx="67.965" cy="374.53" rx="8.233" ry="8.233"/>
			<path style="opacity:0.61;fill:#4045BC;" d="M51.551,388.818c0,2.278,1.847,4.125,4.125,4.125h24.286
				c2.278,0,4.125-1.847,4.125-4.125V277.39C84.086,277.39,83.247,380.076,51.551,388.818z"/>
		</g>
		<g>
			<path style="fill:#4045BC;" d="M366.427,346.485c0,0-0.041,15.196,1.155,28.361c1.197,13.165,2.633,18.91,6.224,20.107
				c3.59,1.197,20.585,1.915,27.527,0c6.942-1.915,10.053-42.368,10.053-47.634c0-5.266-1.556-6.702-4.189-6.463
				c-2.633,0.239-29.516-0.162-32.913-0.025C370.695,340.976,366.255,338.582,366.427,346.485z"/>
			<path style="fill:#4045BC;" d="M420.363,349.713c-3.95-3.112-8.976-0.598-8.976-0.598s-0.022,0.025-0.06,0.071
				c-0.061,1.281-0.171,3.01-0.331,5.059c0.126-0.031,0.252-0.062,0.391-0.103c5.745-1.676,7.66,2.872,7.66,8.138
				c0,5.266-1.676,13.045-5.505,14.122c-3.83,1.077-4.96-1.565-4.96-1.565l-0.001,0.001c-0.316,1.937-0.658,3.84-1.029,5.655
				c2.09,1.688,5.322,2.74,9.7-0.262C425.629,374.487,424.312,352.825,420.363,349.713z"/>
			<path style="fill:#353DA0;" d="M407.198,340.857c-1.063,0.097-6.081,0.089-11.91,0.054c2.438,1.6,5.584,4.66,6.287,10.082
				c1.181,9.11-1.856,30.813-3.374,35.566c-1.464,4.582-5.458,7.593-16.776,9.378c6.573,0.394,15.379,0.266,19.908-0.984
				c6.942-1.915,10.053-42.368,10.053-47.634S409.831,340.617,407.198,340.857z"/>
			<path style="fill:#767DCC;" d="M372.529,349.43c1.526-3.831,5.625-5.721,8.246-6.569c-2.885-0.015-5.106-0.016-5.897,0.016
				c-3.212,0.129-7.184-2.012-7.03,5.058c0,0-0.037,13.595,1.034,25.373c1.071,11.778,2.356,16.917,5.568,17.988
				C370.434,380.971,370.215,355.238,372.529,349.43z"/>
			<g>
				<path style="fill:#FFFFFF;" d="M368.475,345.932c0,0.225,0,0.45,0,0.675c-0.008,0.214,0.036,0.413,0.134,0.599
					c0.063,0.193,0.17,0.359,0.321,0.5c0.141,0.151,0.307,0.258,0.5,0.321c0.185,0.097,0.385,0.142,0.599,0.134
					c0.138-0.018,0.275-0.037,0.413-0.055c0.263-0.074,0.492-0.207,0.686-0.4c0.081-0.105,0.162-0.21,0.243-0.314
					c0.141-0.242,0.211-0.504,0.212-0.784c0-0.225,0-0.45,0-0.675c0.008-0.214-0.037-0.413-0.134-0.598
					c-0.063-0.193-0.17-0.359-0.321-0.5c-0.141-0.152-0.307-0.259-0.5-0.321c-0.185-0.097-0.385-0.142-0.599-0.134
					c-0.138,0.019-0.275,0.037-0.413,0.056c-0.263,0.074-0.492,0.207-0.686,0.4c-0.081,0.105-0.162,0.21-0.243,0.314
					C368.547,345.39,368.476,345.651,368.475,345.932L368.475,345.932z"/>
			</g>
			<g>
				<path style="fill:#FFFFFF;" d="M369.86,352.546c1.999,0,2.003-3.107,0-3.107C367.861,349.439,367.857,352.546,369.86,352.546
					L369.86,352.546z"/>
			</g>
		</g>
		<g>
			<g>
				<path style="fill:#B3D4E2;" d="M98.875,144.357c11.403,0,22.805,0,34.208,0c1.93,0,1.934-3,0-3c-11.403,0-22.805,0-34.208,0
					C96.945,141.357,96.942,144.357,98.875,144.357L98.875,144.357z"/>
			</g>
			<g>
				<path style="fill:#B3D4E2;" d="M141.88,159.018c14.661,0,29.321,0,43.982,0c1.93,0,1.934-3,0-3c-14.661,0-29.321,0-43.982,0
					C139.949,156.018,139.946,159.018,141.88,159.018L141.88,159.018z"/>
			</g>
			<g>
				<path style="fill:#B3D4E2;" d="M60.758,162.927c8.471,0,16.941,0,25.412,0c1.93,0,1.934-3,0-3c-8.47,0-16.941,0-25.412,0
					C58.827,159.927,58.824,162.927,60.758,162.927L60.758,162.927z"/>
			</g>
			<g>
				<path style="fill:#B3D4E2;" d="M433.137,186.384c9.774,0,19.547,0,29.321,0c1.93,0,1.934-3,0-3c-9.774,0-19.548,0-29.321,0
					C431.207,183.384,431.203,186.384,433.137,186.384L433.137,186.384z"/>
			</g>
			<g>
				<path style="fill:#B3D4E2;" d="M413.589,177.588c4.887,0,9.774,0,14.661,0c1.93,0,1.934-3,0-3c-4.887,0-9.774,0-14.661,0
					C411.659,174.588,411.656,177.588,413.589,177.588L413.589,177.588z"/>
			</g>
			<g>
				<path style="fill:#B3D4E2;" d="M400.884,134.583c20.525,0,41.05,0,61.575,0c1.93,0,1.934-3,0-3c-20.525,0-41.05,0-61.575,0
					C398.953,131.583,398.95,134.583,400.884,134.583L400.884,134.583z"/>
			</g>
			<g>
				<path style="fill:#B3D4E2;" d="M450.73,143.38c3.584,0,7.167,0,10.751,0c0.811,0,1.5-0.689,1.5-1.5c0-0.813-0.686-1.5-1.5-1.5
					c-3.584,0-7.167,0-10.751,0c-0.811,0-1.5,0.69-1.5,1.5C449.23,142.693,449.916,143.38,450.73,143.38L450.73,143.38z"/>
			</g>
			<g>
				<path style="fill:#B3D4E2;" d="M10.899,208.033c12.353,1.061,24.763,1.303,37.148,0.723c1.922-0.09,1.933-3.09,0-3
					c-12.385,0.58-24.795,0.338-37.148-0.723C8.976,204.868,8.987,207.868,10.899,208.033L10.899,208.033z"/>
			</g>
			<g>
				<path style="fill:#B3D4E2;" d="M228.866,99.398c20.58,0,41.16,0,61.74,0c5.809,0,11.618,0,17.427,0c1.93,0,1.934-3,0-3
					c-20.58,0-41.16,0-61.741,0c-5.809,0-11.618,0-17.427,0C226.936,96.398,226.932,99.398,228.866,99.398L228.866,99.398z"/>
			</g>
			<g>
				<path style="fill:#B3D4E2;" d="M220.069,116.991c9.448,0,18.896,0,28.344,0c1.93,0,1.934-3,0-3c-9.448,0-18.896,0-28.344,0
					C218.139,113.991,218.136,116.991,220.069,116.991L220.069,116.991z"/>
			</g>
			<g>
				<path style="fill:#B3D4E2;" d="M425.318,254.8c4.887,0,9.774,0,14.661,0c1.93,0,1.934-3,0-3c-4.887,0-9.774,0-14.661,0
					C423.388,251.8,423.384,254.8,425.318,254.8L425.318,254.8z"/>
			</g>
		</g>
		<path style="fill:#DBECF5;" d="M0,157.518c0,0,11.35-47.419,67.818-61.827c56.468-14.408,164.271-3.86,182.044-96.446H0V157.518z"
			/>
		<path style="fill:#DBECF5;" d="M293.896,0.877c0,0,11.384,48.266,75.964,45.44c64.58-2.826,125.329,17.167,130.14,96.437V0.877
			H293.896z"/>
		<g>
			<path style="fill:#4045BC;" d="M418.958,500H66.648l66.269-87.643c1.46-1.93,3.739-3.064,6.159-3.064h208.261
				c2.436,0,4.729,1.149,6.186,3.101L418.958,500z"/>
			<path style="fill:#F1E9B9;" d="M242.502,402.351V500H76.376l70.074-97.649C146.45,402.351,204.362,375.744,242.502,402.351z"/>
			<path style="fill:#DDD39E;" d="M242.629,402.351V500h166.126l-70.074-97.649C338.681,402.351,280.769,375.744,242.629,402.351z"
				/>
			<g>
				<path style="fill:#DDD39E;" d="M148.031,411.496c11.306-4.451,23.278-7.438,35.348-8.833c11.43-1.321,23.372-1.418,34.555,1.606
					c5.285,1.429,10.472,3.618,14.794,7.032c1.499,1.184,3.636-0.925,2.121-2.121c-8.587-6.783-19.66-9.336-30.378-10.107
					c-12.477-0.898-25.149,0.585-37.308,3.388c-6.78,1.563-13.454,3.594-19.929,6.142
					C145.458,409.302,146.231,412.205,148.031,411.496L148.031,411.496z"/>
			</g>
			<g>
				<path style="fill:#DDD39E;" d="M141.335,419.513c11.922-4.451,24.545-7.438,37.272-8.833
					c12.052-1.321,24.644-1.418,36.436,1.606c5.572,1.429,11.042,3.618,15.6,7.032c1.581,1.184,3.834-0.925,2.237-2.121
					c-9.055-6.783-20.73-9.336-32.032-10.107c-13.156-0.898-26.518,0.585-39.339,3.388c-7.149,1.563-14.187,3.594-21.014,6.142
					C138.622,417.32,139.437,420.222,141.335,419.513L141.335,419.513z"/>
			</g>
			<g>
				<path style="fill:#DDD39E;" d="M137.312,429.5c12.443-4.451,25.617-7.438,38.901-8.833c12.579-1.321,25.721-1.418,38.027,1.606
					c5.816,1.429,11.524,3.618,16.281,7.032c1.65,1.184,4.002-0.925,2.334-2.121c-9.451-6.783-21.636-9.336-33.431-10.107
					c-13.731-0.898-27.676,0.585-41.058,3.388c-7.461,1.563-14.806,3.594-21.932,6.142
					C134.48,427.307,135.331,430.209,137.312,429.5L137.312,429.5z"/>
			</g>
			<g>
				<path style="fill:#DDD39E;" d="M130.576,440.577c13.104-4.451,26.978-7.438,40.968-8.833
					c13.247-1.321,27.088-1.418,40.048,1.606c6.125,1.429,12.136,3.618,17.146,7.032c1.737,1.184,4.214-0.925,2.458-2.121
					c-9.953-6.783-22.786-9.336-35.207-10.107c-14.461-0.898-29.147,0.585-43.24,3.388c-7.858,1.563-15.593,3.594-23.098,6.142
					C127.593,438.384,128.49,441.286,130.576,440.577L130.576,440.577z"/>
			</g>
			<g>
				<path style="fill:#DDD39E;" d="M121.699,454.492c14.084-4.451,28.997-7.438,44.033-8.833
					c14.238-1.321,29.114-1.418,43.044,1.606c6.583,1.429,13.045,3.618,18.429,7.032c1.867,1.184,4.53-0.925,2.643-2.121
					c-10.697-6.783-24.491-9.336-37.842-10.107c-15.542-0.898-31.328,0.585-46.475,3.388c-8.446,1.563-16.76,3.594-24.826,6.142
					C118.493,452.298,119.457,455.2,121.699,454.492L121.699,454.492z"/>
			</g>
			<g>
				<path style="fill:#DDD39E;" d="M112.543,467.331c14.848-4.451,30.569-7.438,46.42-8.833c15.01-1.321,30.693-1.418,45.378,1.606
					c6.94,1.429,13.752,3.618,19.428,7.032c1.969,1.184,4.775-0.925,2.786-2.121c-11.277-6.783-25.818-9.336-39.893-10.107
					c-16.385-0.898-33.026,0.585-48.994,3.388c-8.903,1.563-17.668,3.594-26.172,6.142
					C109.164,465.137,110.179,468.04,112.543,467.331L112.543,467.331z"/>
			</g>
			<g>
				<path style="fill:#DDD39E;" d="M105.761,478.51c15.726-4.451,32.377-7.438,49.165-8.833c15.898-1.321,32.508-1.418,48.061,1.606
					c7.35,1.429,14.565,3.618,20.577,7.032c2.085,1.184,5.058-0.925,2.951-2.121c-11.944-6.783-27.345-9.336-42.252-10.107
					c-17.354-0.898-34.979,0.585-51.892,3.388c-9.43,1.563-18.713,3.594-27.72,6.142
					C102.181,476.316,103.257,479.219,105.761,478.51L105.761,478.51z"/>
			</g>
			<g>
				<path style="fill:#C6BA87;" d="M335.997,411.496c-11.306-4.451-23.278-7.438-35.348-8.833
					c-11.43-1.321-23.372-1.418-34.555,1.606c-5.285,1.429-10.472,3.618-14.794,7.032c-1.499,1.184-3.636-0.925-2.121-2.121
					c8.588-6.783,19.66-9.336,30.378-10.107c12.477-0.898,25.149,0.585,37.309,3.388c6.78,1.563,13.454,3.594,19.929,6.142
					C338.57,409.302,337.797,412.205,335.997,411.496L335.997,411.496z"/>
			</g>
			<g>
				<path style="fill:#C6BA87;" d="M342.693,419.513c-11.922-4.451-24.545-7.438-37.272-8.833
					c-12.052-1.321-24.644-1.418-36.435,1.606c-5.572,1.429-11.042,3.618-15.6,7.032c-1.581,1.184-3.834-0.925-2.237-2.121
					c9.055-6.783,20.73-9.336,32.032-10.107c13.156-0.898,26.518,0.585,39.339,3.388c7.149,1.563,14.187,3.594,21.014,6.142
					C345.407,417.32,344.591,420.222,342.693,419.513L342.693,419.513z"/>
			</g>
			<g>
				<path style="fill:#C6BA87;" d="M346.716,429.5c-12.443-4.451-25.617-7.438-38.901-8.833
					c-12.579-1.321-25.721-1.418-38.027,1.606c-5.816,1.429-11.524,3.618-16.281,7.032c-1.65,1.184-4.002-0.925-2.335-2.121
					c9.451-6.783,21.636-9.336,33.431-10.107c13.731-0.898,27.677,0.585,41.058,3.388c7.461,1.563,14.806,3.594,21.932,6.142
					C349.548,427.307,348.697,430.209,346.716,429.5L346.716,429.5z"/>
			</g>
			<g>
				<path style="fill:#C6BA87;" d="M353.452,440.577c-13.104-4.451-26.978-7.438-40.968-8.833
					c-13.247-1.321-27.088-1.418-40.048,1.606c-6.125,1.429-12.136,3.618-17.146,7.032c-1.738,1.184-4.214-0.925-2.459-2.121
					c9.953-6.783,22.786-9.336,35.208-10.107c14.46-0.898,29.147,0.585,43.24,3.388c7.857,1.563,15.593,3.594,23.098,6.142
					C356.435,438.384,355.538,441.286,353.452,440.577L353.452,440.577z"/>
			</g>
			<g>
				<path style="fill:#C6BA87;" d="M362.329,454.492c-14.084-4.451-28.997-7.438-44.033-8.833
					c-14.238-1.321-29.114-1.418-43.044,1.606c-6.583,1.429-13.044,3.618-18.429,7.032c-1.867,1.184-4.529-0.925-2.642-2.121
					c10.697-6.783,24.491-9.336,37.842-10.107c15.543-0.898,31.328,0.585,46.475,3.388c8.445,1.563,16.76,3.594,24.826,6.142
					C365.535,452.298,364.572,455.2,362.329,454.492L362.329,454.492z"/>
			</g>
			<g>
				<path style="fill:#C6BA87;" d="M371.485,467.331c-14.848-4.451-30.569-7.438-46.42-8.833
					c-15.01-1.321-30.693-1.418-45.378,1.606c-6.94,1.429-13.752,3.618-19.428,7.032c-1.969,1.184-4.775-0.925-2.786-2.121
					c11.277-6.783,25.818-9.336,39.893-10.107c16.385-0.898,33.026,0.585,48.994,3.388c8.903,1.563,17.669,3.594,26.172,6.142
					C374.865,465.137,373.849,468.04,371.485,467.331L371.485,467.331z"/>
			</g>
			<g>
				<path style="fill:#C6BA87;" d="M378.267,478.51c-15.726-4.451-32.377-7.438-49.165-8.833
					c-15.898-1.321-32.508-1.418-48.061,1.606c-7.35,1.429-14.565,3.618-20.577,7.032c-2.085,1.184-5.057-0.925-2.951-2.121
					c11.944-6.783,27.345-9.336,42.253-10.107c17.354-0.898,34.979,0.585,51.892,3.388c9.43,1.563,18.713,3.594,27.719,6.142
					C381.847,476.316,380.771,479.219,378.267,478.51L378.267,478.51z"/>
			</g>
		</g>
	</g>
</g>
</svg>
