<?xml version="1.0" encoding="utf-8"?>
<!-- Generator: Adobe Illustrator 27.5.0, SVG Export Plug-In . SVG Version: 6.00 Build 0)  -->
<svg version="1.1" xmlns="http://www.w3.org/2000/svg" xmlns:xlink="http://www.w3.org/1999/xlink" x="0px" y="0px"
	 viewBox="0 0 500 500" style="enable-background:new 0 0 500 500;" xml:space="preserve">
<g id="BACKGROUND">
	<rect style="fill:#FFFFFF;" width="500" height="500"/>
</g>
<g id="OBJECTS">
	<g>
		<path style="fill:#D7DCFF;" d="M87.607,105.094c0,0-26.552,18.57-21.665,64.507s28.884,76.96,10.532,99.566
			c-18.351,22.606-55.492,53.773-18.351,108.072h370.159c0,0,24.7-31.71,8.085-101.104c-16.615-69.393,25.744-115.33-30.132-140.742
			s-77.596,5.864-152.745-22.48C178.34,84.569,131.752,70.886,87.607,105.094z"/>
		<g>
			<path style="fill:#EBB04B;" d="M387.986,388.858H370.07c-2.79,0-5.051-2.261-5.051-5.051V281.185c0-2.79,2.261-5.051,5.051-5.051
				h17.916c2.79,0,5.051,2.262,5.051,5.051v102.622C393.037,386.597,390.775,388.858,387.986,388.858z"/>
			<path style="fill:#E58F1F;" d="M385.38,291.772c0,3.329-2.698,6.027-6.027,6.027s-6.027-2.698-6.027-6.027
				s2.698-6.027,6.027-6.027S385.38,288.444,385.38,291.772z"/>
			<rect x="365.018" y="373.763" style="fill:#E58F1F;" width="28.018" height="6.95"/>
			<g style="opacity:0.57;">
				<path style="fill:#EBB04B;" d="M366.986,387.782c0.855,0.665,1.916,1.076,3.083,1.076h17.916c2.79,0,5.051-2.261,5.051-5.051
					V281.185C393.037,281.185,391.408,369.752,366.986,387.782z"/>
				<path style="fill:#EBB04B;" d="M393.037,281.185c0-0.505-0.097-0.983-0.235-1.444L393.037,281.185z"/>
			</g>
		</g>
		<g>
			<polygon style="fill:#EBB04B;" points="88.309,313.6 93.521,384.786 132.616,384.786 136.791,313.6 			"/>
			<rect x="84.562" y="307.538" style="fill:#FFFFFF;" width="55.71" height="6.062"/>
			<rect x="91.162" y="301.872" style="fill:#FFFFFF;" width="42.728" height="5.666"/>
			<path style="fill:#F4BD6E;" d="M116.983,383.754c-21.285-4.344-18.679-46.697-18.896-59.945
				c-0.084-5.145,1.197-8.285,2.793-10.208H88.309l5.213,71.185h28.587C120.543,384.475,118.845,384.134,116.983,383.754z"/>
			<path style="fill:#CE9138;" d="M104.289,313.6c12.319,4.599,27.698,14.511,30.415,35.593l2.087-35.593H104.289z"/>
			<rect x="91.162" y="305.673" style="fill:#DBECF5;" width="42.728" height="1.865"/>
		</g>
		<g>
			<path style="fill:#4045BC;" d="M354.71,348.786H148.576c-6.773,0-12.263-5.49-12.263-12.263v-138.37
				c0-6.773,5.49-12.263,12.263-12.263H354.71c6.773,0,12.263,5.49,12.263,12.263v138.37
				C366.973,343.296,361.483,348.786,354.71,348.786z"/>
			<path style="fill:#142142;" d="M348.91,343.795H154.054c-6.773,0-12.263-5.49-12.263-12.263V203.144
				c0-6.773,5.49-12.263,12.263-12.263H348.91c6.773,0,12.263,5.49,12.263,12.263v128.388
				C361.173,338.305,355.683,343.795,348.91,343.795z"/>
			<rect x="234.376" y="348.786" style="fill:#0D182D;" width="34.534" height="40.072"/>
			<rect x="234.376" y="359.848" style="fill:#142142;" width="34.534" height="29.01"/>
		</g>
		<g>
			<path style="fill:#EBB04B;" d="M423.948,387.51l-13.721,1.841c-2.765,0.371-5.307-1.57-5.678-4.335l-11.467-85.472
				c-0.371-2.765,1.57-5.307,4.335-5.678l13.721-1.841c2.765-0.371,5.307,1.57,5.678,4.335l11.467,85.472
				C428.653,384.597,426.712,387.139,423.948,387.51z"/>
			<path style="fill:#E58F1F;" d="M412.262,307.538c0,3.329-2.698,6.027-6.027,6.027s-6.027-2.698-6.027-6.027
				s2.698-6.027,6.027-6.027S412.262,304.209,412.262,307.538z"/>
			
				<rect x="403.466" y="370.995" transform="matrix(0.9911 -0.133 0.133 0.9911 -46.0783 58.5313)" style="fill:#E58F1F;" width="23.439" height="6.518"/>
			<path style="opacity:0.46;fill:#EBB04B;" d="M428.282,381.832l-9.919-73.929c2.243,18.497,6.87,71.341-12.026,80.315
				c1.048,0.87,2.432,1.328,3.889,1.133l13.721-1.841C426.712,387.139,428.653,384.597,428.282,381.832z"/>
		</g>
		<g>
			<g>
				<g>
					<path style="fill:#37CCCC;" d="M452.676,215.387c0,3.898,0,7.797,0,11.695c0,9.406,0,18.812,0,28.218
						c0,11.342,0,22.683,0,34.025c0,9.839,0,19.677,0,29.516c0,4.747-0.19,9.538,0,14.282c0.003,0.067,0,0.134,0,0.201
						c0,1.448,2.25,1.45,2.25,0c0-3.898,0-7.797,0-11.695c0-9.406,0-18.812,0-28.218c0-11.342,0-22.683,0-34.025
						c0-9.839,0-19.677,0-29.516c0-4.747,0.19-9.538,0-14.282c-0.003-0.067,0-0.134,0-0.201
						C454.926,213.939,452.676,213.937,452.676,215.387L452.676,215.387z"/>
				</g>
				<path style="fill:#37CCCC;" d="M454.721,213.204c0,0-4.561-6.081-12.814-2.389c-8.253,3.692-17.593,13.9-28.018,18.462
					c0,0,26.063-2.172,35.185-7.167C458.196,217.113,454.721,213.204,454.721,213.204z"/>
				<path style="fill:#37CCCC;" d="M454.812,217.674c0,0,5.647-4.344,12.815,0c7.167,4.344,10.86,18.896,10.86,26.715
					c0,0,1.303-5.647-6.95-9.774C463.283,230.488,450.034,225.493,454.812,217.674z"/>
				<path style="fill:#37CCCC;" d="M453.801,251.007c0,0-3.258-12.597-18.896-13.249s-25.846,11.294-28.887,18.027
					c0,0,12.163-6.95,23.891-7.167C441.638,248.4,452.497,257.957,453.801,251.007z"/>
				<path style="fill:#37CCCC;" d="M453.801,245.794c0,0,6.081-9.774,23.457-3.91c17.376,5.864,23.891,32.796,17.593,51.909
					c0,0,3.475-18.679-8.688-25.846C474,260.78,452.497,262.518,453.801,245.794z"/>
				<path style="fill:#37CCCC;" d="M453.744,265.559c0,0-10.586-4.127-18.405,8.796c-7.819,12.923-8.036,18.787-14.118,28.995
					c0,0,16.507-6.299,21.937-16.507C448.588,276.636,453.687,268.165,453.744,265.559z"/>
				<path style="fill:#37CCCC;" d="M453.801,261.432c0,0,10.642-0.869,16.072,12.923c5.43,13.792,5.6,36.163,5.6,36.163
					s-5.705-16.083-13.689-24.548C453.801,277.504,451.73,268.475,453.801,261.432z"/>
				<path style="fill:#2BAAA7;" d="M440.333,219.451c-8.905,5.802-26.445,9.826-26.445,9.826s26.063-2.172,35.185-7.167
					c9.122-4.995,5.647-8.905,5.647-8.905S449.238,213.649,440.333,219.451z"/>
				<g>
					<path style="fill:#2BAAA7;" d="M467.627,217.674c-7.168-4.344-12.815,0-12.815,0s20.986,8.221,23.433,23.818
						c0.058,0.193,0.106,0.377,0.145,0.556C477.77,233.954,474.128,221.614,467.627,217.674z"/>
					<path style="fill:#2BAAA7;" d="M478.391,242.049c0.064,0.829,0.096,1.614,0.096,2.34
						C478.487,244.389,478.694,243.441,478.391,242.049z"/>
				</g>
				<path style="fill:#2BAAA7;" d="M406.018,255.785c0,0,12.163-6.95,23.891-7.167c11.728-0.217,22.588,9.339,23.891,2.389
					C429.911,230.156,406.018,255.785,406.018,255.785z"/>
				<path style="fill:#2BAAA7;" d="M477.258,241.885c-17.376-5.864-23.457,3.91-23.457,3.91s49.479-5.293,41.176,47.174
					c-0.072,0.53-0.127,0.825-0.127,0.825C501.149,274.681,494.633,247.749,477.258,241.885z"/>
				<path style="fill:#2BAAA7;" d="M422.326,301.429c-0.347,0.625-0.713,1.263-1.104,1.921c0,0,16.507-6.299,21.937-16.507
					c5.43-10.208,10.529-18.679,10.586-21.285c0,0-0.007-0.003-0.009-0.003C453.429,265.443,444.761,262.693,422.326,301.429z"/>
				<path style="fill:#2BAAA7;" d="M474.94,300.159c-0.636-7.669-2.026-18.081-5.067-25.804
					c-5.43-13.792-16.072-12.923-16.072-12.923S471.495,276.357,474.94,300.159z"/>
			</g>
			<path style="fill:#4800D4;" d="M422.16,336.264l6.519,48.915c0.152,1.139,1.026,2.042,2.161,2.222
				c6.448,1.021,28.104,3.897,47.462,0.052c1.071-0.213,1.884-1.094,2.041-2.174l7.125-48.984c0.228-1.567-0.987-2.972-2.571-2.972
				h-60.162C423.164,333.323,421.952,334.707,422.16,336.264z"/>
			<path style="fill:#3904BA;" d="M487.088,338.909c0,0-19.388,48.05-52.402,48.707c-1.47,0.029-2.86-0.077-4.181-0.296
				c0.109,0.033,0.22,0.063,0.335,0.082c6.448,1.021,28.104,3.897,47.462,0.052c1.071-0.213,1.884-1.094,2.041-2.174
				L487.088,338.909L487.088,338.909z"/>
			<path style="fill:#652FEA;" d="M429.082,367.928c0,0-0.303-18.525,4.828-24.812c2.542-3.115,10.399-5.256,17.68-6.624h-24.436
				c-1.197,0-2.121,1.054-1.962,2.241L429.082,367.928L429.082,367.928z"/>
			<g>
				<path style="fill:#FFFFFF;" d="M426.325,343.707c0.214,1.376,0.429,2.752,0.643,4.128c0.054,0.347,0.4,0.727,0.689,0.896
					c0.322,0.188,0.795,0.268,1.156,0.151c0.363-0.117,0.713-0.342,0.896-0.689c0.05-0.119,0.101-0.239,0.151-0.358
					c0.072-0.266,0.072-0.532,0-0.797c-0.214-1.376-0.429-2.752-0.643-4.128c-0.054-0.347-0.4-0.727-0.689-0.897
					c-0.322-0.188-0.795-0.268-1.156-0.151c-0.363,0.117-0.713,0.342-0.896,0.689c-0.05,0.119-0.101,0.239-0.151,0.358
					C426.253,343.176,426.253,343.442,426.325,343.707L426.325,343.707z"/>
			</g>
		</g>
		<g>
			<rect x="174.974" y="153.745" style="fill:#FFFFFF;" width="151.167" height="172.018"/>
			<path style="fill:#DBECF5;" d="M180.295,187.519L180.295,187.519V161.13h26.389v0
				C206.684,175.704,194.869,187.519,180.295,187.519z"/>
			<path style="fill:#DBECF5;" d="M319.985,187.519L319.985,187.519l0-26.389h-26.389v0
				C293.596,175.704,305.411,187.519,319.985,187.519z"/>
			<path style="fill:#DBECF5;" d="M319.985,294.344L319.985,294.344l0,26.389h-26.389v0
				C293.596,306.158,305.411,294.344,319.985,294.344z"/>
			<polygon style="fill:#D35352;" points="265.557,314.124 261.13,303.029 255.28,305.363 259.707,316.458 262.028,313.778 			"/>
			<polygon style="fill:#D35352;" points="239.331,314.124 243.758,303.029 249.608,305.363 245.181,316.458 242.86,313.778 			"/>
			<path style="fill:#DBECF5;" d="M180.295,294.344L180.295,294.344v26.389h26.389v0
				C206.684,306.158,194.869,294.344,180.295,294.344z"/>
			<circle style="fill:#EBB04B;" cx="252.444" cy="293.646" r="13.113"/>
			<path style="fill:#D4DADD;" d="M273.634,182.958h-45.285c-1.169,0-2.118-0.948-2.118-2.118l0,0c0-1.169,0.948-2.118,2.118-2.118
				h45.285c1.169,0,2.118,0.948,2.118,2.118l0,0C275.752,182.01,274.804,182.958,273.634,182.958z"/>
			<path style="fill:#D4DADD;" d="M273.634,197.51h-45.285c-1.169,0-2.118-0.948-2.118-2.118l0,0c0-1.169,0.948-2.118,2.118-2.118
				h45.285c1.169,0,2.118,0.948,2.118,2.118l0,0C275.752,196.562,274.804,197.51,273.634,197.51z"/>
			<path style="fill:#D4DADD;" d="M218.606,271.284h-13.551c-1.169,0-2.118-0.948-2.118-2.118l0,0c0-1.17,0.948-2.118,2.118-2.118
				h13.551c1.17,0,2.118,0.948,2.118,2.118l0,0C220.724,270.336,219.775,271.284,218.606,271.284z"/>
			<path style="fill:#D4DADD;" d="M218.606,278.252h-13.551c-1.169,0-2.118-0.948-2.118-2.118l0,0c0-1.169,0.948-2.118,2.118-2.118
				h13.551c1.17,0,2.118,0.948,2.118,2.118l0,0C220.724,277.304,219.775,278.252,218.606,278.252z"/>
			<path style="fill:#D4DADD;" d="M300.372,271.284h-13.551c-1.169,0-2.118-0.948-2.118-2.118l0,0c0-1.17,0.948-2.118,2.118-2.118
				h13.551c1.17,0,2.118,0.948,2.118,2.118l0,0C302.49,270.336,301.541,271.284,300.372,271.284z"/>
			<path style="fill:#D4DADD;" d="M300.372,278.252h-13.551c-1.169,0-2.118-0.948-2.118-2.118l0,0c0-1.169,0.948-2.118,2.118-2.118
				h13.551c1.17,0,2.118,0.948,2.118,2.118l0,0C302.49,277.304,301.541,278.252,300.372,278.252z"/>
			<path style="fill:#D4DADD;" d="M295.465,236.081H207.98c-1.169,0-2.118-0.948-2.118-2.118l0,0c0-1.169,0.948-2.118,2.118-2.118
				h87.485c1.17,0,2.118,0.948,2.118,2.118l0,0C297.582,235.133,296.634,236.081,295.465,236.081z"/>
			<path style="fill:#D4DADD;" d="M295.465,228.243H207.98c-1.169,0-2.118-0.948-2.118-2.118l0,0c0-1.17,0.948-2.118,2.118-2.118
				h87.485c1.17,0,2.118,0.948,2.118,2.118l0,0C297.582,227.295,296.634,228.243,295.465,228.243z"/>
			<path style="fill:#D4DADD;" d="M295.465,243.99H207.98c-1.169,0-2.118-0.948-2.118-2.118l0,0c0-1.17,0.948-2.118,2.118-2.118
				h87.485c1.17,0,2.118,0.948,2.118,2.118l0,0C297.582,243.042,296.634,243.99,295.465,243.99z"/>
		</g>
		<g>
			<g>
				<path style="fill:#EBB04B;" d="M9.891,348.786c0,7.402,0,14.803,0,22.205c0,1.069,0,2.138,0,3.207c0,0.483,0.75,0.483,0.75,0
					c0-7.402,0-14.803,0-22.205c0-1.069,0-2.138,0-3.207C10.641,348.303,9.891,348.302,9.891,348.786L9.891,348.786z"/>
			</g>
			<path style="fill:#EBB04B;" d="M6.004,385.601c0,0,0.271-11.294,4.262-11.403c3.991-0.109,4.099,11.403,4.099,11.403h-2.063
				l-0.869-4.561l-0.326,4.561H6.004z"/>
			<path style="fill:#1D2F54;" d="M80.356,327.426l-69.605,18.867c-2.047,0.555-1.86,3.518,0.24,3.811l69.648,9.725
				c0.161,0.023,0.324,0.025,0.486,0.007l71.591-8.002c2.121-0.237,2.373-3.221,0.322-3.81l-71.633-20.589
				C81.062,327.336,80.7,327.333,80.356,327.426z"/>
			<path style="fill:#070C21;" d="M80.356,329.496l-69.605,18.866c-2.047,0.555-1.86,3.518,0.24,3.812l69.648,9.725
				c0.161,0.022,0.324,0.025,0.486,0.007l71.591-8.002c2.121-0.237,2.373-3.221,0.322-3.81l-71.633-20.589
				C81.062,329.406,80.7,329.403,80.356,329.496z"/>
			<path style="fill:#142142;" d="M38.692,351.066v37.792h84.38v-37.792C123.071,351.066,85.28,338.361,38.692,351.066z"/>
			<path style="fill:#FFC97B;" d="M10.604,374.22c-0.109-0.016-0.221-0.025-0.337-0.021c-3.991,0.109-4.263,11.403-4.263,11.403
				h1.64C7.726,382.684,8.175,375.445,10.604,374.22z"/>
			<path style="fill:#1D2F54;" d="M59.048,346.932c-6.522,0.891-13.337,2.22-20.357,4.135v37.792h31.632
				C49.791,377.462,55.188,356.492,59.048,346.932z"/>
			<path style="fill:#101C35;" d="M90.317,345.673c12.197,5.762,29.095,18.241,29.413,43.185h3.341v-37.792
				C123.071,351.066,110.233,346.761,90.317,345.673z"/>
		</g>
		<g>
			<rect x="143.806" y="380.713" style="fill:#142142;" width="217.367" height="8.145"/>
			<g>
				<rect x="149.453" y="377.781" style="fill:#4045BC;" width="9.991" height="2.932"/>
				<rect x="161.833" y="377.781" style="fill:#4045BC;" width="9.991" height="2.932"/>
				<rect x="174.214" y="377.781" style="fill:#4045BC;" width="9.991" height="2.932"/>
				<rect x="186.593" y="377.781" style="fill:#4045BC;" width="9.991" height="2.932"/>
				<rect x="198.974" y="377.781" style="fill:#4045BC;" width="9.991" height="2.932"/>
				<rect x="211.354" y="377.781" style="fill:#4045BC;" width="9.991" height="2.932"/>
				<rect x="223.734" y="377.781" style="fill:#4045BC;" width="9.991" height="2.932"/>
				<rect x="236.114" y="377.781" style="fill:#4045BC;" width="9.991" height="2.932"/>
				<rect x="248.494" y="377.781" style="fill:#4045BC;" width="9.991" height="2.932"/>
				<rect x="260.874" y="377.781" style="fill:#4045BC;" width="9.991" height="2.932"/>
				<rect x="273.254" y="377.781" style="fill:#4045BC;" width="9.991" height="2.932"/>
				<rect x="285.634" y="377.781" style="fill:#4045BC;" width="9.991" height="2.932"/>
				<rect x="298.014" y="377.781" style="fill:#4045BC;" width="9.991" height="2.932"/>
				<rect x="310.394" y="377.781" style="fill:#4045BC;" width="9.991" height="2.932"/>
				<rect x="322.774" y="377.781" style="fill:#4045BC;" width="9.991" height="2.932"/>
				<rect x="335.154" y="377.781" style="fill:#4045BC;" width="9.991" height="2.932"/>
				<rect x="347.534" y="377.781" style="fill:#4045BC;" width="9.991" height="2.932"/>
			</g>
		</g>
		<path style="fill:#D7DCFF;" d="M0.059,165.515c0,0-3.491-60.023,43.307-83.204S149.023,57.495,154.127,0.321L0,0L0.059,165.515z"
			/>
		<path style="fill:#D7DCFF;" d="M281.563,0c0,0,1.839,69.272,83.223,70.716C446.169,72.16,500,156.866,500,156.866V0H281.563z"/>
		<g>
			<path style="fill:#4800D4;" d="M426.155,500H73.845l66.269-87.643c1.459-1.93,3.739-3.064,6.159-3.064h208.261
				c2.436,0,4.729,1.149,6.186,3.101L426.155,500z"/>
			<path style="fill:#F4EDD0;" d="M249.699,402.351V500H83.573l70.074-97.649C153.647,402.351,211.559,375.744,249.699,402.351z"/>
			<path style="fill:#E2DABA;" d="M249.826,402.351V500h166.126l-70.074-97.649C345.878,402.351,287.966,375.744,249.826,402.351z"
				/>
			<path style="opacity:0.67;fill:#E2DABA;" d="M219.312,391.217c7.514,8.59,13.371,19.106,14.413,31.494
				c3.286,39.095-18.924,64.658-53.43,77.288h69.404v-97.649C240.373,395.846,229.866,392.527,219.312,391.217z"/>
			<path style="fill:#CCC4A2;" d="M335.154,418.151c19.8,27.344,28.369,59.58,26.245,81.849h54.552l-70.074-97.649
				c0,0-26.054-11.969-54.72-11.823C307.278,395.117,324.441,403.355,335.154,418.151z"/>
			<g>
				<g>
					<path style="fill:#CCC4A2;" d="M242.169,412.786c-0.133,0-0.267-0.053-0.365-0.158c-21.101-22.535-86.552-3.056-87.211-2.857
						c-0.266,0.08-0.544-0.069-0.624-0.334c-0.08-0.264,0.069-0.543,0.333-0.623c0.166-0.05,16.806-5.045,35.867-7.155
						c25.692-2.839,43.311,0.617,52.364,10.286c0.189,0.201,0.179,0.518-0.023,0.707
						C242.415,412.741,242.292,412.786,242.169,412.786z"/>
				</g>
				<g>
					<path style="fill:#CCC4A2;" d="M242.169,420.802c-0.138,0-0.275-0.057-0.374-0.168c-19.816-22.332-91.489-3.047-92.21-2.85
						c-0.262,0.071-0.541-0.083-0.614-0.351c-0.073-0.267,0.084-0.541,0.351-0.614c0.182-0.05,18.392-4.991,38.844-7.074
						c27.57-2.81,45.865,0.631,54.378,10.225c0.183,0.207,0.165,0.522-0.042,0.706C242.406,420.76,242.288,420.802,242.169,420.802z
						"/>
				</g>
				<g>
					<path style="fill:#CCC4A2;" d="M141.792,428.858c-0.215,0-0.414-0.14-0.479-0.356c-0.079-0.265,0.071-0.543,0.335-0.622
						c0.726-0.22,72.921-21.544,99.775,0.089c0.215,0.174,0.249,0.488,0.076,0.703c-0.172,0.217-0.486,0.25-0.703,0.076
						c-26.447-21.306-98.14-0.126-98.861,0.089C141.887,428.852,141.839,428.858,141.792,428.858z"/>
				</g>
				<g>
					<path style="fill:#CCC4A2;" d="M133.89,441.002c-0.216,0-0.416-0.142-0.479-0.359c-0.078-0.265,0.074-0.543,0.338-0.62
						c0.208-0.062,21.027-6.133,44.555-9.146c31.696-4.06,52.945-0.94,63.16,9.272c0.195,0.195,0.195,0.512,0,0.707
						s-0.512,0.195-0.707,0c-23.868-23.86-105.899-0.115-106.725,0.126C133.983,440.995,133.936,441.002,133.89,441.002z"/>
				</g>
				<g>
					<path style="fill:#CCC4A2;" d="M241.11,453.836c-0.176,0-0.347-0.093-0.438-0.258c-14.767-26.72-112.992-2.288-113.982-2.038
						c-0.271,0.069-0.539-0.095-0.607-0.362c-0.067-0.268,0.095-0.539,0.362-0.606c0.249-0.063,25.195-6.313,51.669-9.135
						c35.711-3.809,57.054,0.115,63.433,11.657c0.134,0.242,0.046,0.546-0.196,0.68C241.274,453.816,241.191,453.836,241.11,453.836
						z"/>
				</g>
				<g>
					<path style="fill:#CCC4A2;" d="M241.109,467.193c-0.196,0-0.382-0.116-0.462-0.309c-13.495-32.525-121.658-4.234-122.748-3.943
						c-0.266,0.072-0.541-0.088-0.612-0.355c-0.071-0.267,0.088-0.54,0.355-0.611c0.274-0.072,27.75-7.314,56.562-10.386
						c38.875-4.147,61.539,0.871,67.367,14.913c0.106,0.255-0.015,0.548-0.27,0.653
						C241.238,467.182,241.173,467.193,241.109,467.193z"/>
				</g>
				<g>
					<path style="fill:#CCC4A2;" d="M242.17,479.899c-0.159,0-0.316-0.076-0.413-0.217c-23.685-34.492-129.946-4.669-131.017-4.364
						c-0.269,0.08-0.543-0.079-0.618-0.344c-0.076-0.266,0.078-0.542,0.344-0.617c0.269-0.077,27.234-7.705,56.805-10.931
						c39.839-4.344,65.177,0.934,75.31,15.689c0.156,0.228,0.099,0.539-0.129,0.695C242.366,479.871,242.268,479.899,242.17,479.899
						z"/>
				</g>
				<g>
					<path style="fill:#CCC4A2;" d="M239.331,492.605c-0.153,0-0.304-0.069-0.401-0.201c-25.199-33.864-133.413-3.066-134.503-2.751
						c-0.266,0.08-0.542-0.076-0.619-0.342c-0.077-0.266,0.076-0.542,0.342-0.619c0.273-0.079,27.726-7.953,57.965-11.5
						c40.731-4.781,66.845,0.139,77.618,14.614c0.165,0.222,0.119,0.535-0.103,0.7C239.54,492.573,239.435,492.605,239.331,492.605z
						"/>
				</g>
			</g>
			<g>
				<g>
					<path style="fill:#B5AC8A;" d="M257.2,412.786c0.133,0,0.267-0.053,0.365-0.158c21.101-22.535,86.552-3.056,87.211-2.857
						c0.266,0.08,0.544-0.069,0.624-0.334c0.08-0.264-0.069-0.543-0.333-0.623c-0.166-0.05-16.806-5.045-35.867-7.155
						c-25.692-2.839-43.311,0.617-52.364,10.286c-0.189,0.201-0.179,0.518,0.023,0.707
						C256.955,412.741,257.078,412.786,257.2,412.786z"/>
				</g>
				<g>
					<path style="fill:#B5AC8A;" d="M257.2,420.802c0.138,0,0.275-0.057,0.374-0.168c19.816-22.332,91.489-3.047,92.21-2.85
						c0.262,0.071,0.541-0.083,0.614-0.351c0.073-0.267-0.084-0.541-0.351-0.614c-0.182-0.05-18.392-4.991-38.844-7.074
						c-27.57-2.81-45.865,0.631-54.378,10.225c-0.183,0.207-0.165,0.522,0.042,0.706C256.963,420.76,257.082,420.802,257.2,420.802z
						"/>
				</g>
				<g>
					<path style="fill:#B5AC8A;" d="M357.578,428.858c0.215,0,0.414-0.14,0.479-0.356c0.079-0.265-0.071-0.543-0.336-0.622
						c-0.726-0.22-72.921-21.544-99.775,0.089c-0.215,0.174-0.249,0.488-0.076,0.703c0.172,0.217,0.486,0.25,0.703,0.076
						c26.447-21.306,98.14-0.126,98.861,0.089C357.482,428.852,357.531,428.858,357.578,428.858z"/>
				</g>
				<g>
					<path style="fill:#B5AC8A;" d="M365.48,441.002c0.216,0,0.416-0.142,0.479-0.359c0.078-0.265-0.074-0.543-0.338-0.62
						c-0.207-0.062-21.027-6.133-44.555-9.146c-31.696-4.06-52.945-0.94-63.16,9.272c-0.195,0.195-0.195,0.512,0,0.707
						c0.195,0.195,0.512,0.195,0.707,0c23.868-23.86,105.899-0.115,106.725,0.126C365.386,440.995,365.434,441.002,365.48,441.002z"
						/>
				</g>
				<g>
					<path style="fill:#B5AC8A;" d="M258.26,453.836c0.176,0,0.347-0.093,0.438-0.258c14.767-26.72,112.992-2.288,113.982-2.038
						c0.271,0.069,0.54-0.095,0.608-0.362c0.067-0.268-0.095-0.539-0.362-0.606c-0.249-0.063-25.195-6.313-51.669-9.135
						c-35.711-3.809-57.054,0.115-63.433,11.657c-0.134,0.242-0.046,0.546,0.196,0.68
						C258.095,453.816,258.178,453.836,258.26,453.836z"/>
				</g>
				<g>
					<path style="fill:#B5AC8A;" d="M258.26,467.193c0.196,0,0.382-0.116,0.462-0.309c13.495-32.525,121.658-4.234,122.748-3.943
						c0.266,0.072,0.541-0.088,0.612-0.355c0.071-0.267-0.088-0.54-0.355-0.611c-0.274-0.072-27.75-7.314-56.562-10.386
						c-38.875-4.147-61.539,0.871-67.367,14.913c-0.106,0.255,0.015,0.548,0.271,0.653
						C258.131,467.182,258.196,467.193,258.26,467.193z"/>
				</g>
				<g>
					<path style="fill:#B5AC8A;" d="M257.2,479.899c0.159,0,0.316-0.076,0.413-0.217c23.685-34.492,129.946-4.669,131.017-4.364
						c0.269,0.08,0.542-0.079,0.618-0.344c0.076-0.266-0.078-0.542-0.344-0.617c-0.269-0.077-27.234-7.705-56.805-10.931
						c-39.839-4.344-65.177,0.934-75.31,15.689c-0.156,0.227-0.099,0.539,0.129,0.695
						C257.003,479.871,257.102,479.899,257.2,479.899z"/>
				</g>
				<g>
					<path style="fill:#B5AC8A;" d="M260.038,492.605c0.153,0,0.304-0.069,0.401-0.201c25.199-33.864,133.413-3.066,134.503-2.751
						c0.266,0.08,0.542-0.076,0.619-0.342c0.077-0.266-0.076-0.542-0.342-0.619c-0.273-0.079-27.726-7.953-57.965-11.5
						c-40.731-4.781-66.845,0.139-77.618,14.614c-0.165,0.222-0.119,0.535,0.103,0.7
						C259.83,492.573,259.935,492.605,260.038,492.605z"/>
				</g>
			</g>
		</g>
		<g>
			<g>
				<path style="fill:#142142;" d="M26.55,390.896c3.8,0,7.599,0,11.399,0c10.248,0,20.496,0,30.744,0c15.194,0,30.387,0,45.58,0
					c18.537,0,37.073,0,55.61,0c20.232,0,40.464,0,60.696,0c20.561,0,41.123,0,61.684,0c19.041,0,38.082,0,57.123,0
					c16.148,0,32.297,0,48.445,0c11.61,0,23.22,0,34.83,0c5.484,0,10.979,0.1,16.463,0c0.24-0.004,0.48,0,0.72,0c1.93,0,1.933-3,0-3
					c-3.8,0-7.599,0-11.399,0c-10.248,0-20.496,0-30.744,0c-15.194,0-30.387,0-45.581,0c-18.537,0-37.073,0-55.61,0
					c-20.232,0-40.464,0-60.696,0c-20.561,0-41.123,0-61.684,0c-19.041,0-38.082,0-57.123,0c-16.148,0-32.297,0-48.445,0
					c-11.61,0-23.22,0-34.83,0c-5.484,0-10.979-0.1-16.463,0c-0.24,0.004-0.48,0-0.72,0
					C24.619,387.896,24.616,390.896,26.55,390.896L26.55,390.896z"/>
			</g>
			<g>
				<path style="fill:#142142;" d="M38.692,407.271c10.261,0,20.523,0,30.784,0c1.457,0,2.913,0,4.37,0c1.93,0,1.934-3,0-3
					c-10.261,0-20.523,0-30.784,0c-1.457,0-2.913,0-4.37,0C36.761,404.271,36.758,407.271,38.692,407.271L38.692,407.271z"/>
			</g>
			<g>
				<path style="fill:#142142;" d="M65.645,420.302c7.205,0,14.41,0,21.616,0c1.019,0,2.038,0,3.057,0c1.93,0,1.934-3,0-3
					c-7.205,0-14.41,0-21.616,0c-1.019,0-2.038,0-3.057,0C63.714,417.302,63.711,420.302,65.645,420.302L65.645,420.302z"/>
			</g>
			<g>
				<path style="fill:#142142;" d="M26.55,436.592c6.85,0,13.7,0,20.551,0c0.969,0,1.938,0,2.906,0c1.93,0,1.934-3,0-3
					c-6.85,0-13.7,0-20.551,0c-0.969,0-1.938,0-2.906,0C24.619,433.592,24.616,436.592,26.55,436.592L26.55,436.592z"/>
			</g>
			<g>
				<path style="fill:#142142;" d="M415.185,420.302c11.826,0,23.651,0,35.477,0c1.643,0,3.285,0,4.928,0c1.93,0,1.934-3,0-3
					c-11.826,0-23.651,0-35.477,0c-1.643,0-3.285,0-4.928,0C413.255,417.302,413.252,420.302,415.185,420.302L415.185,420.302z"/>
			</g>
			<g>
				<path style="fill:#142142;" d="M442.113,436.592c8.816,0,17.633,0,26.449,0c1.244,0,2.489,0,3.733,0c1.93,0,1.934-3,0-3
					c-8.816,0-17.633,0-26.449,0c-1.244,0-2.488,0-3.733,0C440.183,433.592,440.18,436.592,442.113,436.592L442.113,436.592z"/>
			</g>
		</g>
	</g>
</g>
</svg>
