<?xml version="1.0" encoding="utf-8"?>
<!-- Generator: Adobe Illustrator 27.5.0, SVG Export Plug-In . SVG Version: 6.00 Build 0)  -->
<svg version="1.1" xmlns="http://www.w3.org/2000/svg" xmlns:xlink="http://www.w3.org/1999/xlink" x="0px" y="0px"
	 viewBox="0 0 600 500" style="enable-background:new 0 0 600 500;" xml:space="preserve">
<g id="BACKGROUBD">
	<rect y="400.572" style="fill:#F2F5F7;" width="600" height="14.964"/>
	<g>
		<rect x="447.744" y="83.772" style="fill:#F2F5F7;" width="90.265" height="201.103"/>
		<rect x="411.185" y="49.717" style="fill:#F2F5F7;" width="31.48" height="28.976"/>
		<rect x="447.744" y="49.717" style="fill:#F2F5F7;" width="90.265" height="28.976"/>
		<rect x="543.088" y="49.717" style="fill:#F2F5F7;" width="31.898" height="28.976"/>
		<rect x="543.088" y="83.772" style="fill:#F2F5F7;" width="31.898" height="201.103"/>
		<rect x="411.185" y="83.772" style="fill:#F2F5F7;" width="31.48" height="201.103"/>
	</g>
	<g>
		<rect x="268.208" y="83.772" style="fill:#F2F5F7;" width="90.265" height="201.103"/>
		<rect x="231.649" y="49.717" style="fill:#F2F5F7;" width="31.48" height="28.976"/>
		<rect x="268.208" y="49.717" style="fill:#F2F5F7;" width="90.265" height="28.976"/>
		<rect x="363.552" y="49.717" style="fill:#F2F5F7;" width="31.898" height="28.976"/>
		<rect x="363.552" y="83.772" style="fill:#F2F5F7;" width="31.898" height="201.103"/>
		<rect x="231.649" y="83.772" style="fill:#F2F5F7;" width="31.48" height="201.103"/>
	</g>
</g>
<g id="OBJECTS">
	<g>
		<g>
			<path style="fill:#99B0CC;" d="M542.632,416.376c0,1.81-6.474,3.277-14.461,3.277s-14.461-1.467-14.461-3.277
				s6.474-3.277,14.461-3.277S542.632,414.567,542.632,416.376z"/>
			<g>
				<path style="fill:#FFC052;" d="M509.476,379.749c0,0-0.14,19.559,4.691,34.936c0,2.658,6.27,4.812,14.005,4.812
					c7.734,0,14.005-2.155,14.005-4.812c0,0,4.691-12.938,4.691-34.936H509.476z"/>
				<ellipse style="fill:#8A4C27;" cx="528.171" cy="379.749" rx="18.695" ry="2.047"/>
				<path style="fill:#DE9B49;" d="M511.319,380.637c3.019-0.686,9.431-1.16,16.852-1.16c7.421,0,13.833,0.474,16.852,1.16
					c1.181-0.268,1.843-0.57,1.843-0.888c0-1.131-8.37-2.047-18.695-2.047c-10.325,0-18.695,0.917-18.695,2.047
					C509.476,380.067,510.138,380.368,511.319,380.637z"/>
				<g>
					<path style="fill:none;stroke:#8A4C27;stroke-width:0.3614;stroke-miterlimit:10;" d="M528.543,380.565
						c0,0-8.336-50.23,37.245-81.147"/>
					<path style="fill:none;stroke:#8A4C27;stroke-width:0.3614;stroke-miterlimit:10;" d="M528.133,373.61
						c0,0-13.951-20.624-25.51-30.679"/>
					<path style="fill:none;stroke:#8A4C27;stroke-width:0.3614;stroke-miterlimit:10;" d="M528.064,366.517
						c0,0,0.418-28.449-11.928-51.367"/>
					<path style="fill:none;stroke:#8A4C27;stroke-width:0.3614;stroke-miterlimit:10;" d="M524.549,338.541
						c0,0,0.334-13.859,7.644-22.498"/>
					<path style="fill:none;stroke:#8A4C27;stroke-width:0.3614;stroke-miterlimit:10;" d="M529.176,356.243
						c0,0,8.082-16.449,23.012-22.251"/>
				</g>
			</g>
		</g>
		<path style="fill:#589160;" d="M513.423,353.883c0,0,3.046-11.775-6.943-16.737c-9.989-4.961-21.578-5.663-25.958-2.622
			c0,0,11.028,5.524,14.668,9.662C498.83,348.323,510.007,354.062,513.423,353.883z"/>
		<path style="fill:#589160;" d="M520.066,323.622c0,0,5.566-9.491-1.487-15.118c-7.053-5.627-11.985-6.893-11.985-6.893
			S512.692,319.049,520.066,323.622z"/>
		<path style="fill:#589160;" d="M527.599,324.666c0,0,15.783,4.784,16.33-15.544c0.547-20.329,0-17.16,0-17.16
			S521.873,310.536,527.599,324.666z"/>
		<path style="fill:#589160;" d="M535.756,346.47c0,0-1.61-24.325,37.307-14.32C573.063,332.15,570.361,355.402,535.756,346.47z"/>
		<path style="fill:#589160;" d="M548.225,314.608c0,0,3.277-17.948,16.01-17.24c12.733,0.707,14.383,3.568,14.383,3.568
			S566.825,316.244,548.225,314.608z"/>
	</g>
	<g>
		<polygon style="fill:#F2F5F7;" points="519.871,430.941 169.04,430.941 134.396,463.345 485.227,463.345 		"/>
		<ellipse style="fill:#F2F5F7;" cx="221.746" cy="468.247" rx="33.647" ry="7.953"/>
		<ellipse style="fill:#F2F5F7;" cx="272.581" cy="461.87" rx="33.647" ry="7.953"/>
		<rect x="161.05" y="281.105" style="fill:#C5D5E8;" width="10.752" height="156.843"/>
		<polygon style="fill:#99B0CC;" points="171.454,437.948 179.237,433.22 179.237,277.481 171.454,281.105 		"/>
		<rect x="501.129" y="281.105" style="fill:#C5D5E8;" width="10.752" height="156.843"/>
		<polygon style="fill:#99B0CC;" points="511.533,437.948 516.909,433.22 516.909,277.481 511.533,281.105 		"/>
		<g>
			<path style="fill:none;stroke:#0A0604;stroke-linecap:round;stroke-miterlimit:10;" d="M446.46,439.508l0.109-4.343
				c0.083-3.298-2.773-5.905-6.05-5.522l-91.895-0.246c-2.681,0.313-4.723,2.551-4.791,5.249l-0.135,5.38"/>
			<line style="fill:none;stroke:#0A0604;stroke-miterlimit:10;" x1="400.424" y1="330.425" x2="401.419" y2="429.39"/>
			<g>
				<path style="fill:#0A0604;" d="M349.299,455.814l-6.522,0.066c-2.346,0.024-4.268-1.859-4.291-4.206l-0.081-8.012
					c-0.024-2.346,1.859-4.267,4.206-4.291l6.522-0.066c2.346-0.024,4.267,1.859,4.291,4.206l0.081,8.012
					C353.529,453.869,351.646,455.79,349.299,455.814z"/>
				<path style="fill:#99B0CC;" d="M344.061,447.611c0.037,3.672-0.803,6.658-1.875,6.669s-1.972-2.958-2.009-6.63
					c-0.037-3.672,0.803-6.658,1.875-6.669C343.125,440.97,344.024,443.939,344.061,447.611z"/>
			</g>
			<g>
				<path style="fill:#0A0604;" d="M449.535,454.997l-5.762,0.058c-2.261,0.023-4.113-1.792-4.136-4.053l-0.084-8.32
					c-0.023-2.261,1.792-4.113,4.053-4.136l5.762-0.058c2.261-0.023,4.113,1.792,4.136,4.053l0.084,8.32
					C453.611,453.122,451.796,454.974,449.535,454.997z"/>
				<path style="fill:#99B0CC;" d="M447.423,446.763c0.037,3.672-1.46,6.665-3.345,6.684c-1.884,0.019-3.441-2.943-3.478-6.615
					c-0.037-3.672,1.46-6.665,3.344-6.684C445.829,440.128,447.386,443.09,447.423,446.763z"/>
			</g>
			<path style="fill:#0A0604;" d="M400.608,337.316h-0.255c-1.565,0-2.833-1.269-2.833-2.833v-15.299h5.922v15.299
				C403.441,336.047,402.172,337.316,400.608,337.316z"/>
		</g>
		<g>
			<polygon style="fill:#EFA97C;" points="368.775,430.822 371.143,441.97 386.591,435.342 384.758,426.717 			"/>
			<path style="fill:#293173;" d="M385.674,431.029c0,0,6.53,17.329,5.379,18.872c-1.151,1.543-2.529,3.616-2.529,3.616
				l-16.632-15.5L385.674,431.029z"/>
			<path style="fill:#293173;" d="M390.424,446.941c-0.381-1.214-12.954-16.246-15.483-15.133
				c-2.529,1.113-9.915,9.561-16.074,23.781c-3.612,8.338,6.958,7.229,20.656,3.259
				C392.412,455.111,390.424,446.941,390.424,446.941z"/>
			<path style="fill:#FFFFFF;" d="M389.579,451.968c0.451-0.651,0.981-1.404,1.475-2.066c0.65-0.872-0.766-5.607-2.483-10.693
				c-0.854,2.764,0.104,6.995,0.104,6.995l-3.888,5.09c-0.609,0.798-1.711,1.055-2.601,0.59c-2.733-1.429-8.956-3.899-16.275-1.668
				c-2.371,0.723-4.339,1.793-5.976,2.997c-0.359,0.775-0.716,1.564-1.068,2.377c-3.611,8.338,6.958,7.229,20.656,3.259
				C385.564,457.096,388.338,454.37,389.579,451.968z"/>
			<g>
				<path style="fill:#FFFFFF;" d="M370.061,438.461c3.099-2.546,7.484-3.163,11.342-2.41
					C377.501,436.004,373.51,436.529,370.061,438.461L370.061,438.461z"/>
			</g>
			<g>
				<path style="fill:#FFFFFF;" d="M367.318,441.331c3.099-2.546,7.484-3.163,11.342-2.41
					C374.757,438.874,370.767,439.4,367.318,441.331L367.318,441.331z"/>
			</g>
			<g>
				<path style="fill:#FFFFFF;" d="M365.257,443.741c3.099-2.546,7.484-3.163,11.342-2.41
					C372.696,441.284,368.706,441.81,365.257,443.741L365.257,443.741z"/>
			</g>
			<path style="fill:#FFFFFF;" d="M380.519,436.397c-1.7,0.682-3.614,0.238-5.085-0.632l-0.054,0.351
				c2.288-0.692,5.283-1.667,5.939-4.284c0.159-1.33-0.519-3.106-2.052-3.22c-1.438,0.103-2.317,1.372-3.114,2.345
				c-0.991,1.341-1.791,2.766-2.491,4.259l0.728-0.018c-0.592-0.887-3.914-8.056-5.003-5.85c-0.186,1.571,0.726,2.59,1.39,3.823
				c0.704,1.105,1.458,2.166,2.29,3.176l0.007-0.211c-0.215,0.217-0.613,0.369-0.977,0.44c-1.164,0.221-2.359-0.015-3.499-0.299
				c1.478,0.472,3.324,1.068,4.733,0.076c0,0,0.096-0.084,0.096-0.084c-0.768-1.098-1.529-2.21-2.192-3.368
				c-0.567-0.918-1.307-2.549-1.237-3.32c1.316,1.498,2.642,3.981,3.67,5.979l0.365,0.714l0.364-0.732
				c0.767-1.372,3.705-7.7,5.618-5.78c2.28,3.047-2.218,5.226-4.733,5.979c0,0-0.453,0.146-0.453,0.146
				C376.529,436.837,378.713,437.327,380.519,436.397L380.519,436.397z"/>
		</g>
		<g>
			<polygon style="fill:#EFA97C;" points="399.119,427.687 398.002,441.735 414.435,439.759 415.202,430.117 			"/>
			<path style="fill:#293173;" d="M414.784,435.364c0,0,1.282,18.468-0.238,19.621c-1.52,1.154-3.402,2.75-3.402,2.75
				l-11.324-19.577L414.784,435.364z"/>
			<path style="fill:#293173;" d="M414.786,451.967c-0.018-1.272-5.597-18.052-8.318-17.975c-3.323,0.094-7.506,2.847-7.506,2.847
				c-4.131,3.002-10.827,7.754-16.372,14.474c-5.752,6.972,4.528,8.905,18.563,8.98
				C414.362,460.365,414.786,451.967,414.786,451.967z"/>
			<path style="fill:#FFFFFF;" d="M412.574,456.548c0.608-0.497,1.32-1.068,1.972-1.563c0.859-0.652,0.856-5.594,0.668-10.957
				c-1.583,2.408-1.87,6.737-1.87,6.737l-5.099,3.779c-0.799,0.592-1.911,0.527-2.619-0.172c-2.175-2.145-4.172-6.638-11.703-6.574
				c-2.44,0.021-4.597,0.489-6.48,1.18c-1.505,0.465-4.292,1.657-4.853,2.337c-5.752,6.972,4.528,8.905,18.563,8.98
				C407.345,460.327,410.728,458.499,412.574,456.548z"/>
			<g>
				<path style="fill:#FFFFFF;" d="M399.819,438.459c3.63-1.563,7.956-0.911,11.375,0.904
					C407.528,438.212,403.613,437.585,399.819,438.459L399.819,438.459z"/>
			</g>
			<g>
				<path style="fill:#FFFFFF;" d="M396.423,440.434c3.63-1.563,7.956-0.911,11.375,0.904
					C404.133,440.187,400.217,439.56,396.423,440.434L396.423,440.434z"/>
			</g>
			<g>
				<path style="fill:#FFFFFF;" d="M393.801,442.161c3.63-1.563,7.955-0.911,11.375,0.904
					C401.511,441.914,397.595,441.287,393.801,442.161L393.801,442.161z"/>
			</g>
			<path style="fill:#FFFFFF;" d="M410.262,439.445c-1.795,0.172-3.475-0.796-4.618-2.047l-0.149,0.321
				c2.352-0.015,5.452-0.101,6.806-2.424c0.524-1.23,0.385-3.125-1.029-3.669c-1.385-0.309-2.571,0.658-3.596,1.366
				c-1.312,1.005-2.467,2.145-3.547,3.378l0.692,0.189c-0.309-1.019-1.424-8.835-3.071-7.028c-0.618,1.454-0.044,2.69,0.235,4.06
				c0.353,1.259,0.766,2.49,1.266,3.694l0.066-0.2c-0.264,0.147-0.682,0.18-1.046,0.145c-1.16-0.118-2.221-0.683-3.215-1.278
				c1.261,0.872,2.834,1.966,4.442,1.415c0,0,0.114-0.053,0.114-0.053c-0.415-1.27-0.82-2.553-1.12-3.851
				c-0.276-1.041-0.515-2.815-0.232-3.534c0.82,1.81,1.371,4.566,1.778,6.774l0.143,0.788l0.549-0.598
				c1.109-1.098,5.66-6.333,6.925-3.95c1.293,3.567-3.563,4.383-6.146,4.392c0,0-0.469,0.012-0.469,0.012
				C406.376,438.736,408.297,439.824,410.262,439.445L410.262,439.445z"/>
		</g>
		<path style="fill:#AEC9E8;" d="M451.14,319.889H350.543c-2.032,0-3.68-1.647-3.68-3.68v-9.243c0-2.032,1.647-3.68,3.68-3.68
			H451.14c2.032,0,3.68,1.647,3.68,3.68v9.243C454.819,318.242,453.172,319.889,451.14,319.889z"/>
		<path style="fill:#293173;" d="M352.776,298.118l7.923-17.025c0,0,35.011-4.915,42.219-0.653
			c7.208,4.262-14.614,27.796-14.614,27.796L352.776,298.118z"/>
		<path style="fill:#293173;" d="M411.679,312.474l34.456-13.407c0,0-9.022-18.258-13.607-27.588l-35.405,10.979
			C397.124,282.458,403.689,308.166,411.679,312.474z"/>
		<path style="fill:#4955A6;" d="M348.292,305.685c0.515-3.56,2.025-7.543,8.122-10.969c8.476-4.763,24.609-7.277,28.686-0.574
			c9.712,15.973,6.625,134.811,6.625,134.811l-24.55,2.465C367.175,431.418,344.304,333.223,348.292,305.685z"/>
		<path style="fill:#293173;" d="M366.239,430.458"/>
		<path style="fill:#4955A6;" d="M411.492,301.88c1.41-3.323,5.295-9.864,11.028-11.127c8.545-1.882,28.086,3.871,28.314,21.112
			c0.247,18.635-29.406,119.192-29.406,119.192l-24.724-3.632C396.705,427.426,400.584,327.585,411.492,301.88z"/>
		<polygon style="fill:#293173;" points="390.129,303.582 408.507,303.582 397.143,283.59 		"/>
		<path style="fill:#AEC9E8;" d="M440.06,279.82h-83.089c-5.218,0-9.448-4.23-9.448-9.447v-96.965c0-5.218,4.23-9.447,9.448-9.447
			h83.089c5.218,0,9.447,4.23,9.447,9.447v96.965C449.507,275.59,445.277,279.82,440.06,279.82z"/>
		<g>
			<path style="fill:none;stroke:#0A0604;stroke-linecap:round;stroke-miterlimit:10;" d="M217.668,435.631v-4.104
				c0-3.117-2.76-5.511-5.845-5.071l-74.605,10.631c-2.524,0.36-4.4,2.521-4.4,5.071v5.084"/>
			<path style="fill:none;stroke:#0A0604;stroke-miterlimit:10;" d="M175.243,359.9v71.825l25.566,4.431
				c2.219,0.385,3.839,2.31,3.839,4.561v4.788"/>
			<g>
				<path style="fill:#0A0604;" d="M136.385,458.285h-6.161c-2.217,0-4.014-1.797-4.014-4.014v-7.569
					c0-2.217,1.797-4.014,4.014-4.014h6.161c2.217,0,4.014,1.797,4.014,4.014v7.569
					C140.398,456.488,138.601,458.285,136.385,458.285z"/>
				<path style="fill:#99B0CC;" d="M131.515,450.487c0,3.47-0.821,6.282-1.835,6.282s-1.835-2.813-1.835-6.282
					c0-3.469,0.821-6.282,1.835-6.282S131.515,447.018,131.515,450.487z"/>
			</g>
			<g>
				<path style="fill:#0A0604;" d="M220.183,445.507h-5.03c-1.974,0-3.575-1.6-3.575-3.575v-7.264c0-1.974,1.6-3.575,3.575-3.575
					h5.03c1.974,0,3.575,1.6,3.575,3.575v7.264C223.758,443.906,222.158,445.507,220.183,445.507z"/>
				<path style="fill:#99B0CC;" d="M218.412,438.3c0,3.206-1.334,5.805-2.978,5.805c-1.645,0-2.978-2.599-2.978-5.805
					s1.333-5.805,2.978-5.805C217.079,432.495,218.412,435.094,218.412,438.3z"/>
			</g>
			<g>
				<path style="fill:#0A0604;" d="M207.729,458.231h-5.443c-2.136,0-3.868-1.732-3.868-3.868v-7.86
					c0-2.136,1.732-3.868,3.868-3.868h5.443c2.136,0,3.868,1.732,3.868,3.868v7.86C211.597,456.499,209.865,458.231,207.729,458.231
					z"/>
				<path style="fill:#99B0CC;" d="M205.812,450.433c0,3.469-1.443,6.282-3.223,6.282c-1.78,0-3.223-2.813-3.223-6.282
					c0-3.469,1.443-6.282,3.223-6.282C204.369,444.151,205.812,446.963,205.812,450.433z"/>
			</g>
			<path style="fill:#0A0604;" d="M175.483,371.289h-0.241c-1.478,0-2.677-1.198-2.677-2.677V354.16h5.595v14.453
				C178.16,370.091,176.962,371.289,175.483,371.289z"/>
		</g>
		<path style="fill:#AEC9E8;" d="M232.049,337.947l-87.993,0.382c-0.747,0.003-1.493,0.057-2.234,0.162l-10.607,1.495
			c-1.861,0-3.369,1.674-3.369,3.739v12.313c0,2.065,1.508,3.739,3.369,3.739h40.608c11.566,0,23.125,0.013,34.691,0.123
			c8.611,0.082,17.848-3.262,26.426-5.584c1.67-0.452,2.841-2.111,2.841-4.019v-8.207
			C235.781,339.802,234.11,337.947,232.049,337.947z"/>
		<path style="fill:#87A6CC;" d="M210.042,359.776h-78.648c-1.96,0-3.549-1.589-3.549-3.549v-12.693c0-1.96,1.589-3.549,3.549-3.549
			h78.648c1.96,0,3.549,1.589,3.549,3.549v12.693C213.591,358.187,212.002,359.776,210.042,359.776z"/>
		<path style="fill:#87A6CC;" d="M124.522,295.181l53.488-2.698c0.78-0.039,1.549-0.197,2.281-0.467l3.668-1.354
			c3.365-1.242,5.429-4.642,4.977-8.201l-10.885-85.843c-0.507-3.999-4.01-6.932-8.035-6.729l-47.977,2.42
			c-3.316,0.167-6.59,0.82-9.717,1.936l-0.288,0.103c-3.41,1.215-5.515,4.639-5.06,8.231l11.391,87.467
			C118.765,293.101,121.445,295.337,124.522,295.181z"/>
		<path style="fill:#AEC9E8;" d="M183.865,288.834l-49.251,2.484c-2.832,0.143-5.296-1.921-5.653-4.734l-11.186-88.22
			c-0.397-3.132,1.954-5.939,5.107-6.098l49.251-2.484c2.832-0.143,5.296,1.921,5.653,4.734l11.186,88.22
			C189.369,285.868,187.018,288.675,183.865,288.834z"/>
		<polygon style="fill:#A3623C;" points="215.074,225.521 218.899,248.79 200.272,257.877 190.677,230.605 		"/>
		<path style="fill:#8E4D26;" d="M207.561,233.726l0.358,14.889l8.981-0.956c0,0-11.268,2.438-12.111,8.072l-4.89-27.78l11.03-1.566
			L207.561,233.726z"/>
		<path style="fill:#A3623C;" d="M258.495,261.488l9.026-2.238c-0.088-1.393,2.901-6.384,1.54-6.697
			c-9.577-2.206-46.356-6.124-52.162-4.894c-9.538,2.021-14.518,4.663-16.791,7.602c-0.559,0.723,0.104,2.948,0.749,3.741
			c2.456,3.021,5.511,4.962,18.042,7.256C237.665,269.693,258.495,261.488,258.495,261.488z"/>
		<g>
			<path style="fill:#593119;" d="M147.099,146.983c0,0-4.569,21.464,9.292,16.159l3.709,1.429
				c0.364-0.307-17.197,13.444-14.347-17.118L147.099,146.983z"/>
			<path style="fill:#FFC052;" d="M199.723,191.89l-20.83-7.24l-26.832,0.535l-18.898,11.268
				c-5.942,3.974-7.171,12.613-6.983,21.789c0.1,4.872,0.626,9.726,1.434,14.531l2.171,12.909c0,0,16.346-4.346,31.876-6.266
				l-22.579-3.04l0.441,17.463l9.1,32.121c0,0,24.067,16.081,58.006-4.996l-2.243-32.726c0,0,12.127-3.265,6.801-18.957
				c0,0,5.445-3.629,13.824-8.671c0,0-12.311-10.604-17.64-21.163C206.339,197.397,201.865,192.71,199.723,191.89z"/>
			<path style="fill:#DE9B49;" d="M163.718,237.918c-1.427-6.495-3.673-12.71-6.747-18.608
				C158.392,225.808,160.651,232.018,163.718,237.918L163.718,237.918z"/>
			<path style="fill:#DE9B49;" d="M145.694,245.008c24.407,12.465,58.769,3.207,58.769,3.207l0.33,5.936
				c0,0-23.511,2.61-38.34-0.373C151.624,250.795,145.694,245.008,145.694,245.008z"/>
			<path style="fill:#CF7E50;" d="M152.06,185.185c0,0,3.879-0.698,5.002-5.736c0.973-4.366-0.532-12.317-3.409-21.882l21.416,3.555
				c0,0,0.217,22.295,3.824,23.529v0c4.274,8.92-1.661,11.688-15.481,7.069c-2.837-0.948-5.499-2.357-7.934-4.095L152.06,185.185z"
				/>
			<path style="fill:#A3623C;" d="M174.449,167.589c0,0-0.075,4.941,2.995,15.219c-15.059-0.626-20.273-13.887-20.273-13.887
				l-1.311-1.814c0,0-0.103-3.242-0.422-4.539L174.449,167.589z"/>
			<path style="fill:#CF7E50;" d="M190.597,143.491c0,0,11.533,30.334-8.164,38.566c-9.704,4.056-29.654-22.035-31.619-26.045
				c-1.965-4.01-5.857-16.762,1.871-20.958C160.414,130.858,181.298,123.771,190.597,143.491z"/>
			<path style="fill:none;stroke:#0A0604;stroke-miterlimit:10;" d="M131.515,137.945"/>
			<path style="fill:#DE9B49;" d="M207.547,208.185c-1.139,1.953-2.07,3.979-2.899,6.049c0.98,2.594,1.974,5.184,3.079,7.729
				c1.059,2.476,2.196,4.922,3.461,7.317c-0.698-2.618-1.523-5.185-2.427-7.722c-0.89-2.542-1.885-5.043-2.895-7.538l0.004,0.433
				C206.561,212.412,207.15,210.334,207.547,208.185L207.547,208.185z"/>
			<path style="fill:#593119;" d="M188.466,139.722c0,0-2.652-4.469-7.497-6.415c-0.982-0.395-6.824,15.997-22.033,17.496
				l1.165,7.473l-9.331,2.637c0,0,0.646,1.167-1.389-0.94c-2.036-2.107-14.153-31.848,17.982-31.327
				C187.686,128.975,188.466,139.722,188.466,139.722z"/>
			<path style="fill:#593119;" d="M149.089,140.405c0,0,7.061-15.587-1.079-17.146c-8.14-1.559-16.973,22.334-9.006,22.424
				c7.967,0.09,10.911-1.988,10.911-1.988L149.089,140.405z"/>
			<path style="fill:#593119;" d="M149.614,123.849c0,0,5.531,2.304,3.544,10.154h-1.443
				C151.715,134.003,154.241,128.183,149.614,123.849z"/>
			<path style="fill:#CF7E50;" d="M151.396,164.794c2.387,3.189,6.271,4.314,8.675,2.515c2.404-1.8,2.417-5.843,0.03-9.032
				c-2.387-3.188-6.271-4.314-8.675-2.515C149.022,157.562,149.008,161.605,151.396,164.794z"/>
			<path style="fill:#A3623C;" d="M152.437,158.343c2.721,0.83,5.019,2.639,5.607,5.37c0,0,0.668-0.365,0.668-0.365
				c-1.124-0.866-2.273-1.706-3.518-2.439c1.167,1.386,2.531,2.619,3.864,3.838l-0.214-1.174
				C158.481,160.573,155.533,158.259,152.437,158.343L152.437,158.343z"/>
			<path style="fill:#593119;" d="M141.615,136.041"/>
			<g>
				<g>
					<path style="fill:#593119;" d="M171.436,147.506c0,0,2.535-4.073,6.761-3.85c2.396,0.126,1.201,1.972-0.133,3.011
						C176.73,147.707,170.982,149.821,171.436,147.506z"/>
				</g>
				<g>
					<path style="fill:#593119;" d="M186.243,143.544c0,0,3.989-1.263,5.326,1.244c0.758,1.422-1.066,1.968-2.328,1.907
						C187.977,146.634,184.328,144.814,186.243,143.544z"/>
				</g>
				<g>
					<g>
						<path style="fill:#F0ECE7;" d="M180.754,156.59c0,0-1.888-2.212-4.631-3.128c0,0-2.397-0.829-5.472,3.565
							C170.652,157.027,175.462,160.401,180.754,156.59z"/>
						<g>
							<defs>
								<path id="SVGID_1_" d="M180.754,156.59c0,0-1.888-2.212-4.631-3.128c0,0-2.397-0.829-5.472,3.565
									C170.652,157.027,175.462,160.401,180.754,156.59z"/>
							</defs>
							<clipPath id="SVGID_00000044891315772612116210000013971505493025491601_">
								<use xlink:href="#SVGID_1_"  style="overflow:visible;"/>
							</clipPath>
							<path style="clip-path:url(#SVGID_00000044891315772612116210000013971505493025491601_);fill:#A3582C;" d="M174.255,156.66
								c0.244,1.578,1.537,2.703,2.887,2.512c1.35-0.191,2.246-1.625,2.002-3.203c-0.244-1.578-1.537-2.703-2.887-2.512
								C174.907,153.648,174.01,155.081,174.255,156.66z"/>
							<path style="clip-path:url(#SVGID_00000044891315772612116210000013971505493025491601_);fill:#593119;" d="M176.692,156.273
								c-0.781,0.11-1.487,0.332-2.1,0.615c-0.022-0.089-0.051-0.174-0.065-0.267c-0.217-1.402,0.579-2.676,1.779-2.846
								c1.199-0.169,2.348,0.83,2.565,2.232c0.014,0.092,0.013,0.182,0.018,0.273C178.216,156.179,177.474,156.162,176.692,156.273z
								"/>
						</g>
						<g>
							<path style="fill:#0A0604;" d="M180.754,156.59c-2.208-1.916-5.254-4.201-7.915-1.743c-0.801,0.627-1.504,1.392-2.187,2.18
								C173.503,151.93,177.316,152.271,180.754,156.59L180.754,156.59z"/>
						</g>
					</g>
					<g>
						<path style="fill:#F0ECE7;" d="M187.328,155.668c0,0,0.746-2.432,2.408-3.889c0,0,2.121-1.162,3.612,2.325
							C193.347,154.104,191.942,157.89,187.328,155.668z"/>
						<g>
							<defs>
								<path id="SVGID_00000072264098589731308420000013011598516633104539_" d="M187.328,155.668c0,0,0.746-2.432,2.408-3.889
									c0,0,2.457-1.22,3.612,2.325C193.347,154.104,191.942,157.89,187.328,155.668z"/>
							</defs>
							<clipPath id="SVGID_00000085928706824534144170000010302982657112232345_">
								<use xlink:href="#SVGID_00000072264098589731308420000013011598516633104539_"  style="overflow:visible;"/>
							</clipPath>
							<path style="clip-path:url(#SVGID_00000085928706824534144170000010302982657112232345_);fill:#A3582C;" d="M192.84,154.053
								c0.229,1.481-0.379,2.794-1.359,2.932c-0.98,0.138-1.96-0.95-2.19-2.431c-0.229-1.481,0.379-2.794,1.359-2.932
								C191.63,151.484,192.611,152.572,192.84,154.053z"/>
							<path style="clip-path:url(#SVGID_00000085928706824534144170000010302982657112232345_);fill:#593119;" d="M191.06,154.265
								c0.567-0.08,1.11-0.042,1.605,0.072c-0.007-0.085-0.009-0.169-0.023-0.256c-0.204-1.316-1.075-2.283-1.945-2.16
								c-0.871,0.123-1.411,1.289-1.208,2.605c0.014,0.087,0.037,0.167,0.056,0.251C189.984,154.531,190.492,154.345,191.06,154.265
								z"/>
						</g>
						<g>
							<path style="fill:#0A0604;" d="M187.328,155.668c0.398-2.019,2.529-5.91,4.857-3.669c0.537,0.637,0.872,1.364,1.162,2.105
								c-0.456-0.647-0.87-1.338-1.414-1.862C189.802,150.429,188.12,154.078,187.328,155.668L187.328,155.668z"/>
						</g>
					</g>
				</g>
			</g>
			<g>
				<path style="fill:#8E4D26;" d="M177.071,165.77c3.141,1.044,6.102,1.887,9.407,1.665
					C183.48,169.09,179.461,168.058,177.071,165.77L177.071,165.77z"/>
			</g>
			<g>
				<path style="fill:none;stroke:#0A0604;stroke-width:0.5;stroke-miterlimit:10;" d="M180.754,155.655
					c0,3.082-2.4,5.581-5.361,5.581c-2.96,0-5.36-2.499-5.36-5.581c0-3.082,2.4-5.581,5.36-5.581
					C178.354,150.074,180.754,152.572,180.754,155.655z"/>
				<path style="fill:none;stroke:#0A0604;stroke-width:0.5;stroke-miterlimit:10;" d="M194.608,153.487
					c0,3.082-1.651,5.581-3.688,5.581c-2.037,0-3.688-2.499-3.688-5.581c0-3.082,1.651-5.581,3.688-5.581
					C192.957,147.906,194.608,150.405,194.608,153.487z"/>
				<path style="fill:none;stroke:#0A0604;stroke-width:0.5;stroke-miterlimit:10;" d="M180.754,154.905
					c0,0,4.029-4.898,6.478-1.418"/>
				
					<line style="fill:none;stroke:#0A0604;stroke-width:0.5;stroke-miterlimit:10;" x1="158.564" y1="156.799" x2="170.235" y2="156.367"/>
			</g>
			<path style="fill:#A3623C;" d="M186.947,153.86l3.16,5.269c0.695,0.497,2.041,0.968,0.201,3.064
				c-1.918,2.186-3.299,1.788-3.299,1.788s-1.893-1.365-1.946-1.914c-0.337-3.52-1.06-9.659,0.501-9.388
				C186.405,152.826,186.947,153.86,186.947,153.86z"/>
			<path style="fill:#29160B;" d="M187.784,163.031c0,0-0.663-1.301-1.979-0.506"/>
		</g>
		<g>
			<g>
				<path style="fill:#CF7E50;" d="M254.672,452.474c0,0,7.427-21.616,11.007-15.12c1.685,3.058,17.579,18.139,30.562,19.756
					c0,0,4.075,5.441-16.345,4.567C259.478,460.802,253.173,459.493,254.672,452.474z"/>
				<path style="fill:#CF7E50;" d="M255.101,451.278l-1.699-13.778c0,0,10.336-9.117,11.575-1.038L255.101,451.278z"/>
				<path style="fill:#293173;" d="M301.648,462.889c-17.42,6.816-36.862-1.845-36.862-1.845c-9.539,0.752-11.613-1.551-10.114-8.57
					c0,0,0.044-0.2,0.124-0.548h0c0.058,0.031,0.116,0.063,0.173,0.094c3.979,2.138,8.752-1.024,8.405-5.528
					c-0.249-3.238-0.231-6.449,0.555-8.004c0.403-0.799,1.027-1.11,1.75-1.135c0,0,0,0.001,0,0.001
					c0.369,0.34,0.77,0.697,1.216,1.081c0.041,0.035,0.086,0.073,0.127,0.108c0.409,0.35,0.827,0.704,1.293,1.083
					c6.858,5.615,19.589,14.177,29.091,16.191c1.835,0.389,3.589,1.163,4.952,2.451
					C304.482,460.276,304.154,461.908,301.648,462.889z"/>
				<path style="fill:#FFFFFF;" d="M264.786,461.044c0,0,19.442,8.661,36.862,1.845c2.506-0.98,2.833-2.613,0.711-4.62
					c-1.363-1.288-3.117-2.063-4.952-2.451c-1.491-0.316-3.067-0.808-4.683-1.411c-3.204,3.079-4.182,7.557-4.182,7.557
					c-11.182,0.616-26.487-3.975-26.487-3.975c-2.236-2.569-5.142-4.309-7.407-5.389
					C253.203,459.516,255.307,461.791,264.786,461.044z"/>
				<g>
					<g>
						<path style="fill:#FFFFFF;" d="M276.059,443.826c-3.216-0.074-5.304,2.485-6.956,4.893c0.113-0.369,0.265-0.723,0.399-1.09
							C270.569,445.202,273.273,442.865,276.059,443.826L276.059,443.826z"/>
						<path style="fill:#FFFFFF;" d="M279.336,446.138c-3.618,0.101-6.298,2.573-8.435,5.231
							C272.176,448.124,275.696,445.183,279.336,446.138L279.336,446.138z"/>
						<path style="fill:#FFFFFF;" d="M281.947,448.531c-3.618,0.101-6.298,2.573-8.435,5.231
							C274.787,450.517,278.307,447.577,281.947,448.531L281.947,448.531z"/>
					</g>
					<path style="fill:#FFFFFF;" d="M266.78,446.687c1.507-0.202,2.701-1.318,3.4-2.564l0.184,0.235
						c-1.934,0.438-4.495,0.96-6.051-0.689c-0.666-0.91-0.913-2.492,0.143-3.209c1.078-0.519,2.237,0.049,3.214,0.434
						c1.269,0.574,2.436,1.289,3.558,2.095l-0.532,0.288c0.059-0.895-0.52-7.526,1.178-6.357c0.785,1.075,0.55,2.2,0.583,3.378
						c-0.049,1.101-0.153,2.191-0.333,3.275l-0.092-0.152c0.245,0.071,0.594,0.018,0.886-0.081c0.93-0.319,1.693-0.985,2.395-1.664
						c-0.869,0.957-1.951,2.156-3.376,2.011c0,0-0.104-0.022-0.104-0.022c0.098-1.122,0.185-2.253,0.183-3.376
						c0.027-0.908-0.115-2.41-0.485-2.946c-0.327,1.643-0.253,4.011-0.165,5.901c0,0,0.033,0.674,0.033,0.674l-0.565-0.386
						c-1.121-0.69-5.858-4.117-6.44-1.919c-0.379,3.176,3.763,2.917,5.885,2.43c0,0,0.387-0.08,0.387-0.08
						C269.835,445.361,268.466,446.622,266.78,446.687L266.78,446.687z"/>
				</g>
			</g>
			<path style="fill:#293173;" d="M168.542,273.802c0,0-21.644,40.419-6.805,53.865c14.839,13.446,87.435,14.715,87.435,14.715
				l1.474,95.252h16.945c0,0,12.638-110.625,10.306-118.207c-2.333-7.581-78.68-35.953-78.68-35.953L168.542,273.802z"/>
			<g>
				<path style="fill:#CF7E50;" d="M218.824,444.181c0,0,17.568-21.132,17.79-12.823c0.104,3.911,9.116,30.538,21.209,38.829
					c0,0,1.257,7.514-18.622-3.864C219.322,454.944,213.719,450.396,218.824,444.181z"/>
				<path style="fill:#CF7E50;" d="M219.856,442.967l4.527-11.156c0,0,7.251-5.904,11.397-2.247L219.856,442.967z"/>
				<path style="fill:#293173;" d="M260.231,478.721c-20.85-2.178-35.749-20.805-35.749-20.805
					c-9.883-4.16-10.763-7.52-5.659-13.736c0,0,0.147-0.177,0.406-0.482h0c0.042,0.061,0.083,0.122,0.124,0.182
					c2.861,4.176,9.24,3.484,11.212-1.178c1.418-3.352,3.089-6.538,4.671-7.682c0.813-0.588,1.594-0.577,2.326-0.229
					c0,0,0,0.001,0,0.001c0.192,0.528,0.408,1.09,0.655,1.702c0.023,0.056,0.048,0.116,0.071,0.173
					c0.227,0.559,0.461,1.126,0.73,1.743c3.939,9.119,12.207,24.194,20.63,31.088c1.626,1.331,2.974,3.004,3.668,4.988
					C264.396,477.578,263.23,479.035,260.231,478.721z"/>
				<path style="fill:#FFFFFF;" d="M224.483,457.916c0,0,14.899,18.627,35.749,20.805c2.999,0.313,4.165-1.144,3.085-4.234
					c-0.694-1.984-2.042-3.657-3.668-4.988c-1.322-1.082-2.638-2.383-3.936-3.814c-4.774,1.416-8.051,5.371-8.051,5.371
					c-11.449-5.141-24.324-17.587-24.324-17.587c-0.904-3.708-2.902-6.935-4.601-9.176
					C213.737,450.435,214.661,453.782,224.483,457.916z"/>
				<g>
					<g>
						<path style="fill:#FFFFFF;" d="M242.539,445.367c-2.706-0.965-3.446,0.542-5.505,2.224c0.197-0.297,0.422-0.57,0.636-0.859
							C239.238,444.871,240.44,443.733,242.539,445.367L242.539,445.367z"/>
						<path style="fill:#FFFFFF;" d="M243.732,447.785c-3.094-0.921-3.361,0.898-5.899,2.665
							C239.801,447.92,240.907,445.919,243.732,447.785L243.732,447.785z"/>
						<path style="fill:#FFFFFF;" d="M245.134,450.372c-3.094-0.921-3.205,1.169-5.743,2.937
							C241.359,450.779,242.31,448.506,245.134,450.372L245.134,450.372z"/>
					</g>
					<path style="fill:#FFFFFF;" d="M234.102,445.053c1.678,0.297,3.332-0.49,4.502-1.582l0.117,0.314
						c-2.214-0.19-5.126-0.503-6.228-2.792c-0.402-1.198-0.128-2.972,1.244-3.378c1.328-0.188,2.372,0.813,3.285,1.556
						c1.16,1.044,2.163,2.204,3.088,3.447l-0.666,0.126c0.367-0.936,2.003-8.213,3.419-6.388c0.473,1.415-0.16,2.536-0.525,3.806
						c-0.426,1.159-0.908,2.288-1.469,3.384l-0.047-0.193c0.238,0.159,0.628,0.221,0.974,0.215c1.101-0.025,2.142-0.477,3.124-0.963
						c-1.253,0.727-2.816,1.64-4.289,1c0,0-0.104-0.059-0.104-0.059c0.486-1.165,0.963-2.343,1.343-3.542
						c0.338-0.96,0.696-2.612,0.483-3.311c-0.908,1.643-1.633,4.197-2.182,6.246l-0.194,0.731l-0.472-0.605
						c-0.963-1.117-4.856-6.388-6.225-4.238c-1.484,3.263,3.027,4.394,5.459,4.596c0,0,0.441,0.046,0.441,0.046
						C237.816,444.676,235.925,445.557,234.102,445.053L234.102,445.053z"/>
				</g>
			</g>
			<path style="fill:#4955A6;" d="M208.418,277.101c0,0-3.081,20.882-3.746,28.205l-33.765-21.459L208.418,277.101z"/>
			<path style="fill:#4955A6;" d="M153.316,278.195c0,0-21.644,40.419-6.805,53.865c14.839,13.446,83.116,14.597,83.116,14.597
				l-8.473,89.608h16.945c0,0,26.904-104.864,24.571-112.445c-2.333-7.581-78.68-35.953-78.68-35.953L153.316,278.195z"/>
			<g>
				<path style="fill:#293173;" d="M216.87,342.184c-19.114-0.868-48.945-1.924-70.359-10.124
					c14.839,13.446,87.435,14.715,87.435,14.715l-4.743-10.531C229.656,339.252,227.859,342.683,216.87,342.184z"/>
				<path style="fill:#293173;" d="M229.202,336.244c-0.335-2.224-1.899-4.217-1.899-4.217L229.202,336.244z"/>
			</g>
		</g>
		<rect x="131.515" y="281.332" style="fill:#99B0CC;" width="350.831" height="11.283"/>
		<polygon style="fill:#C5D5E8;" points="516.99,271.626 166.159,271.626 131.515,281.332 482.346,281.332 		"/>
		<polygon style="fill:#CF7E50;" points="159.757,239.159 163.583,262.428 142.87,272.903 135.361,244.243 		"/>
		<path style="fill:#A3623C;" d="M159.757,239.159l3.597,22.026l0.228,1.244c0,0-13.268,1.306-14.111,6.94
			c0,0,5.279-10.388,10.873-9.448l-4.734-19.898L159.757,239.159z"/>
		<path style="fill:#CF7E50;" d="M203.178,275.126l9.026-2.238c-0.088-1.393-1.34-7.193-2.7-7.506
			c-9.577-2.206-42.115-5.315-47.922-4.085c-9.538,2.021-16.603,6.051-18.876,8.99c-0.559,0.723,0.104,2.948,0.749,3.741
			c2.456,3.021,7.596,3.574,20.127,5.868C182.349,283.331,203.178,275.126,203.178,275.126z"/>
		<path style="fill:#516085;" d="M287.245,271.962l-36.479-3.264c-0.025-0.002-0.051-0.002-0.076,0.002l-51.661,7.41
			c-0.193,0.028-0.337,0.218-0.337,0.445v1.151c0,0.23,0.149,0.423,0.346,0.446l34.596,4.068c0.313,0.037,0.628,0.031,0.94-0.018
			l52.693-8.203c0.191-0.03,0.333-0.22,0.333-0.444v-1.145C287.6,272.175,287.446,271.98,287.245,271.962z"/>
		<g>
			<g>
				<path style="fill:#CF7E50;" d="M209.504,265.382c0,0,20.048-5.419,20.891-5.204s8.159,8.363,7.101,10.186
					c-1.059,1.823-1.688,1.4-5.961-3.223c-4.274-4.624-3.523-2.523-3.523-2.523s-7.385,5.073-8.366,6.721
					c0,0-3.806,1.216-7.442,1.549c-1.78,0.163-4.403-1.9-4.21-3.64C208.217,267.238,206.081,266.253,209.504,265.382z"/>
				<path style="fill:#CF7E50;" d="M228.012,264.617c0,0-0.751-2.101,3.523,2.523c2.889,3.126,4.111,4.326,4.927,4.216
					c-1.983-2.017-7.214-7.379-7.524-8.146l-1.762,0.732l0.644,0.808C227.933,264.672,228.012,264.617,228.012,264.617z"/>
				<path style="fill:#CF7E50;" d="M222.536,264.056c0,0,5.797,3.808,6.868,5.281c1.071,1.473,2.344,3.914,2.838,4.322
					c0.494,0.408,2.683,0.073,1.933-2.751c-0.75-2.824-2.208-4.113-2.926-4.715c-0.718-0.602-4.449-2.847-4.449-2.847
					L222.536,264.056z"/>
				<path style="fill:#CF7E50;" d="M217.833,265.38c0,0,5.797,3.808,6.868,5.281c1.071,1.473,2.344,3.913,2.838,4.322
					c0.495,0.408,2.683,0.073,1.933-2.751c-0.75-2.824-2.208-4.113-2.926-4.715c-0.718-0.602-4.449-2.846-4.449-2.846
					L217.833,265.38z"/>
				<path style="fill:#CF7E50;" d="M212.204,266.63c0,0,6.494,3.154,7.442,4.709c0.948,1.555,2.026,4.102,2.483,4.545
					c0.457,0.443,2.633,0.233,2.096-2.671c-0.537-2.905-1.878-4.296-2.542-4.948c-0.663-0.652-4.172-3.146-4.172-3.146
					L212.204,266.63z"/>
			</g>
		</g>
		<path style="fill:#516085;" d="M286.166,273.617l-48.647,6.497c-1.525,0.204-2.842-1.238-2.764-3.026l2.294-52.601
			c0.066-1.515,1.123-2.715,2.424-2.749l49.023-1.311c1.458-0.039,2.631,1.389,2.536,3.087l-2.67,47.415
			C288.284,272.326,287.359,273.458,286.166,273.617z"/>
		<path style="fill:#9EA6D4;" d="M238.226,277.089l2.294-52.601c0.066-1.515,1.123-2.715,2.424-2.749l46.155-1.234
			c-0.194-0.051-0.394-0.082-0.602-0.077l-49.023,1.311c-1.301,0.035-2.358,1.234-2.424,2.749l-2.294,52.601
			c-0.078,1.788,1.239,3.229,2.764,3.026l2.114-0.282C238.771,279.345,238.173,278.304,238.226,277.089z"/>
		<path style="fill:#9EA6D4;" d="M268.442,250.541c-0.225,2.121-1.335,3.707-2.48,3.542c-1.145-0.165-1.891-2.018-1.667-4.139
			c0.225-2.121,1.335-3.707,2.48-3.542C267.921,246.567,268.667,248.42,268.442,250.541z"/>
		<g>
			<g>
				<g>
					<path style="fill:#EFA97C;" d="M441.86,240.744l6.298,20.275l25.695-6.043c0,0-7.679-23.389-10.337-26.005
						C460.857,226.355,441.86,240.744,441.86,240.744z"/>
					<path style="fill:#CF885F;" d="M465.43,248.154l-16.343-0.953l18.783-9.066c-1.4-4.218-3.669-8.488-4.356-9.164
						c-2.658-2.616-21.655,11.773-21.655,11.773l3.878,17.75C445.737,258.494,446.83,243.452,465.43,248.154z"/>
				</g>
				<g>
					<g>
						<g>
							<g>
								<path style="fill:#EFA97C;" d="M354.349,237.983l-9.035,18.964l-29.331,4.55c0,0,15.611-36.696,18.6-38.829
									C337.572,220.535,354.349,237.983,354.349,237.983z"/>
								<path style="fill:#CF885F;" d="M327.134,252.059l15.935-10.4l-12.841-11.648c1.968-3.93,3.583-6.792,4.355-7.343
									c2.989-2.133,19.766,15.315,19.766,15.315l-9.035,18.964C345.314,256.947,346.421,243.734,327.134,252.059z"/>
							</g>
							<path style="fill:#A574CC;" d="M423.458,175.823l-10.174,2.202h-27.123l-11.477,0.012
								c-14.484,3.013-23.031,6.677-31.798,23.147l-17.065,34.678c0,0,13.53,17.025,29.262,15.223l4.401-10.713l4.52,31.73
								l77.857-0.813l1.271-26.452c0,0,19.194-5.429,25.193-11.586c0,0-7.655-23.2-10.752-35.922
								C454.589,185.074,420.024,174.715,423.458,175.823z"/>
							<path style="fill:#24372B;" d="M359.483,240.372c-2.564-5.668-4.355-11.639-5.343-17.884
								C356.71,228.153,358.489,234.128,359.483,240.372L359.483,240.372z"/>
							<path style="fill:#EFA97C;" d="M412.69,167.099l-2.237-19.48l-21.282,2.668l-2.27,14.542
								c-0.295,2.002-2.726,7.983-4.333,8.956l-7.882,4.252c7.779,6.674,25.498,16.27,48.774-2.213l-7.232-2.732
								C414.087,172.042,412.705,169.691,412.69,167.099z"/>
							<path style="fill:none;stroke:#0A0604;stroke-width:2.0794;stroke-miterlimit:10;" d="M368.758,121.563"/>
							<path style="fill:#7D59B8;" d="M451.332,222.484c-1.572,3.075-3.368,5.963-5.227,8.799c-0.313,3.188-1.715,9.465-2.91,13.554
								c0.282-4.803,1.022-9.523,1.895-14.224C447.054,227.804,449.077,225.049,451.332,222.484L451.332,222.484z"/>
							<path style="fill:#CF885F;" d="M412.69,167.099l-2.237-19.48l-13.359,1.674l-8.276,3.249l-1.918,12.286
								c-0.295,2.002-2.726,7.983-4.333,8.956l-1.214,0.938l0.003,0.208c0.764,0.644,13.672,10.229,34.321-2.153
								C413.854,171.619,412.704,169.46,412.69,167.099z"/>
						</g>
						<path style="fill:#EFA97C;" d="M343.514,249.791c0,0,6.23,6.237,15.277,15.055c0,0-0.053,11.309-3.96,12.063
							c0,0-39.321-7.698-38.849-15.411C315.983,261.497,333.511,247.716,343.514,249.791z"/>
					</g>
					<g>
						<path style="fill:#EFA97C;" d="M384.639,143.721c-0.442,3.631-2.606,6.388-4.832,6.159c-2.226-0.229-3.672-3.358-3.229-6.989
							c0.442-3.631,2.605-6.388,4.832-6.159C383.635,136.962,385.081,140.09,384.639,143.721z"/>
						<path style="fill:#A3582C;" d="M379.599,138.687c0.96,2.275,1.194,4.987,0.073,7.296c0,0,0.532,0.153,0.532,0.153
							c-0.124-1.313-0.275-2.622-0.53-3.915c-0.124,1.71-0.068,3.433-0.021,5.127l0.502-0.969
							C381.53,144.017,381.226,140.543,379.599,138.687L379.599,138.687z"/>
						<path style="fill:#EFA97C;" d="M420.954,126.163c-0.302-6.23-15.594-8.882-15.594-8.882l-0.228-0.058
							c0,0-14.937-1.13-17.651,4.338c-2.714,5.468-5.823,21.637-6.129,23.818c-0.356,2.541-8.548,23.389,10.335,29.185l0,0
							c16.803,2.578,21.231-5.704,23.084-15.188C415.187,157.251,421.257,132.394,420.954,126.163z"/>
						<path style="fill:#8A4C27;" d="M424.977,130.674c-1.487-3.659-6.091-9.17-9.225-10.779c-5.118-2.629-9.993-3.572-15.628-3.74
							c-3.334-0.1-11.377,1.934-13.291,5.79c-0.876,1.764-2.359,8.015-3.898,15.484c0.006,0.002,2.819-1.669,5.709-11.496
							c0,0,5.532,3.222,13,5.109l0.038-0.182l0.191,0.24c7.469,1.888,13.715,1.643,13.715,1.643
							c-2.688,14.505-1.795,20.387,1.767,15.184c0,0-1.336,5.327,3.848-0.797C421.202,147.128,428.186,138.57,424.977,130.674z"/>
						<path style="fill:#EFA97C;" d="M413.56,150.403c-1.776,3.382-1.233,7.4,1.212,8.973c2.445,1.574,5.866,0.107,7.642-3.275
							c1.776-3.382,1.233-7.4-1.212-8.973C418.757,145.555,415.336,147.021,413.56,150.403z"/>
						<path style="fill:#A3582C;" d="M421.668,150.298c-2.434,1.027-4.421,3.016-4.788,5.819c0,0-0.633-0.323-0.633-0.323
							c0.973-0.954,1.97-1.883,3.062-2.71c-0.98,1.482-2.149,2.824-3.291,4.149l0.122-1.202
							C416.285,152.971,418.835,150.427,421.668,150.298L421.668,150.298z"/>
					</g>
				</g>
				<g>
					<path style="fill:#EFA97C;" d="M432.534,261.152c0,0-19.955-12.358-21.343-12.38c-1.389-0.022-18.997,7.505-19.105,10.104
						c-0.109,2.6,1.159,2.294,11.323-1.935c10.165-4.23,7.239-1.903,7.239-1.903s6.004,8.744,5.939,11.103
						c0,0,11.392,7.607,15.381,6.369C431.968,272.512,439.418,264.912,432.534,261.152z"/>
					<path style="fill:#CF885F;" d="M410.647,255.039c0,0,2.926-2.327-7.239,1.903c-6.873,2.86-9.671,3.92-10.734,3.507
						c4.603-1.804,16.782-6.616,17.901-7.454l1.857,1.498l-1.631,0.775C410.711,255.133,410.647,255.039,410.647,255.039z"/>
					<path style="fill:#EFA97C;" d="M418.925,256.211c0,0-11.608,2.71-14.433,4.156c-2.825,1.446-6.794,4.013-7.858,4.347
						c-1.064,0.334-3.878-0.822-0.312-4.037c3.565-3.216,6.778-4.304,8.331-4.8c1.553-0.496,8.841-1.986,8.841-1.986
						L418.925,256.211z"/>
					<path style="fill:#EFA97C;" d="M424.438,259.436c0,0-11.608,2.71-14.433,4.156c-2.825,1.446-6.794,4.013-7.858,4.347
						c-1.064,0.334-3.878-0.822-0.312-4.037c3.566-3.216,6.778-4.304,8.331-4.8c1.553-0.496,8.841-1.986,8.841-1.986
						L424.438,259.436z"/>
					<path style="fill:#EFA97C;" d="M431.33,262.885c0,0-12.02,1.669-14.743,3.258c-2.724,1.588-6.51,4.353-7.552,4.742
						c-1.042,0.389-3.948-0.608-0.615-3.995c3.333-3.387,6.471-4.641,7.991-5.217c1.52-0.576,8.713-2.449,8.713-2.449
						L431.33,262.885z"/>
					<path style="fill:#EFA97C;" d="M425.002,262.966c0,0,1.929-1.056,5.833,9.682c5.94-0.6,11.872-1.329,17.783-2.171
						c8.058-1.148,23.394-1.321,26.182-11.054c0.254-0.886-0.948-4.447-0.948-4.447c-3.347-3.786-12.159-13.882-21.094-7.736
						C432.534,261.152,425.002,262.966,425.002,262.966z"/>
				</g>
			</g>
			<g>
				<g>
					<path style="fill:#8A4C27;" d="M408.642,140.583c0,0-1.937-4.578-6.297-5.032c-2.473-0.258-1.547,1.824-0.351,3.103
						C403.191,139.934,408.732,143.026,408.642,140.583z"/>
				</g>
				<g>
					<path style="fill:#8A4C27;" d="M392.513,133.507c0,0-3.878-1.936-5.651,0.413c-1.005,1.332,0.773,2.186,2.075,2.327
						C390.239,136.388,394.268,135.115,392.513,133.507z"/>
				</g>
				<g>
					<g>
						<path style="fill:#F0ECE7;" d="M397.638,148.375c0,0,2.29-1.959,5.244-2.453c0,0,2.586-0.461,5.023,4.532
							C407.905,150.454,402.438,153.13,397.638,148.375z"/>
						<g>
							<defs>
								<path id="SVGID_00000157280990324406667450000002976946669495520662_" d="M397.638,148.375c0,0,2.29-1.959,5.244-2.453
									c0,0,2.586-0.461,5.023,4.532C407.905,150.454,402.438,153.13,397.638,148.375z"/>
							</defs>
							<clipPath id="SVGID_00000083051879705056621390000013274851827143846029_">
								<use xlink:href="#SVGID_00000157280990324406667450000002976946669495520662_"  style="overflow:visible;"/>
							</clipPath>
							<path style="clip-path:url(#SVGID_00000083051879705056621390000013274851827143846029_);fill:#A3582C;" d="M404.278,149.496
								c-0.505,1.576-2.009,2.518-3.36,2.104c-1.351-0.413-2.036-2.025-1.531-3.601c0.505-1.576,2.009-2.518,3.36-2.104
								C404.097,146.308,404.783,147.92,404.278,149.496z"/>
							<path style="clip-path:url(#SVGID_00000083051879705056621390000013274851827143846029_);fill:#593119;" d="M401.846,148.706
								c0.782,0.239,1.468,0.58,2.049,0.969c0.037-0.087,0.08-0.17,0.11-0.262c0.449-1.4-0.16-2.832-1.36-3.199
								c-1.2-0.367-2.536,0.47-2.985,1.87c-0.03,0.092-0.043,0.184-0.063,0.277C400.301,148.364,401.064,148.467,401.846,148.706z"
								/>
						</g>
						<g>
							<path style="fill:#0A0604;" d="M397.638,148.375c4.232-3.855,8.161-3.58,10.268,2.079c-0.569-0.918-1.164-1.816-1.881-2.589
								C403.7,144.913,400.202,146.761,397.638,148.375L397.638,148.375z"/>
						</g>
					</g>
					<g>
						<path style="fill:#F0ECE7;" d="M390.834,146.574c0,0-0.741-2.725-2.835-4.682c0,0-2.751-1.772-5.167,1.453
							C382.832,143.346,384.317,147.654,390.834,146.574z"/>
						<g>
							<defs>
								<path id="SVGID_00000041989573111490385390000005228554555974509501_" d="M390.834,146.574c0,0-0.741-2.725-2.835-4.682
									c0,0-3.201-1.922-5.167,1.453C382.832,143.346,384.317,147.654,390.834,146.574z"/>
							</defs>
							<clipPath id="SVGID_00000065072261794701722340000008796376454384481706_">
								<use xlink:href="#SVGID_00000041989573111490385390000005228554555974509501_"  style="overflow:visible;"/>
							</clipPath>
							<path style="clip-path:url(#SVGID_00000065072261794701722340000008796376454384481706_);fill:#A3582C;" d="M383.527,143.428
								c-0.477,1.477,0.202,3.003,1.518,3.408c1.316,0.405,2.769-0.464,3.247-1.942c0.477-1.477-0.202-3.003-1.518-3.408
								C385.458,141.081,384.004,141.951,383.527,143.428z"/>
							<path style="clip-path:url(#SVGID_00000065072261794701722340000008796376454384481706_);fill:#593119;" d="M385.922,144.122
								c-0.761-0.234-1.503-0.34-2.188-0.353c0.019-0.087,0.031-0.173,0.059-0.26c0.424-1.313,1.715-2.085,2.884-1.725
								c1.169,0.36,1.773,1.715,1.349,3.028c-0.028,0.087-0.069,0.164-0.104,0.246C387.353,144.686,386.683,144.357,385.922,144.122
								z"/>
						</g>
						<g>
							<path style="fill:#0A0604;" d="M390.834,146.574c-1.617-3.842-4.235-7.247-8.002-3.229
								C386.067,138.546,389.938,142.401,390.834,146.574L390.834,146.574z"/>
						</g>
					</g>
				</g>
				<path style="fill:#CF885F;" d="M392.118,144.29l-5.549,6.717c-0.864,1.075,0.674,3.449,1.943,3.455
					c4.025,0.017,4.066-0.915,4.208-1.467c0.914-3.548,2.645-9.714,1.004-9.688C392.84,143.32,392.118,144.29,392.118,144.29z"/>
				<path style="fill:#29160B;" d="M389.781,153.54c0,0,0.889-1.225,2.107-0.198"/>
				<path style="fill:#593119;" d="M400.501,158.104c0,0-4.86,1.423-10.743,0.252c0,0,2.754,5.616,7.074,4.934
					C400.504,162.709,400.501,158.104,400.501,158.104z"/>
				<path style="fill:#A574CC;" d="M399.819,160.996c-0.513,1.051-1.409,2.044-2.987,2.293c-1.223,0.193-2.315-0.127-3.26-0.673
					C395.45,160.748,398.015,160.71,399.819,160.996z"/>
			</g>
		</g>
		<g>
			<path style="fill:#516085;" d="M430.566,275.548h-71.988c-1.782,0-3.238-1.326-3.282-2.989l-1.358-51.324
				c-0.046-1.722,1.437-3.141,3.282-3.141h74.703c1.845,0,3.328,1.419,3.282,3.141l-1.358,51.324
				C433.804,274.222,432.347,275.548,430.566,275.548z"/>
			<ellipse style="fill:#9EA6D4;" cx="394.744" cy="249.784" rx="3.638" ry="3.533"/>
			<path style="fill:#516085;" d="M432.248,279.336h-75.036c-0.744,0-1.348-0.603-1.348-1.348v-1.092
				c0-0.744,0.603-1.348,1.348-1.348h75.036c0.744,0,1.348,0.603,1.348,1.348v1.092
				C433.596,278.732,432.993,279.336,432.248,279.336z"/>
			<path style="fill:#9EA6D4;" d="M357.22,221.057h74.703c1.603,0,2.93,1.073,3.221,2.483l0.061-2.305
				c0.046-1.722-1.437-3.141-3.282-3.141H357.22c-1.845,0-3.328,1.419-3.282,3.141l0.061,2.305
				C354.29,222.129,355.617,221.057,357.22,221.057z"/>
		</g>
		<g>
			<g>
				<ellipse style="fill:#8FA5BF;" cx="492.343" cy="274.686" rx="7.714" ry="1.475"/>
				<g>
					<path style="fill:#436E49;" d="M505.506,262.247c-0.547-0.594-1.215-0.917-2.026-0.902c-0.431,0.002-0.857,0.116-1.267,0.273
						c0.065-1.08,0.103-2.221,0.103-3.425H482.37c0,0-0.074,8.806,2.502,15.73c0,1.197,3.345,2.167,7.471,2.167
						c4.126,0,7.471-0.97,7.471-2.167c0,0,0.289-0.682,0.668-1.949c0.016,0,0.033,0.005,0.048,0.005
						c1.522,0,2.886-0.708,3.964-2.091C506.323,267.543,506.834,263.687,505.506,262.247z M503.533,269.234
						c-0.402,0.516-0.953,1.028-1.666,1.332c-0.45,0.192-0.948-0.177-0.842-0.629c0.424-1.797,0.853-4.172,1.093-7.05
						c0.452-0.248,0.926-0.427,1.369-0.429c0.002,0,0.006,0,0.008,0c0.427,0,0.79,0.168,1.109,0.515
						C505.402,263.837,505.233,267.052,503.533,269.234z"/>
					<ellipse style="fill:#CF7E50;" cx="492.343" cy="258.194" rx="9.973" ry="0.922"/>
					<path style="fill:#589160;" d="M483.353,258.593c1.611-0.309,5.031-0.522,8.99-0.522c3.959,0,7.379,0.213,8.99,0.522
						c0.63-0.121,0.983-0.256,0.983-0.4c0-0.509-4.465-0.922-9.973-0.922c-5.508,0-9.973,0.413-9.973,0.922
						C482.37,258.337,482.723,258.472,483.353,258.593z"/>
				</g>
			</g>
		</g>
		<rect x="471.593" y="292.615" style="fill:#C5D5E8;" width="10.752" height="170.234"/>
		<polygon style="fill:#99B0CC;" points="481.997,462.849 487.373,458.718 487.373,288.484 481.997,292.615 		"/>
		<rect x="131.515" y="292.615" style="fill:#C5D5E8;" width="10.752" height="170.234"/>
		<polygon style="fill:#99B0CC;" points="141.919,462.849 148.377,458.718 148.377,288.484 141.919,292.615 		"/>
		<polygon style="fill:#99B0CC;" points="482.346,292.615 482.346,281.332 516.99,271.626 516.99,281.327 		"/>
		<path style="fill:#9EA6D4;" d="M198.692,276.554v1.151c0,0.23,0.149,0.423,0.346,0.446l34.596,4.068
			c0.216,0.025,0.433,0.023,0.649,0.008l0.346-0.894c0.234-0.606-0.168-1.27-0.814-1.342l-34.785-3.881l-0.307,0.275
			C198.703,276.438,198.692,276.494,198.692,276.554z"/>
	</g>
	<g>
		<rect x="55.184" y="95.044" style="fill:#C5D5E8;" width="124.067" height="5.984"/>
		<g>
			<rect x="82.904" y="52.359" style="fill:#FFC052;" width="8.111" height="42.685"/>
			<rect x="109.938" y="62.884" style="fill:#FFC052;" width="8.111" height="32.16"/>
			<rect x="118.049" y="60.299" style="fill:#A574CC;" width="8.111" height="34.745"/>
			<rect x="126.16" y="63.959" style="fill:#4955A6;" width="5.212" height="31.086"/>
			<rect x="131.371" y="63.959" style="fill:#7D59B8;" width="5.212" height="31.086"/>
			<rect x="136.583" y="63.959" style="fill:#A574CC;" width="5.212" height="31.086"/>
			<rect x="91.015" y="57.384" style="fill:#589160;" width="4.731" height="37.661"/>
			<rect x="141.795" y="57.384" style="fill:#589160;" width="4.731" height="37.661"/>
			<rect x="67.749" y="54.862" style="fill:#7D59B8;" width="5.212" height="40.182"/>
			<rect x="72.961" y="63.959" style="fill:#A574CC;" width="5.212" height="31.086"/>
			<rect x="78.173" y="57.384" style="fill:#589160;" width="4.731" height="37.661"/>
			<rect x="95.745" y="57.384" style="fill:#436E49;" width="4.731" height="37.661"/>
			<rect x="100.476" y="57.384" style="fill:#589160;" width="4.731" height="37.661"/>
			<polygon style="fill:#4955A6;" points="167.954,94.206 163.373,94.864 146.526,58.395 151.107,57.736 			"/>
			<rect x="105.207" y="57.384" style="fill:#436E49;" width="4.731" height="37.661"/>
		</g>
	</g>
	<g>
		<polygon style="fill:#C5D5E8;" points="519.439,97.98 468.463,97.98 493.951,70.307 		"/>
		<ellipse style="fill:#99B0CC;" cx="493.951" cy="97.98" rx="25.488" ry="0.752"/>
		<line style="fill:none;stroke:#0A0604;stroke-width:0.5;stroke-miterlimit:10;" x1="493.951" y1="70.307" x2="493.951" y2="0"/>
	</g>
	<g>
		<polygon style="fill:#C5D5E8;" points="362.316,97.98 311.34,97.98 336.828,70.307 		"/>
		<ellipse style="fill:#99B0CC;" cx="336.828" cy="97.98" rx="25.488" ry="0.752"/>
		<line style="fill:none;stroke:#0A0604;stroke-width:0.5;stroke-miterlimit:10;" x1="336.828" y1="70.307" x2="336.828" y2="0"/>
	</g>
	<g>
		<g>
			<rect x="27.76" y="174.071" style="fill:#F2F5F7;" width="76.393" height="241.464"/>
			<rect x="33.322" y="174.509" style="fill:#D3DEEB;" width="65.27" height="233.608"/>
			<rect x="41.476" y="174.509" style="fill:#C5D1E0;" width="48.961" height="233.608"/>
			<rect x="30.973" y="173.984" style="fill:#F2F5F7;" width="69.968" height="6.833"/>
			<rect x="30.973" y="230.599" style="fill:#F2F5F7;" width="69.968" height="6.834"/>
			<rect x="30.973" y="287.214" style="fill:#F2F5F7;" width="69.968" height="6.834"/>
			<rect x="30.973" y="343.829" style="fill:#F2F5F7;" width="69.968" height="6.833"/>
			<polygon style="fill:#E6EEF7;" points="90.296,282.283 41.617,282.283 33.322,287.214 98.592,287.214 			"/>
			<polygon style="fill:#C5D1E0;" points="41.617,187.353 90.296,187.353 98.592,180.817 33.322,180.817 			"/>
			<polygon style="fill:#E6EEF7;" points="90.296,338.159 41.617,338.159 33.322,343.829 98.592,343.829 			"/>
			<polygon style="fill:#E6EEF7;" points="90.296,400.572 41.617,400.572 33.322,408.117 98.592,408.117 			"/>
		</g>
		<g>
			<rect x="46.998" y="187.353" style="fill:#87A6CC;" width="8.414" height="43.245"/>
			<rect x="74.379" y="192.546" style="fill:#87A6CC;" width="9.626" height="38.052"/>
			<rect x="55.412" y="204.534" style="fill:#87A6CC;" width="4.359" height="26.065"/>
			<rect x="69.942" y="204.534" style="fill:#87A6CC;" width="4.359" height="26.065"/>
			<rect x="59.771" y="196.096" style="fill:#87A6CC;" width="4.359" height="34.503"/>
			<rect x="39.297" y="196.096" style="fill:#87A6CC;" width="4.359" height="34.503"/>
			<rect x="64.807" y="196.096" style="fill:#87A6CC;" width="4.359" height="34.503"/>
			
				<rect x="86.751" y="186.795" transform="matrix(0.9839 -0.1789 0.1789 0.9839 -35.8999 19.2757)" style="fill:#87A6CC;" width="4.359" height="43.804"/>
		</g>
		<g>
			<rect x="49.904" y="363.32" style="fill:#87A6CC;" width="8.414" height="43.245"/>
			<rect x="58.318" y="380.5" style="fill:#87A6CC;" width="4.359" height="26.065"/>
			<rect x="72.848" y="380.5" style="fill:#87A6CC;" width="4.359" height="26.065"/>
			<rect x="62.677" y="372.062" style="fill:#87A6CC;" width="4.359" height="34.503"/>
			
				<rect x="41.057" y="366.215" transform="matrix(0.9701 0.2426 -0.2426 0.9701 95.0472 1.0559)" style="fill:#87A6CC;" width="4.359" height="40.35"/>
			<rect x="67.713" y="372.062" style="fill:#87A6CC;" width="4.359" height="34.503"/>
			
				<rect x="85.442" y="363.938" transform="matrix(0.9482 -0.3178 0.3178 0.9482 -118.0762 47.8482)" style="fill:#87A6CC;" width="4.359" height="43.804"/>
			
				<rect x="78.943" y="362.761" transform="matrix(0.9839 -0.1789 0.1789 0.9839 -67.4969 20.7141)" style="fill:#87A6CC;" width="4.359" height="43.804"/>
		</g>
		<g>
			
				<rect x="59.843" y="254.04" transform="matrix(-1.836970e-16 1 -1 -1.836970e-16 343.3462 210.8564)" style="fill:#87A6CC;" width="12.805" height="46.122"/>
			<circle style="fill:#D3DEEB;" cx="48.9" cy="277.604" r="2.69"/>
		</g>
		<g>
			<g>
				<rect x="47.031" y="299.053" style="fill:#87A6CC;" width="8.414" height="43.245"/>
				<rect x="55.445" y="316.233" style="fill:#87A6CC;" width="4.359" height="26.065"/>
				<rect x="69.975" y="316.233" style="fill:#87A6CC;" width="4.359" height="26.065"/>
				<rect x="59.804" y="307.795" style="fill:#87A6CC;" width="4.359" height="34.503"/>
				<rect x="39.329" y="307.795" style="fill:#87A6CC;" width="4.359" height="34.503"/>
				<rect x="64.839" y="307.795" style="fill:#87A6CC;" width="4.359" height="34.503"/>
			</g>
			<g>
				
					<rect x="76.126" y="296.402" transform="matrix(-1 -1.224647e-16 1.224647e-16 -1 165.056 638.926)" style="fill:#87A6CC;" width="12.805" height="46.122"/>
				<path style="fill:#D3DEEB;" d="M82.025,304.808c-1.486,0-2.69-1.204-2.69-2.69c0-1.486,1.204-2.69,2.69-2.69
					c1.486,0,2.69,1.204,2.69,2.69C84.716,303.604,83.511,304.808,82.025,304.808z"/>
			</g>
		</g>
		<g>
			
				<rect x="63.657" y="241.848" transform="matrix(-1.836970e-16 1 -1 -1.836970e-16 334.9688 194.8506)" style="fill:#87A6CC;" width="12.805" height="46.122"/>
			<circle style="fill:#D3DEEB;" cx="52.714" cy="265.412" r="2.69"/>
		</g>
		<g>
			
				<rect x="58.135" y="228.976" transform="matrix(6.123234e-17 -1 1 6.123234e-17 -187.4996 316.5744)" style="fill:#87A6CC;" width="12.805" height="46.122"/>
			<circle style="fill:#D3DEEB;" cx="81.882" cy="251.535" r="2.69"/>
		</g>
	</g>
</g>
</svg>
