<?xml version="1.0" encoding="utf-8"?>
<!-- Generator: Adobe Illustrator 27.5.0, SVG Export Plug-In . SVG Version: 6.00 Build 0)  -->
<svg version="1.1" xmlns="http://www.w3.org/2000/svg" xmlns:xlink="http://www.w3.org/1999/xlink" x="0px" y="0px"
	 viewBox="0 0 500 500" style="enable-background:new 0 0 500 500;" xml:space="preserve">
<g id="BACKGROUND">
	<rect style="fill:#FFFFFF;" width="500" height="500"/>
</g>
<g id="OBJECTS">
	<g>
		<polygon style="fill:#A8E1FF;" points="0,500 0,365.8 133,313.97 500,313.97 500,500 		"/>
		<path style="opacity:0.8;fill:#6EBCE6;enable-background:new    ;" d="M103.56,479.34c0-5.8,39.31-11.5,73-11.5
			s73.44-4.3,73.44,1.5c0,5.8-47.69,8.89-79.44,18.5C131.29,502.05,103.56,485.14,103.56,479.34z"/>
		<polygon style="fill:#FFFFFF;" points="35,500 225.86,313.97 231,313.97 57,500 		"/>
		<polygon style="fill:#FFFFFF;" points="143,400.56 149,393.82 500,393.56 500,400.56 		"/>
	</g>
	<g>
		<g>
			<path style="fill:#FFB387;" d="M166.99,108.72c-0.7,5.67,2.56,11.32,7.18,14.69c2.01,1.46,4.36,2.61,6.85,2.6
				c2.32-0.01,4.5-1,6.58-2.01c6.4-3.13,12.59-6.69,18.52-10.65c4.99-3.45,10.31-7.17,15.64-10.88c4.07-0.68,8.72-3.71,13.11-6.64
				c12.94-8.65,25.88-17.3,38.81-25.95c2.58,0.14,5.08-1.03,7.12-2.64c2.04-1.61,3.69-3.65,5.32-5.68c0.79-0.41,2.19-0.4,3.19,0.27
				c0.45,0.31,0.82,0.73,1.26,1.05s1.02,0.53,1.54,0.35c0.47-0.17,0.77-0.65,0.87-1.14c0.1-0.49,0.03-1-0.05-1.49
				c0.71,1.01,1.84,0.95,2.46,0.29c0.61-0.65,0.61-1.79-0.01-2.44c0.81,0.21,1.54,0.05,1.95-0.42c0.42-0.47,0.5-1.21,0.18-1.75
				c-0.93-1.49-2.61-3-4.48-4.13c-0.81-0.49-1.68-0.92-2.6-1.12c-1.9-0.41-3.85,0.18-5.7,0.76l-0.81,0.7
				c0.1-0.88,0.21-1.76,0.31-2.64c2.86-2.57,5.12-5.11,7.38-7.66c0.38-0.43,0.78-0.9,0.82-1.48c0.07-1.07-1.24-1.8-2.28-1.57
				c-1.05,0.23-1.84,1.06-2.57,1.85c-7.04,7.67-14.09,15.34-21.13,23.01c-6.35,2.94-12.95,6.42-19.55,9.9
				c-8.53,2.06-16.11,4.4-23.55,7.08c-3.09,1.28-4.94,3.92-7.05,6.08c-6.17,6.32-15.14,8.9-23.77,10.78
				c-8.63,1.88-17.63,3.41-24.97,8.31L166.99,108.72z"/>
			<path d="M207.43,92.64c1.91,0.17,3.64,1.57,4.2,3.4c0.4,1.32,0.33,2.98,1.46,3.78c1.22,0.86,2.88,0.06,4.14-0.75
				c1.36-0.88,2.87-2.07,2.82-3.7c-0.03-0.94-0.6-1.78-0.82-2.7c-0.21-0.92,0.2-2.16,1.14-2.2c1.18,1.84,2.35,3.68,3.53,5.52
				c0.39,0.6,0.78,1.24,0.84,1.95c0.09,1.1-0.65,2.09-1.41,2.9c-2.13,2.27-4.71,4.06-7.27,5.83c-3.43,2.37-6.86,4.75-10.29,7.12
				c-1.69-3.05-1.11-6.8-0.48-10.23C205.97,99.84,206.66,96.11,207.43,92.64z"/>
			<path d="M280.31,59.87c1.05-0.83,5.41-3.84,6.12-3.23c2.81,2.44-2.56,6.35-2.04,7.01c0.31,0.39,2.161-3.702,6.72-0.11
				c1.02,0.29,2.04-0.71,2.19-1.76c0.15-1.05-0.3-2.09-0.75-3.06c0.18,0.75,0.19,1.678,0.69,2.258c0.5,0.58,1.6,0.732,2.24,0.312
				c0.54-0.36,0.71-1.11,0.56-1.74c-0.14-0.63-0.53-1.18-0.92-1.7c0.18,0.72,1.591,0.911,2.171,0.451
				c0.58-0.46,0.831-1.226,0.591-1.926c-0.24-0.7-1.263-1.334-1.803-1.854c-1.62-1.54-2.943-2.922-5.103-3.481
				c-2.16-0.56-4.977-2.579-6.747-1.219C282.46,51.19,278.84,58.34,280.31,59.87z"/>
			<path d="M273.04,70.38c-1.67-0.23-3.26-0.98-4.49-2.12c-0.41,0.89-0.26,2.01,0.36,2.76S270.59,72.14,273.04,70.38z"/>
			<path style="fill:#F04741;" d="M205.55,93c0.53-0.41,1.27-0.37,1.77,0.07c1.28,1.13,1.97,2.92,2.09,4.65
				c0.15,2.16-0.41,4.31-0.86,6.43c-0.45,2.12-0.78,4.36-0.16,6.44c0.34,1.14,0.95,2.19,1.26,3.34c0.24,0.89,0.26,1.92-0.12,2.74
				c-0.2,0.41-0.64,0.65-1.09,0.69c-4.1,0.42-7.69,2.76-11.52,4.41c-5.43,2.35-7.13,5.87-12.3,14.72
				c-2.46,4.2-14.27-15.8-16.34-20.21c-2.03-4.32-8.72-3.4-6.63-8.26c0.08-0.2,0.21-0.37,0.38-0.51c3.65-3.03,14.31-7.1,18.72-7.78
				c4.51-0.7,8.61-3.3,13.09-4.17C197.98,94.74,202.55,95.29,205.55,93z"/>
			<path d="M170.91,107.83c3.55-0.94,7.63,0.89,9.3,4.15c0.95,1.85,1.45,4.34,3.44,4.97c2,0.64,3.89-1.16,5.24-2.77
				c-0.32,1.73-0.32,4.05,1.34,4.63c0.41,0.14,0.86,0.14,1.3,0.13c3.27-0.06,6.54-0.11,9.81-0.17
				c-7.48,4.79-14.63,11.18-16.94,19.75C180.76,128.08,177.13,117.64,170.91,107.83z"/>
			<path d="M200.69,97.96c0.67-0.07,1.31,0.41,1.63,1c0.32,0.59,0.4,1.29,0.48,1.96c0.22,1.98,0.43,3.95,0.65,5.93
				c0.27,2.52,0.51,5.24-0.8,7.41c-0.68-3.64-1.37-7.28-2.05-10.92c-0.19-1.03-0.39-2.08-0.3-3.13
				C200.38,99.17,200.79,98.1,200.69,97.96z"/>
		</g>
		<g>
			<path style="fill:#FFB387;" d="M184.71,218.24c4.18,1.27,6.34,5.76,7.96,9.81c11.32,28.25,20.12,58.44,16.63,88.82
				c0.17,2.54-2,4.76-4.43,5.53c-2.43,0.77-5.05,0.44-6.96,1.66c-21.4,6.46-43.3,13.17-61.12,26.67
				c-8.25,6.25-15.45,13.86-20.14,22.39c-1.89,0.03-3.38-1.83-3.62-3.71s0.44-3.74,1.11-5.51c2.67-7.1,5.35-14.2,8.02-21.3
				c1.09-2.88,2.26-5.89,4.6-7.9c2.34-2,6.23-2.55,8.36-1.1c3.58,0.18,7.04-1.49,9.85-3.72c2.81-2.23,5.12-5.02,7.64-7.57
				c6.07-6.16,18.95-15.51,26.87-19.74c-3.55-16.78-10.96-30.38-11.25-48.01c-0.12-7.13,0.06-14.41,2.43-21.13
				C173.04,226.73,177.96,220.56,184.71,218.24z"/>
			<path d="M132.15,335.09c0.98-0.85,2.36-1.74,3.46-1.05c0.87,0.54,0.98,1.79,0.73,2.79s-0.74,1.95-0.73,2.98
				c0.03,2.47,2.86,4,3.52,6.37c0.32,1.13,0.08,2.41-0.65,3.33c-0.73,0.92-1.96,1.43-3.12,1.26c-1.61-0.23-2.81-1.61-3.6-3.04
				C129.82,344.16,128.13,338.55,132.15,335.09z"/>
			<path style="fill:#F04741;" d="M125.75,323.65c1.95,2.86,4.9,5.01,8.22,6c1.06,0.32,2.36,0.7,2.63,1.78
				c0.23,0.91-0.43,1.78-0.97,2.55c-2.6,3.79-2.64,9.17-0.09,12.99c0.69,1.03,1.56,1.99,1.93,3.17c0.37,1.19,0,2.74-1.02,3.06
				c-7.25,5.33-13.5,12.02-18.33,19.62c-0.83,1.31-1.66,2.68-2.93,3.57c-1.27,0.88-3.15,1.13-4.3-0.45
				c-3.32-10.33-1.66-22.14,4.61-31.73c-0.07-3.95-0.09-7.99,1.18-11.74C117.96,328.74,120.79,325.29,125.75,323.65z"/>
			<path style="fill:#FFAF2E;" d="M113.19,376.26c2.47,0.52,5.05-0.82,6.66-2.77c1.61-1.95,2.41-4.43,3.29-6.9
				c-2.1-3.89-5.75-6.91-9.89-8.32C109.89,363.48,109.78,370.61,113.19,376.26z"/>
			<path style="fill:#28738F;" d="M128.54,326.46c-5.29,4.11-8.34,10.95-7.8,17.88c-6.66,8.73-8.89,20.67-6.03,30.98
				c-0.12,0.55-0.24,1.09-0.37,1.64c-1.11,0.22-2.29,0.04-3.53-0.78c-3.06-10.82-1.42-22.88,4.13-32.29
				c-0.08-4.21,0.41-8.49,2.08-12.36c1.67-3.87,4.63-7.28,8.45-8.85c0.67,0.53,1.33,1.06,2,1.6c0.37,0.29,0.74,0.59,1.01,0.97
				C128.76,325.62,128.96,326.13,128.54,326.46z"/>
			<path style="fill:#FFFFFF;" d="M128.87,352.7c1.94-0.14,3.91,0.21,5.68,1.02c0.27,0.12,0.54,0.26,0.72,0.5
				c0.18,0.23,0.24,0.59,0.06,0.82c-0.13,0.17-0.36,0.24-0.58,0.29C132.54,355.78,130.09,354.59,128.87,352.7z"/>
			<path style="fill:#FFFFFF;" d="M127.18,355.9c1.14,0.48,2.27,0.96,3.41,1.45c0.3,0.13,0.6,0.26,0.85,0.48
				c0.24,0.22,0.41,0.54,0.36,0.86c-0.06,0.37-0.39,0.65-0.76,0.73c-0.36,0.08-0.74,0.01-1.1-0.11
				C128.74,358.9,127.71,357.99,127.18,355.9z"/>
			<path style="fill:#FFFFFF;" d="M124.55,358.24c1.3,0.82,2.67,1.71,3.3,3.11c0.25,0.56,0.3,1.36-0.24,1.66
				c-0.38,0.22-0.88,0.05-1.23-0.23C125.14,361.79,125.14,359.73,124.55,358.24z"/>
			<path style="fill:#FFAF2E;" d="M124.02,336.66c0.35-0.72,0.7-1.46,1.22-2.07c0.52-0.61,1.24-1.09,2.04-1.16
				c0.87-0.08,1.74,0.36,2.34,1c0.6,0.64,0.95,1.47,1.2,2.32c0.85,2.97,0.33,6.3-1.4,8.87c-0.47,0.7-1.11,1.39-1.94,1.48
				c-1.14,0.13-2.07-0.88-2.64-1.88C123.19,342.31,123.04,338.71,124.02,336.66z"/>
			<path d="M207.93,284.57c1.23,2.76,2.45,6.02,1.01,8.68c-1.04,1.92-3.21,2.95-5.33,3.44c-2.13,0.49-4.34,0.58-6.42,1.25
				c-3.83,1.24-6.74,4.3-9.47,7.25c-0.91,0.98-1.89,2.21-1.56,3.51c0.24,0.94,1.15,1.81,0.79,2.7c-0.38,0.94-1.82,0.84-2.62,0.2
				c-0.79-0.64-1.3-1.61-2.17-2.13c-1.43-0.86-3.34-0.25-4.87-0.9c-1.98-0.85-2.55-3.37-2.62-5.52c-0.17-4.79,0.78-9.61,2.75-13.97
				c0.94-2.1,2.19-4.16,4.13-5.39c1.75-1.11,3.88-1.42,5.95-1.59C193.82,281.57,200.22,282.1,207.93,284.57z"/>
			<path d="M196.99,321.71c-1.41-0.78-2.82-1.57-4.23-2.35c-0.47-0.26-0.96-0.53-1.5-0.57c-0.54-0.04-1.14,0.2-1.34,0.7
				c-0.3,0.74,0.37,1.48,0.98,2c0.86,0.73,1.76,1.49,2.84,1.82C194.81,323.63,196.14,323.42,196.99,321.71z"/>
			<path d="M162.43,314.37c-2.64,0.98-3.54,4.16-5.01,6.57c-2.34,3.83-6.76,6.3-8.22,10.54c-1.19,3.47-0.1,7.26,0.76,10.63
				c3.1-2.53,7.69-2.88,10.43-5.8c1.66-1.76,2.37-4.18,3.03-6.51c0.77-2.71,1.54-5.45,1.68-8.27S164.68,315.77,162.43,314.37z"/>
			<path style="fill:#FFB387;" d="M181.56,304.2c0.43,4.51,1.55,8.91,0.34,13.27c-1.2,4.36-3.09,8.55-3.83,13.02
				c1.71,10.96,0.4,21.73-0.16,32.41c-0.57,10.68-0.3,21.79,4.24,31.47c-1.09,14.3,2.48,28.42,9.88,40.17
				c-3.43,2.69-8.11,2.6-11.66,0.48c-5.44-9.52-10.81-19.82-16.2-30.11c-0.21-3.16,0.5-6.51,2.18-9.29
				c1.75-16.51-8.95-32.48-9.96-49.62c-0.57-9.74,2.03-19.44,5.79-28.44c-0.18-2.49-0.12-4.99-0.06-7.5
				c-21.41-24.57-29.85-59.56-22.47-92.53c4.13-3.15,9.82-2.39,14.77-0.79C174.23,223.16,178.6,273.1,181.56,304.2z"/>
			<path d="M166.44,393.17c0.3-0.87,0.12-1.82,0.22-2.73c0.1-0.91,0.68-1.93,1.6-1.94c0.76-0.01,1.34,0.68,1.66,1.37
				c0.57,1.2,0.72,2.54,1.01,3.84c0.3,1.29,0.81,2.62,1.87,3.42c1.09,0.82,2.59,0.92,3.9,0.55c1-0.28,2.14-0.8,2.98-0.19
				c0.58,0.42,0.73,1.22,0.67,1.94c-0.16,1.74-1.39,3.29-2.97,4.03c-1.58,0.74-3.46,0.72-5.11,0.15
				C168.72,402.36,164.74,398.12,166.44,393.17z"/>
			<path style="fill:#F04741;" d="M191.1,443.16c2.51-0.51,3.88-3.44,3.64-5.98c-0.24-2.55-1.64-4.81-2.88-7.05
				c-5.09-9.15-8.06-19.47-8.62-29.92c0.25-1.14,0.21-2.76-0.96-3.24c-0.74-0.3-1.6,0.06-2.19,0.6c-0.59,0.54-0.99,1.25-1.51,1.85
				c-1.57,1.79-4.29,2.47-6.51,1.61c-2.22-0.86-3.79-3.19-3.74-5.57c0.01-0.68,0.14-1.37,0.01-2.03c-0.13-0.66-0.65-1.33-1.33-1.33
				c-0.58,0-1.04,0.45-1.44,0.87c-2.25,2.39-4.49,4.78-6.89,7.35c-0.9,7.31,2.47,14.98,8.38,18.9c0.9,5.46,1.93,11.21,5.51,15.43
				c2.25,2.65,5.35,4.48,8.61,5.68C184.44,441.51,187.88,442.13,191.1,443.16z"/>
			<path style="fill:#FFAF2E;" d="M177.61,436.94c0.12-3.79,1.89-7.5,4.77-9.98c1.7-1.47,4.11-2.53,6.19-1.67
				c1.68,0.7,2.65,2.42,3.5,4.03c1.26,2.4,2.55,4.86,2.88,7.55c0.17,1.39-0.02,3.02-1.17,3.83c-0.86,0.61-1.99,0.58-3.04,0.53
				c-2.44-0.12-4.91-0.25-7.26-0.92C181.13,439.64,178.87,438.33,177.61,436.94z"/>
			<path style="fill:#28738F;" d="M161.59,397.09c-0.27,7.33,2.9,14.71,7.96,19.38c0.8,6.26,3.12,12.49,7.51,17.03
				c4.39,4.53,11.05,7.12,16.78,5.61c1.06,0.88,0.94,2.68,0,3.69c-0.94,1-2.44,1.31-3.66,0.55c-6.35-0.36-12.54-3.12-17.05-7.6
				c-4.51-4.48-7.31-10.65-8.24-17.13c-4.28-4.13-6.96-9.89-7.36-15.83c-0.09-1.4-0.05-2.88,0.67-4.08
				C158.92,397.51,160.5,396.72,161.59,397.09z"/>
			<path style="fill:#FFAF2E;" d="M164.45,401.49c0.55,3.85,1.72,7.8,4.43,10.59c0.36,0.37,0.75,0.72,1.24,0.9
				c0.48,0.18,1.07,0.15,1.45-0.2c0.43-0.38,0.49-1.02,0.48-1.6C171.96,406.91,169.02,402.82,164.45,401.49z"/>
			<path style="fill:#FFFFFF;" d="M176.79,409.61c0.73-0.9,1.51-1.78,2.48-2.43s2.14-1.03,3.29-0.87c0.63,0.09,1.35,0.51,1.32,1.15
				c-0.02,0.4-0.32,0.71-0.62,0.97c-1.14,0.98-2.55,1.66-4.03,1.95c-0.53,0.1-1.12,0.14-1.57-0.15
				C177.21,409.94,177.04,409.19,176.79,409.61z"/>
			<path style="fill:#FFFFFF;" d="M179.24,415.03c1.45-1.41,3.41-2.29,5.42-2.45c0.33-0.03,0.74,0,0.91,0.29
				c0.25,0.42-0.23,0.9-0.65,1.16c-0.88,0.55-1.77,1.1-2.76,1.42C181.19,415.76,180.09,415.84,179.24,415.03z"/>
			<path style="fill:#FFFFFF;" d="M181.8,420.06c0.96-0.58,1.93-1.14,2.93-1.66c0.39-0.21,0.8-0.41,1.24-0.44s0.93,0.18,1.09,0.59
				c0.17,0.41-0.03,0.89-0.36,1.18c-0.33,0.29-0.76,0.44-1.17,0.58c-0.63,0.21-1.26,0.42-1.88,0.63c-0.36,0.12-0.74,0.24-1.12,0.19
				C182.14,421.07,181.78,420.77,181.8,420.06z"/>
			<path d="M154.87,299.63c1.22-2.79,4.5-4.09,7.54-4.29c3.04-0.2,6.09,0.39,9.12,0.1s6.26-1.82,7.23-4.7
				c0.92-2.72-0.58-5.83-2.93-7.49c-2.35-1.66-5.34-2.13-8.21-2.16c-3.59-0.04-7.23,0.54-10.5,2.03c-3.27,1.48-6.17,3.91-7.75,7.14
				C150.69,293.93,152.72,297.35,154.87,299.63z"/>
			<path d="M170.43,320.49c1.88,0.94,4.05,1.29,6.14,0.99c0.42-0.06,0.88-0.14,1.24,0.08c0.65,0.38,0.53,1.34,0.33,2.06
				c-0.23,0.84-0.47,1.69-0.96,2.41c-0.49,0.72-1.29,1.28-2.16,1.26c-0.94-0.02-1.73-0.7-2.33-1.43
				C171.47,324.36,170.73,322.46,170.43,320.49z"/>
			<path style="fill:#28738F;" d="M211.22,288.83c-9.3,4.88-21.14,4.5-30.11-0.96c-4.95,3.63-11,3.17-16.67,2.88
				s-11.89-0.17-16.72,3.58c-6.05-15.22-10.03-31.16-13.98-47.05c-1.1-4.42-2.21-8.89-2.34-13.45c-0.13-4.56,0.8-9.28,3.75-12.99
				c-0.6-2.37-0.8-4.84-0.97-7.37c8.72-2.2,17.47-4.4,26.41-5.38c8.94-0.99,19.86-5.76,28.66-2.87c0.26,1.36-1.13,5.75-1.07,7.21
				c5.47,4.02,8.95,12.61,10.68,19.17c4.09,15.55,6.68,31.59,10.78,47.14C210.62,282.43,211.6,286.27,211.22,288.83z"/>
			<path style="fill:#FFAF2E;" d="M141.01,215.65c2.15,1.31,2.83,4.2,2.45,6.69c-0.38,2.49-1.56,4.77-2.36,7.16
				c-1.32,3.97-1.56,8.22-1.51,12.4c0.05,4.35,0.39,8.75,1.65,12.92c1.25,4.17,3.47,8.13,6.8,10.94c-2.01,1.44-1.7,4.47-1.11,6.87
				c1.6,6.58,3.58,13.06,5.92,18.99c-2.25-0.18-4.55,1.12-5.51,2.75c-6.24-14.85-10.7-30.41-14.15-46.14
				c-1.04-4.75-1.99-9.56-1.9-14.42c0.09-4.86,1.31-9.82,4.25-13.7c-1.39-0.58-2.06-2.35-1.58-3.77c0.47-1.42,1.91-2.41,3.4-2.57
				C138.86,213.61,140.36,214.2,141.01,215.65z"/>
			<path style="fill:#FFFFFF;" d="M194.24,276.16c3.9-0.49,7.8-0.98,11.7-1.46c0.25-0.03,0.54-0.06,0.75,0.09
				c0.21,0.15,0.28,0.43,0.33,0.69c0.42,2.17,0.83,4.34,1.25,6.5c0.06,0.32,0.11,0.67-0.07,0.94c-0.16,0.24-0.45,0.33-0.73,0.41
				c-3.3,0.93-6.77,1.24-10.18,0.91C196.06,281.41,195.23,278.41,194.24,276.16z"/>
			<path d="M181.05,230.46c-5.54,2.69-8.63,9.62-6.93,15.55c0.72,2.49,2.17,4.79,2.39,7.38c0.16,1.9-0.35,3.79-0.35,5.69
				c0,2.67,1.02,5.22,1.84,7.76c2.09,6.51,2.92,13.34,4.12,20.4c1.99,1.43,3.98,2.87,5.98,4.3c1.86-5.22-0.74-10.84-2.88-15.96
				c-2.14-5.11-3.71-11.47-0.27-15.81c1.18-1.49,2.84-2.55,4.1-3.98c1.26-1.43,2.11-3.53,1.26-5.23c-1.59,0.21-3.23,0.42-4.78-0.01
				c-1.55-0.43-2.99-1.66-3.14-3.26c-0.17-1.73,1.16-3.34,1.03-5.07c-0.15-2.04-2.14-3.35-3.42-4.94
				C178.71,235.68,178.66,232.55,181.05,230.46z"/>
			<path d="M144.3,263.76c6.21,2.2,12.41,4.39,18.62,6.59c1.91,0.68,3.92,1.42,5.19,3c0.62,0.77,1,1.94,0.36,2.7
				c-0.29,0.35-0.75,0.53-1.19,0.67c-4.48,1.35-9.35-0.7-13-3.64C150.64,270.14,147.78,266.34,144.3,263.76z"/>
			<path d="M138.95,221.15c15.44-1.76,30.73-4.81,45.66-9.11c-5.92,5.33-13.82,8.03-21.72,8.98S146.99,221.3,138.95,221.15z"/>
			<path d="M187.97,208.46c-8.58,0.06-16.83,2.98-24.99,5.64c-8.16,2.66-16.66,5.1-25.18,4.15c-0.86-0.1-1.76-0.24-2.47-0.74
				c-0.71-0.5-1.17-1.45-0.85-2.26c0.19-0.47,0.61-0.81,1.01-1.12c7.33-5.58,16.17-9.16,25.31-10.24S179.39,204.24,187.97,208.46z"
				/>
			<path d="M139.2,227.56c1.79,2,2.86,4.63,2.97,7.32c0.11,2.68-0.73,5.4-2.35,7.54c-0.61,0.81-1.39,1.58-2.38,1.82
				c-0.99,0.24-2.21-0.23-2.48-1.21c-0.33-1.18,0.74-2.24,1.59-3.13C139.57,236.79,140.81,232.09,139.2,227.56z"/>
		</g>
		<g>
			<path style="fill:#28738F;" d="M192.04,168.92c1.99,4.71,1.61,18.13,2.57,23.15c0.96,5.02,2.11,8.1-2.57,10.14
				c1.4,2.89-1.54,6.4-3.85,6.29c-7.82-1.82-19.17,1.38-28.2,3.23c-9.03,1.85-18.03,4.33-27.24,4.24c-1.01-3.13-2.42-6.9-2.24-10.62
				c-5.25-3.53-8.53-10.54-10.38-17.44c-1.85-6.9-2.64-14.12-5.37-20.72c-2.35-5.67-6.04-10.67-9.01-16.04
				c-2.97-5.37-5.27-11.46-4.42-17.54s5.72-11.92,11.85-12.09c11.52,1.57,24.22-0.06,34.93-5.63c5.21-2.71,9.93-6.29,15.16-8.96
				c0.05-0.03,0.1-0.05,0.16-0.08c7.26-3.74,13.54,3.1,17.4,10.29C182.41,120.09,187.18,157.41,192.04,168.92z"/>
			<path style="fill:#FFAF2E;" d="M120.7,140.11c-0.25,11.03,5.93,25.65,13.21,33.93c7.28,8.28,16.57,14.52,25.97,20.3
				c-8.93-1.71-17.95-3.54-26.12-7.53c-8.17-3.99-15.52-10.43-18.7-18.94C111.87,159.36,112.67,144.69,120.7,140.11z"/>
			<path style="fill:#FFAF2E;" d="M191.25,164.33c-3.03,9.01-7.32,17.59-12.72,25.42c7.07-16.64,6.32-35.42,5.85-54.47
				C189.13,144.39,194.35,155.12,191.25,164.33z"/>
			<path style="fill:#FFFFFF;" d="M172.78,136.41c-2.26-1.32-5.23-1.27-7.51,0.01s-3.84,3.73-4.16,6.34
				c-0.32,2.6,0.56,5.3,2.09,7.73c-1.1,2.07-0.2,4.86,1.74,6.18c1.94,1.32,4.61,1.27,6.69,0.18c2.08-1.08,3.59-3.07,4.48-5.24
				C178.19,146.5,177.52,139.18,172.78,136.41z"/>
			<path d="M128.51,158.9c14.53,4.8,28.89,10.12,43.05,15.95c2.18,0.9,4.8,2.69,4.07,4.93c-0.66,2.03-3.42,2.22-5.53,1.93
				C154.04,179.48,138.91,171.08,128.51,158.9z"/>
			<path d="M125.96,122.23c2.11,3.51,5.91,5.58,9.53,7.49c3.28,1.72,6.71,3.49,10.41,3.59c4.96,0.14,9.83-3.08,11.66-7.69
				c1.83-4.61,0.47-10.29-3.56-14.59C144.94,115.79,135.26,119.38,125.96,122.23z"/>
			<path d="M187.06,201.98c-13.23-0.02-26.47-0.04-39.7-0.06c-4.18-0.01-8.9,0.22-11.67,3.35
				C153.5,207.71,171.78,206.71,187.06,201.98z"/>
			<path d="M175.12,131.74c-6.06,6.93-11.78,14.14-17.15,21.62c-0.84,1.17-1.65,2.89-0.64,3.92c0.65,0.65,1.77,0.6,2.56,0.12
				c0.79-0.48,1.32-1.27,1.82-2.04C166.82,147.52,171.62,139.48,175.12,131.74z"/>
			<path d="M122.39,138.53c2.22,5.52-2.32,10.76-4.28,16.1c-0.54,1.48-1.05,3.27-0.11,4.54c0.84,1.13,2.52,1.37,3.36,2.51
				c0.73,0.99,0.59,2.41-0.02,3.48c-0.6,1.07-1.59,1.86-2.55,2.63c1.6-0.11,3.31,0.44,4.32,1.69s1.16,3.22,0.11,4.44
				c-1.05,1.22-3.27,1.25-4.17-0.08c-3.58-6.26-7.15-12.53-10.73-18.79c-0.78-1.36-1.58-2.81-1.54-4.38
				c0.07-2.67,2.48-4.61,4.74-6.02C115.27,142.31,117.67,140.26,122.39,138.53z"/>
			<path d="M134.42,188.78c10.15,0.04,20.3,0.18,30.44,0.43c1.34,0.03,2.98,0.28,3.43,1.54c0.35,0.99-0.34,2.11-1.28,2.6
				c-0.94,0.49-2.04,0.49-3.09,0.47C154.12,193.6,144.36,191.79,134.42,188.78z"/>
		</g>
		<g>
			<path style="fill:#FFB387;" d="M151.72,112.96c-1.12,3.13,1.94,8.34,1.08,11.56c-0.49,1.84-2.08,3.24-3.88,3.87
				c-1.79,0.63-3.76,0.57-5.63,0.25c-5.01-0.87-9.66-3.66-12.77-7.68c1.79-5.63,0.86-12.12-2.09-17.78
				c0.75-3.79,4.28-9.82,11.91-8.19C149.81,96.99,154.45,105.33,151.72,112.96z"/>
			<path d="M128.93,103.61c2.16,2.37,3.09,5.6,4.78,8.32c3.34,5.36,9.91,8.51,16.18,7.75c0.48-0.06,0.97-0.15,1.34-0.45
				c0.67-0.54,0.68-1.54,0.64-2.4c-0.15-3.12-0.35-6.43-2.1-9.02c-1.1-1.63-2.72-2.84-4.4-3.87c-2.58-1.59-5.43-2.87-8.45-3.19
				C133.91,100.43,130.69,101.16,128.93,103.61z"/>
			<path style="fill:#FFB387;" d="M145.09,74.92c5.23,0.68,9.92,4.48,11.68,9.44c0.81,2.28,1.03,4.73,1.13,7.15
				c0.19,4.59-0.01,9.19-0.21,13.78c-0.1,2.38-0.28,4.95-1.83,6.77c-1.06,1.25-2.65,1.96-4.26,2.26s-3.26,0.23-4.9,0.16
				c-2.03-0.09-4.09-0.18-6.02-0.8c-4.34-1.39-7.41-5.16-10.32-9.12c-3.73-1.68-6.06-5.72-6.36-9.8c-0.3-4.08,1.19-8.13,3.43-11.55
				c1.97-3,4.58-5.63,7.77-7.28C138.37,74.28,141.93,74.51,145.09,74.92z"/>
			<path d="M147.523,92.602c0.972-0.364,2.114,0.285,2.549,1.449c0.436,1.164,0,2.402-0.972,2.766
				c-0.972,0.364-2.114-0.285-2.549-1.449C146.115,94.204,146.55,92.966,147.523,92.602z"/>
			<path style="fill:#F04741;" d="M151.08,99.64c0-1.14,0.87-6.58,1.56-5.88c2.13,2.16,2.19,4.75,2.19,5.88s-0.84,2.06-1.88,2.06
				C151.92,101.7,151.08,100.78,151.08,99.64z"/>
			<path style="fill:#FFF7F7;" d="M153.11,103.97c-2.07-0.35-4.13-0.7-6.2-1.05c-0.37-0.06-0.74-0.12-1.11-0.06
				c-0.37,0.06-0.73,0.28-0.86,0.62c-0.16,0.41,0.03,0.87,0.23,1.26c0.67,1.32,1.55,2.62,2.86,3.32c1.31,0.7,3.13,0.61,4.08-0.53
				C152.89,106.59,152.89,105.25,153.11,103.97z"/>
			<path d="M143.09,90.17c0.99-0.58,2.18-0.83,3.32-0.71c0.5,0.06,1.01,0.18,1.51,0.14c0.51-0.04,1.04-0.3,1.21-0.78
				c0.14-0.4-0.01-0.87-0.31-1.17c-0.3-0.3-0.72-0.46-1.14-0.52c-1-0.14-2.02,0.22-2.85,0.79S143.33,89.24,143.09,90.17z"/>
			<path d="M157.52,89.61c-1.19-0.28-2.38-0.56-3.57-0.84c-0.57-0.14-1.25-0.38-1.36-0.95s0.45-1.07,1.01-1.23
				c0.95-0.26,1.99,0.08,2.72,0.74C157.05,87.98,157.49,88.91,157.52,89.61z"/>
			<path d="M131,110.46c-0.23-2.05-4.38-4.67-5.91-6.06c-5.29-4.8-9.13-12.67-2.7-18.57c-1.07-1.56-0.8-3.75,0.2-5.36
				c0.99-1.61,2.58-2.76,4.16-3.8c4.13-2.73,8.61-5.1,13.47-6.05c4.86-0.95,10.18-0.36,14.11,2.38c0.99,0.92,1.7,2.16,1.77,3.53
				c1.22-0.1,4.58,0.99,4.94,2.17c0.59,1.98-2.39,5.32-4,6.5c-2.57-6.1-15.12-4.26-17.58-1.79c-1.07,1.08,0.67,2.85,0.96,4.38
				c-1.02,1.5-3.13,2.45-4.91,2.7c-0.11,1.81,0.73,2.57,1.48,4.22c0.36,0.79,0.82,1.67,0.51,2.48c-0.26,0.69-0.99,1.06-1.88,0.89
				c-0.16-1.37-0.34-2.79-1.01-4s-1.99-2.17-3.36-2c-0.85,0.1-1.62,0.63-2.12,1.33c-0.5,0.7-0.75,1.55-0.83,2.4
				c-0.27,2.91,1.59,5.88,4.04,6.84c2.24,0.88-0.49,2.97-0.82,3.77c-0.25,0.61-0.06,1.3,0.03,1.95
				C131.65,109.02,131.6,109.79,131,110.46z"/>
			<path d="M155.528,91.51c0.603-0.138,1.317,0.731,1.595,1.942c0.278,1.211,0.015,2.305-0.588,2.443
				c-0.603,0.139-1.317-0.731-1.595-1.942C154.662,92.742,154.925,91.648,155.528,91.51z"/>
		</g>
		<g>
			<path d="M78.59,95.74c-1.93-1.55-3.67-3.44-4.58-5.74c-0.92-2.3-0.9-5.06,0.47-7.12c0.74-1.11,1.81-1.94,2.89-2.71
				c1.24-0.89,2.54-1.73,4-2.15c1.46-0.42,3.13-0.38,4.41,0.44c1.19,0.76,1.93,2.1,2.17,3.5c0.24,1.39,0.01,2.83-0.41,4.18
				C86.21,90.48,82.75,94.11,78.59,95.74z"/>
			<g>
				<path d="M136.42,41.93c-6.23-8.74-15.9-16.43-29.19-5.87C87.62,51.65,91.11,71.02,88.45,74.11C85.8,77.2,74.14,85.8,74.14,85.8
					c-1.02,4.11,2.72,4.03,2.72,4.03s0.81,0.62,15.11-10.75c3.27-2.6,19.66,5.08,39.35-7.49C144.7,63.04,141.05,48.43,136.42,41.93z
					 M133.61,57.11c0.49,0.19,0.81,0.72,0.76,1.24c-0.04,0.51-0.46,0.97-0.96,1.06s-1.07-0.19-1.3-0.66
					c-0.24-0.47-0.13-1.07,0.24-1.42C132.69,57.02,133.24,56.96,133.61,57.11z M124.38,64.45c0.49,0.19,0.81,0.72,0.76,1.24
					c-0.04,0.51-0.46,0.97-0.96,1.06s-1.07-0.19-1.3-0.66c-0.24-0.47-0.13-1.07,0.24-1.42C123.46,64.36,124.01,64.29,124.38,64.45z
					 M134.08,51.16c0.49,0.19,0.81,0.72,0.76,1.24c-0.04,0.51-0.46,0.97-0.96,1.06s-1.07-0.19-1.3-0.66
					c-0.24-0.47-0.13-1.07,0.24-1.42C133.16,51.07,133.71,51.01,134.08,51.16z M131.71,47.75c0.49,0.19,0.81,0.72,0.76,1.24
					c-0.04,0.51-0.46,0.97-0.96,1.06s-1.07-0.19-1.3-0.66c-0.24-0.47-0.13-1.07,0.24-1.42C130.79,47.66,131.34,47.6,131.71,47.75z
					 M127.73,46.17c0.51,0.07,0.96,0.52,1.04,1.03c0.06,0.39-0.12,0.92-0.5,1.17c-0.42,0.29-1.04,0.25-1.44-0.08
					c-0.4-0.33-0.55-0.94-0.35-1.41C126.69,46.4,127.22,46.1,127.73,46.17z M124.5,48.74c0.51,0.07,0.96,0.52,1.04,1.03
					c0.06,0.4-0.12,0.92-0.5,1.17c-0.42,0.29-1.05,0.25-1.44-0.08c-0.4-0.34-0.55-0.94-0.34-1.41
					C123.45,48.97,123.98,48.67,124.5,48.74z M121.21,51.36c0.51,0.07,0.96,0.52,1.04,1.03c0.06,0.4-0.12,0.92-0.5,1.17
					c-0.42,0.29-1.05,0.25-1.44-0.08c-0.4-0.34-0.55-0.94-0.34-1.41C120.16,51.59,120.69,51.29,121.21,51.36z M126.93,42.11
					c0.51,0.07,0.96,0.52,1.04,1.03c0.06,0.39-0.13,0.91-0.5,1.17c-0.42,0.29-1.04,0.25-1.44-0.08c-0.4-0.34-0.55-0.94-0.34-1.41
					C125.88,42.34,126.41,42.04,126.93,42.11z M105.57,44.43c-0.4-0.34-0.55-0.94-0.34-1.41c0.2-0.47,0.73-0.77,1.25-0.7
					c0.51,0.07,0.96,0.52,1.04,1.03c0.06,0.39-0.13,0.91-0.5,1.17C106.59,44.8,105.98,44.76,105.57,44.43z M108.86,41.81
					c-0.4-0.34-0.55-0.94-0.34-1.41c0.2-0.47,0.73-0.77,1.25-0.7c0.51,0.07,0.96,0.52,1.04,1.03c0.06,0.39-0.13,0.91-0.5,1.17
					C109.88,42.18,109.26,42.14,108.86,41.81z M111.62,39.62c-0.4-0.34-0.55-0.94-0.34-1.41c0.2-0.47,0.73-0.77,1.25-0.7
					c0.51,0.07,0.96,0.52,1.04,1.03c0.06,0.39-0.13,0.91-0.5,1.17C112.64,39.99,112.02,39.95,111.62,39.62z M101.77,52.28
					c-0.4-0.34-0.55-0.94-0.34-1.41c0.2-0.47,0.73-0.77,1.25-0.7c0.51,0.07,0.96,0.52,1.04,1.03c0.06,0.39-0.12,0.92-0.5,1.17
					C102.79,52.64,102.17,52.61,101.77,52.28z M105.02,50.05c-0.4-0.34-0.55-0.94-0.34-1.41c0.2-0.47,0.73-0.77,1.25-0.7
					c0.51,0.07,0.96,0.52,1.04,1.03c0.06,0.39-0.12,0.92-0.5,1.17C106.04,50.41,105.42,50.38,105.02,50.05z M108.1,47.6
					c-0.4-0.34-0.55-0.94-0.34-1.41c0.2-0.47,0.73-0.77,1.25-0.7c0.51,0.07,0.96,0.52,1.04,1.03c0.06,0.39-0.12,0.92-0.5,1.17
					C109.12,47.97,108.5,47.93,108.1,47.6z M117.33,40.26c-0.4-0.34-0.55-0.94-0.34-1.41c0.2-0.47,0.73-0.77,1.25-0.7
					c0.51,0.07,0.96,0.52,1.04,1.03c0.06,0.39-0.12,0.92-0.5,1.17C118.35,40.63,117.73,40.59,117.33,40.26z M110.64,50.8
					c-0.4-0.34-0.55-0.94-0.34-1.41c0.2-0.47,0.73-0.77,1.25-0.7c0.51,0.07,0.96,0.52,1.04,1.03c0.06,0.39-0.13,0.91-0.5,1.17
					C111.66,51.17,111.04,51.13,110.64,50.8z M116.69,46c-0.4-0.34-0.55-0.94-0.34-1.41c0.2-0.47,0.73-0.77,1.25-0.7
					c0.51,0.07,0.96,0.52,1.04,1.03c0.06,0.39-0.13,0.91-0.5,1.17C117.71,46.36,117.09,46.33,116.69,46z M120.05,43.68
					c-0.4-0.34-0.55-0.94-0.34-1.41c0.2-0.47,0.73-0.77,1.25-0.7c0.51,0.07,0.96,0.52,1.04,1.03c0.06,0.39-0.13,0.91-0.5,1.17
					C121.07,44.05,120.45,44.01,120.05,43.68z M123.23,41.15c-0.4-0.34-0.55-0.94-0.34-1.41c0.2-0.47,0.73-0.77,1.25-0.7
					c0.51,0.07,0.96,0.52,1.04,1.03c0.06,0.39-0.13,0.91-0.5,1.17C124.25,41.52,123.63,41.48,123.23,41.15z M115.78,49.97
					c0.2-0.47,0.73-0.77,1.25-0.7c0.51,0.07,0.96,0.52,1.04,1.03c0.06,0.39-0.13,0.91-0.5,1.17c-0.42,0.29-1.04,0.25-1.44-0.08
					C115.72,51.05,115.58,50.44,115.78,49.97z M100.71,72.03c-1.8,0.35-4.04,1.05-5.85,1.4c-0.22,0.04-0.49,0.08-0.66-0.08
					c-0.18-0.17-0.15-0.46-0.1-0.71c0.43-2.15,1.23-4.21,2.35-6.08c0.13-0.38,1.76,1.6,2.38,2.45
					C99.33,69.7,101.02,71.96,100.71,72.03z M122.31,58.07c-0.5,0.09-1.07-0.19-1.3-0.66c-0.24-0.47-0.13-1.07,0.24-1.42
					c0.33-0.31,0.88-0.38,1.25-0.23c0.49,0.19,0.81,0.72,0.76,1.24C123.23,57.52,122.81,57.98,122.31,58.07z M130.89,53.69
					c0.49,0.19,0.81,0.72,0.76,1.24c-0.04,0.51-0.46,0.97-0.96,1.06s-1.07-0.19-1.3-0.66c-0.24-0.47-0.13-1.07,0.24-1.42
					C129.97,53.6,130.53,53.54,130.89,53.69z M121.63,63.55c-0.5,0.09-1.07-0.19-1.3-0.66c-0.24-0.47-0.13-1.07,0.24-1.42
					c0.33-0.31,0.88-0.38,1.25-0.23c0.49,0.19,0.81,0.72,0.76,1.24C122.56,63,122.14,63.45,121.63,63.55z M127.68,58.74
					c-0.5,0.09-1.07-0.19-1.3-0.66c-0.24-0.47-0.13-1.07,0.24-1.42c0.33-0.31,0.88-0.38,1.25-0.23c0.49,0.19,0.81,0.72,0.76,1.24
					C128.6,58.19,128.19,58.64,127.68,58.74z M121.3,66.89c0.49,0.19,0.81,0.72,0.76,1.24c-0.04,0.51-0.46,0.97-0.96,1.06
					c-0.5,0.09-1.07-0.19-1.3-0.66c-0.24-0.47-0.13-1.07,0.24-1.42C120.38,66.81,120.93,66.74,121.3,66.89z M118.2,71.86
					c-0.5,0.09-1.07-0.19-1.3-0.66c-0.24-0.47-0.13-1.07,0.24-1.42c0.34-0.31,0.89-0.37,1.26-0.22c0.49,0.19,0.81,0.72,0.76,1.24
					C119.12,71.31,118.71,71.76,118.2,71.86z M126.7,69.92c-0.5,0.09-1.07-0.19-1.3-0.66c-0.24-0.47-0.13-1.07,0.24-1.42
					c0.33-0.31,0.88-0.38,1.25-0.23c0.49,0.19,0.81,0.72,0.76,1.24C127.62,69.37,127.21,69.83,126.7,69.92z M129.99,67.31
					c-0.5,0.09-1.07-0.19-1.3-0.66c-0.24-0.47-0.13-1.07,0.24-1.42c0.33-0.31,0.88-0.38,1.25-0.23c0.49,0.19,0.81,0.72,0.76,1.24
					C130.91,66.76,130.5,67.21,129.99,67.31z M132.75,65.11c-0.5,0.09-1.07-0.19-1.3-0.66c-0.24-0.47-0.13-1.07,0.24-1.42
					c0.33-0.31,0.88-0.38,1.25-0.23c0.49,0.19,0.81,0.72,0.76,1.24C133.67,64.56,133.26,65.02,132.75,65.11z"/>
				<path style="fill:#9E5E45;" d="M135.98,42.92c-2.9-4.2-13.88-18.08-26.83-6.62c-19.54,17.3-17.69,34.44-20.4,37.58
					s-14.59,11.9-14.59,11.9c-1.06,4.15,2.71,4.04,2.71,4.04s0.26-0.11,15.38-10.96c3.38-2.42,20.7,3.3,39-8.98
					C144.68,60.87,138.87,47.12,135.98,42.92z M134.56,56.35c0.49,0.19,0.81,0.72,0.76,1.24c-0.05,0.52-0.47,0.98-0.98,1.08
					c-0.51,0.09-1.08-0.18-1.31-0.65c-0.24-0.47-0.12-1.08,0.25-1.44C133.63,56.27,134.19,56.2,134.56,56.35z M125.16,63.82
					c0.49,0.19,0.81,0.72,0.76,1.24c-0.05,0.52-0.47,0.98-0.98,1.08c-0.51,0.09-1.08-0.18-1.31-0.65c-0.24-0.47-0.12-1.08,0.25-1.44
					C124.23,63.75,124.79,63.68,125.16,63.82z M135.09,50.36c0.49,0.19,0.81,0.72,0.76,1.24c-0.05,0.52-0.47,0.98-0.98,1.08
					c-0.51,0.1-1.08-0.18-1.31-0.65c-0.24-0.47-0.12-1.08,0.26-1.43C134.16,50.28,134.72,50.21,135.09,50.36z M132.73,46.94
					c0.49,0.19,0.81,0.72,0.76,1.24c-0.05,0.52-0.47,0.98-0.98,1.08c-0.51,0.1-1.08-0.18-1.31-0.65c-0.24-0.47-0.12-1.08,0.26-1.43
					C131.8,46.86,132.35,46.79,132.73,46.94z M128.71,45.39c0.52,0.07,0.96,0.51,1.04,1.03c0.06,0.4-0.13,0.92-0.52,1.18
					c-0.43,0.29-1.06,0.26-1.45-0.07c-0.41-0.33-0.55-0.94-0.34-1.42S128.2,45.32,128.71,45.39z M125.42,48.01
					c0.51,0.07,0.96,0.51,1.04,1.03c0.06,0.4-0.13,0.92-0.52,1.18c-0.43,0.29-1.06,0.26-1.46-0.07c-0.4-0.34-0.54-0.94-0.33-1.42
					S124.9,47.94,125.42,48.01z M122.07,50.67c0.51,0.07,0.96,0.51,1.04,1.03c0.06,0.4-0.13,0.92-0.52,1.18
					c-0.43,0.29-1.06,0.26-1.46-0.07c-0.4-0.34-0.54-0.94-0.33-1.42C121.01,50.91,121.55,50.6,122.07,50.67z M127.94,41.3
					c0.51,0.07,0.96,0.51,1.04,1.03c0.06,0.4-0.14,0.92-0.52,1.18c-0.43,0.29-1.06,0.26-1.46-0.07c-0.4-0.34-0.54-0.94-0.33-1.42
					C126.87,41.54,127.42,41.24,127.94,41.3z M106.32,43.83c-0.4-0.34-0.54-0.94-0.33-1.42c0.2-0.48,0.75-0.79,1.27-0.72
					c0.51,0.07,0.96,0.51,1.04,1.03c0.06,0.4-0.14,0.92-0.52,1.18C107.35,44.19,106.73,44.16,106.32,43.83z M109.67,41.17
					c-0.4-0.34-0.54-0.94-0.33-1.42c0.2-0.48,0.75-0.79,1.27-0.72c0.51,0.07,0.96,0.51,1.04,1.03c0.06,0.4-0.14,0.92-0.52,1.18
					C110.7,41.53,110.08,41.5,109.67,41.17z M112.48,38.94c-0.4-0.34-0.54-0.94-0.33-1.42c0.2-0.48,0.75-0.79,1.27-0.72
					c0.51,0.07,0.96,0.51,1.04,1.03c0.06,0.4-0.14,0.92-0.52,1.18C113.51,39.3,112.89,39.27,112.48,38.94z M102.4,51.77
					c-0.4-0.34-0.54-0.94-0.33-1.42c0.2-0.48,0.75-0.79,1.27-0.72c0.51,0.07,0.96,0.51,1.04,1.03c0.06,0.4-0.13,0.92-0.52,1.18
					C103.43,52.13,102.81,52.1,102.4,51.77z M105.71,49.5c-0.4-0.34-0.54-0.94-0.33-1.42c0.2-0.48,0.75-0.79,1.27-0.72
					c0.51,0.07,0.96,0.51,1.04,1.03c0.06,0.4-0.13,0.92-0.52,1.18C106.74,49.86,106.11,49.83,105.71,49.5z M108.84,47.01
					c-0.4-0.34-0.54-0.94-0.33-1.42c0.2-0.48,0.75-0.79,1.27-0.72c0.51,0.07,0.96,0.51,1.04,1.03c0.06,0.4-0.13,0.92-0.52,1.18
					C109.87,47.37,109.25,47.33,108.84,47.01z M118.25,39.53c-0.4-0.34-0.54-0.94-0.33-1.42c0.2-0.48,0.75-0.79,1.27-0.72
					c0.51,0.07,0.96,0.51,1.04,1.03c0.06,0.4-0.13,0.92-0.52,1.18C119.27,39.89,118.65,39.86,118.25,39.53z M111.39,50.21
					c-0.4-0.34-0.54-0.94-0.33-1.42c0.2-0.48,0.75-0.79,1.27-0.72c0.51,0.07,0.96,0.51,1.04,1.03c0.06,0.4-0.14,0.92-0.52,1.18
					C112.42,50.57,111.79,50.54,111.39,50.21z M117.55,45.31c-0.4-0.34-0.54-0.94-0.33-1.42c0.2-0.48,0.75-0.79,1.27-0.72
					c0.51,0.07,0.96,0.51,1.04,1.03c0.06,0.4-0.14,0.92-0.52,1.18C118.58,45.67,117.95,45.64,117.55,45.31z M120.96,42.95
					c-0.4-0.34-0.54-0.94-0.33-1.42c0.2-0.48,0.75-0.79,1.27-0.72c0.51,0.07,0.96,0.51,1.04,1.03c0.06,0.4-0.14,0.92-0.52,1.18
					C121.99,43.31,121.37,43.28,120.96,42.95z M124.21,40.38c-0.4-0.34-0.54-0.94-0.33-1.42c0.2-0.48,0.75-0.79,1.27-0.72
					c0.51,0.07,0.96,0.51,1.04,1.03c0.06,0.4-0.14,0.92-0.52,1.18C125.23,40.74,124.61,40.7,124.21,40.38z M116.6,49.32
					c0.2-0.48,0.75-0.79,1.27-0.72c0.51,0.07,0.96,0.51,1.04,1.03c0.06,0.4-0.14,0.92-0.52,1.18c-0.43,0.29-1.06,0.26-1.46-0.07
					C116.53,50.41,116.39,49.8,116.6,49.32z M101.64,71.74c-0.28,0.16-0.61,0.22-0.93,0.29c-1.83,0.37-3.65,0.74-5.48,1.11
					c-0.23,0.04-0.49,0.08-0.67-0.08c-0.18-0.17-0.15-0.47-0.1-0.71c0.45-2.16,1.28-4.26,2.43-6.14c0.21-0.34,0.49-0.7,0.88-0.73
					c0.28-0.01,0.54,0.16,0.77,0.34c0.74,0.59,1.26,1.39,1.82,2.16c0.48,0.65,0.95,1.3,1.42,1.96c0.23,0.32,0.47,0.67,0.43,1.06
					C102.16,71.31,101.92,71.57,101.64,71.74z M123.12,57.43c-0.51,0.1-1.08-0.18-1.31-0.65c-0.24-0.47-0.12-1.08,0.26-1.43
					c0.34-0.32,0.9-0.39,1.27-0.24c0.49,0.19,0.81,0.72,0.76,1.24C124.06,56.86,123.64,57.33,123.12,57.43z M131.85,52.93
					c0.49,0.19,0.81,0.72,0.76,1.24c-0.05,0.52-0.47,0.98-0.98,1.08c-0.51,0.1-1.08-0.18-1.31-0.65c-0.24-0.47-0.12-1.08,0.26-1.43
					C130.92,52.85,131.47,52.78,131.85,52.93z M122.39,62.94c-0.51,0.1-1.08-0.18-1.31-0.65c-0.24-0.47-0.12-1.08,0.26-1.43
					c0.34-0.32,0.9-0.39,1.27-0.24c0.49,0.19,0.81,0.72,0.76,1.24C123.33,62.38,122.91,62.84,122.39,62.94z M128.55,58.05
					c-0.51,0.1-1.08-0.18-1.31-0.65c-0.24-0.47-0.12-1.08,0.26-1.43c0.34-0.32,0.9-0.39,1.27-0.24c0.49,0.19,0.81,0.72,0.76,1.24
					C129.49,57.49,129.07,57.95,128.55,58.05z M122.03,66.32c0.49,0.19,0.81,0.72,0.76,1.24c-0.05,0.52-0.47,0.98-0.98,1.08
					c-0.51,0.09-1.08-0.18-1.31-0.65c-0.24-0.47-0.12-1.08,0.25-1.44C121.1,66.24,121.65,66.17,122.03,66.32z M118.84,71.34
					c-0.51,0.09-1.08-0.18-1.31-0.65c-0.24-0.47-0.12-1.08,0.25-1.44c0.34-0.31,0.9-0.38,1.27-0.24c0.49,0.19,0.81,0.72,0.76,1.24
					C119.78,70.78,119.36,71.25,118.84,71.34z M127.46,69.32c-0.51,0.1-1.08-0.18-1.31-0.65c-0.24-0.47-0.12-1.08,0.26-1.43
					c0.34-0.32,0.9-0.39,1.27-0.24c0.49,0.19,0.81,0.72,0.76,1.24C128.4,68.76,127.98,69.22,127.46,69.32z M130.81,66.66
					c-0.51,0.1-1.08-0.18-1.31-0.65c-0.24-0.47-0.12-1.08,0.26-1.43c0.34-0.32,0.9-0.39,1.27-0.24c0.49,0.19,0.81,0.72,0.76,1.24
					C131.75,66.09,131.33,66.56,130.81,66.66z M133.62,64.42c-0.51,0.1-1.08-0.18-1.31-0.65c-0.24-0.47-0.12-1.08,0.26-1.43
					c0.34-0.32,0.9-0.39,1.27-0.24c0.49,0.19,0.81,0.72,0.76,1.24C134.56,63.86,134.14,64.32,133.62,64.42z"/>
				<path style="fill:#F04741;" d="M73.29,86.12l13.27-10.55c0.42-0.34,1.04-0.27,1.38,0.16l2.72,3.42
					c0.34,0.42,0.27,1.04-0.16,1.38L77.23,91.08c-0.42,0.34-1.04,0.27-1.38-0.16l-2.72-3.42C72.8,87.08,72.87,86.46,73.29,86.12z"/>
				<path d="M101.14,53.48c-0.08,2.71-2.42,4.98-2.46,7.69c-0.02,1.99,1.21,3.77,2.57,5.23c1.35,1.46,2.23,3.43,3.84,4.39
					c3.25,1.95,7.47-0.18,11.25-0.32c-10.75-0.29-11.55-5.12-14.1-8.44C99.7,58.71,101.92,56.69,101.14,53.48z"/>
			</g>
			<path d="M76.65,89.47c0.66,0.65,1.73,0.94,2.53,0.48c0.8-0.46,1-1.78,0.25-2.32c0.72,0.86,2.15,0.99,3.02,0.28
				c0.87-0.71,1.02-2.13,0.32-3.01c0.49,0.98,2.08,0.92,2.76,0.06s0.6-2.12,0.17-3.12c0.74,0.61,1.96,0.32,2.5-0.46
				c0.54-0.79,0.45-1.9-0.06-2.7c-0.51-0.81-1.37-1.34-2.27-1.65c-0.6-0.21-1.27-0.33-1.86-0.09c-0.59,0.24-1.01,0.96-0.74,1.54
				c-0.75-0.35-1.68-0.25-2.34,0.26c-0.65,0.5-0.99,1.39-0.84,2.2c-0.9-0.36-2-0.18-2.73,0.45C76.61,82,76.27,83.06,76.5,84
				c-0.1-0.51-0.84-0.65-1.25-0.33s-0.53,0.89-0.53,1.4C74.71,86.15,75.99,88.81,76.65,89.47z"/>
			<path style="fill:#FFB387;" d="M85.87,85.31c-0.39-1.29-0.26-2.74,0.37-3.93c0.62-1.2,1.72-2.14,3.01-2.56
				c0.58-0.19,1.34-0.22,1.66,0.3c0.3,0.5-0.01,1.12-0.28,1.64c-1.25,2.42-1.34,5.41-0.57,7.59c-0.03,1.93-1.08,3.69-2.24,5.23
				c-1.16,1.54-2.5,2.99-2.77,4.28c-2.56,7.05-5.16,14.33-4.81,21.83c0.19,3.99,1.23,7.94,3.15,11.34
				c5.58-0.66,11.06-2.13,16.23-4.33c1.82-0.78,3.62-1.65,5.54-2.14c1.92-0.49,4.02-0.56,5.83,0.25c2.99,1.34,4.55,4.91,4.24,8.17
				c-0.31,3.26-2.18,6.2-4.47,8.55c-2.49,2.56-5.54,4.57-8.87,5.85c-6.77,2.62-14.28,2.17-21.53,1.69
				c-4.44-0.3-8.88-0.59-13.41-1.22c-2.41-17.82,0.49-36.33,8.53-52.4C77.79,90.9,81.69,87.2,85.87,85.31z"/>
			<path style="fill:#FFB387;" d="M74.7,87.73c0.66,0.65,1.73,0.94,2.53,0.48c0.8-0.46,1-1.78,0.25-2.32
				c0.72,0.86,2.15,0.99,3.02,0.28s1.02-2.13,0.32-3.01c0.49,0.98,2.08,0.92,2.76,0.06s0.6-2.12,0.17-3.12
				c0.74,0.61,1.96,0.32,2.5-0.46c0.54-0.79,0.45-1.9-0.06-2.7c-0.51-0.81-1.37-1.34-2.27-1.65c-0.6-0.21-1.27-0.33-1.86-0.09
				c-0.59,0.24-1.01,0.96-0.74,1.54c-0.75-0.35-1.68-0.25-2.34,0.26c-0.66,0.51-0.99,1.39-0.84,2.2c-0.9-0.36-2-0.18-2.73,0.45
				c-0.74,0.64-1.08,1.69-0.85,2.64c-0.1-0.51-0.84-0.65-1.25-0.33c-0.41,0.32-0.53,0.89-0.53,1.4
				C72.77,84.41,74.05,87.08,74.7,87.73z"/>
			<path d="M79.66,133.23c-0.5,0.57-1.05,1.17-1.78,1.37c-0.73,0.2-1.68-0.23-1.73-0.98c-0.06-0.93,1.08-1.4,2-1.58
				c4.85-0.97,9.69-1.94,14.54-2.9c0.72-0.14,1.62-0.22,2.04,0.38c0.31,0.44,0.19,1.04,0.06,1.57c-1.21,4.88-2.42,9.76-3.62,14.64
				c-0.23,0.92-0.48,1.88-1.13,2.57c-1.44,1.53-4.19,0.86-5.48-0.79c-1.29-1.65-1.51-3.88-1.62-5.98c-0.04-0.76-0.09-1.58-0.53-2.2
				c-0.44-0.62-1.45-0.9-1.98-0.35c-0.37,0.39-0.5,1.12-1.04,1.15c-0.63,0.04-0.73-0.89-0.6-1.5
				C79.16,136.87,79.54,135.12,79.66,133.23z"/>
			<path d="M76.6,96.09c2.75-0.21,5.4-1.53,7.21-3.61c0.53,1.49-0.02,3.3-1.3,4.23C81.23,97.65,79.34,97.63,76.6,96.09z"/>
			<path d="M75.05,82.64c0.7,0.89,1.4,1.77,2.1,2.66C76.14,85.13,75.29,84.27,75.05,82.64z"/>
			<path d="M80.39,82.53c-0.77-0.95-1.41-2-1.9-3.12c0.68,0.03,1.34,0.41,1.7,0.99C80.56,80.98,80.61,81.74,80.39,82.53z"/>
			<path d="M83.3,79.24c-0.59-0.65-1.09-1.37-1.5-2.15c0.55-0.19,1.21,0,1.58,0.45C83.75,77.99,83.79,78.68,83.3,79.24z"/>
			<path style="fill:#F04741;" d="M110.7,121.73c-7.1,1.51-13.96,4.11-20.32,7.66c-1.72,1.06-3.06,2.73-3.72,4.65
				c-0.87,2.53-0.55,5.3-0.22,7.96c0.5,4.02,1.15,8.36,4.05,10.67c0.3,0.23,0.68,0.3,1.05,0.24c6.18-0.93,16.25,2.45,21.44-0.65
				c5.36-3.2,9.76-8.7,9.92-14.94c0.08-3.02-5.21-11.14-7.37-13.26C113.37,121.94,110,121.02,110.7,121.73z"/>
			<path d="M94.17,149.27c-2.34-4.82-3.77-10.21-3.28-15.55c1.19,4.19,2.4,8.45,4.8,12.09c0.41,0.63,0.88,1.36,0.66,2.08
				C96.11,148.64,95.04,148.97,94.17,149.27z"/>
			<path d="M110.1,121.58c5,1.02,9.26,5.07,10.53,10.01c0.12,0.48,0.14,1.14-0.32,1.32c-0.46,0.18-0.9-0.3-1.17-0.72
				C116.64,128.29,113.73,124.66,110.1,121.58z"/>
			<path style="fill:#FFFFFF;" d="M94.57,127.37c0.85,2.08,2.14,4.05,4.02,5.29c1.88,1.23,4.4,1.63,6.41,0.62
				c1.84-0.92,3.02-2.88,3.35-4.91s-0.12-4.12-1.1-6C102.47,123.11,97.86,124.94,94.57,127.37z"/>
		</g>
	</g>
	<g>
		<path style="fill:#72A13A;" d="M321.72,25.89c0.35,4.78,5.7,9.21,11,9.21c3.21,0,6.05-1.58,7.69-3.89c1.07-1.5,1.64-3.31,1.48-5.2
			c-0.41-4.78-5.33-9.28-10.65-9.89c-3.44-0.39-6.61,1.89-8.29,4.85C322.07,22.52,321.6,24.26,321.72,25.89z"/>
		<path d="M321.72,25.89c0.35,4.78,5.7,9.21,11,9.21c3.21,0,6.05-1.58,7.69-3.89c-1.71,0.25-3.47,0.32-5.24,0.14
			c-2.44-0.25-4.91-1.01-6.98-2.36c-2.4-1.56-4.19-3.91-4.93-6.42c-0.16-0.53-0.27-1.06-0.33-1.59
			C322.07,22.52,321.6,24.26,321.72,25.89z"/>
		<path style="fill:#FFFFFF;" d="M336.24,17.87c0.64,0.28,1.28,0.79,1.46,1.4c0.18,0.61,0.02,1.26-0.41,1.69
			c0.99,0.81,1.18,2.28,0.39,3.11c0.99,1.13,0.82,2.87-0.35,3.63c0.6,0.72,0.66,1.74,0.14,2.4c-0.26,0.34-0.66,0.59-0.83,0.97
			c-0.2,0.43-0.09,0.95-0.16,1.42c-0.11,0.72-0.7,1.33-1.47,1.52c0.18,0.27,0.18,0.62,0,0.85c-0.18,0.23-0.73,0.26-1.1,0.18
			c0.42-0.29,0.76-0.76,0.51-1.32c0.57-0.02,1.1-0.32,1.34-0.76c0.24-0.45,0.2-1.03-0.16-1.76c0.67-0.24,1.18-0.75,1.37-1.38
			c0.19-0.63,0.06-1.36-0.44-2.19c0.58-0.36,0.97-0.96,1.04-1.61s-0.16-1.36-0.65-2.09c0.41-0.39,0.63-0.94,0.59-1.51
			c-0.04-0.57-0.33-1.14-0.95-1.67c0.43-0.39,0.54-1,0.44-1.58C336.87,18.58,336.46,18.07,336.24,17.87z"/>
		<path style="fill:#FFFFFF;" d="M338.73,19.82c0.64,0.25,1.28,0.7,1.47,1.22c0.19,0.52,0.04,1.06-0.39,1.42
			c1,0.71,1.2,1.96,0.43,2.64c1,0.98,0.86,2.45-0.3,3.06c0.61,0.62,0.68,1.48,0.17,2.03c-0.26,0.28-0.65,0.48-0.82,0.8
			c-0.19,0.36-0.07,0.8-0.14,1.19c-0.1,0.61-0.68,1.11-1.45,1.25c0.19,0.23,0.19,0.53,0.01,0.72c-0.18,0.19-0.73,0.2-1.1,0.13
			c0.41-0.23,0.75-0.63,0.49-1.1c0.57,0,1.09-0.24,1.33-0.61c0.24-0.37,0.19-0.87-0.18-1.5c0.66-0.18,1.17-0.61,1.35-1.13
			c0.18-0.52,0.04-1.15-0.47-1.86c0.58-0.29,0.95-0.78,1.02-1.34c0.07-0.55-0.18-1.16-0.68-1.78c0.41-0.32,0.61-0.78,0.57-1.27
			c-0.05-0.48-0.35-0.98-0.97-1.44c0.42-0.32,0.52-0.84,0.41-1.33C339.37,20.44,338.95,20,338.73,19.82z"/>
		<path style="fill:#A6DFFE;" d="M355.49,32.25c29.7,3.35,57.64,11.47,78.38,22.76C406.5,46.7,379.13,38.39,355.49,32.25z"/>
		<path style="fill:#A6DFFE;" d="M356.14,30.28c25.77-5.19,40.84-1.51,59.82,5.72C395.02,33.7,374.09,31.4,356.14,30.28z"/>
		<path style="fill:#A6DFFE;" d="M356.31,34.16c17.95,6.31,34.38,17.69,46.08,31.92C386.33,54.53,370.28,42.98,356.31,34.16z"/>
	</g>
</g>
</svg>
