<?xml version="1.0" encoding="utf-8"?>
<!-- Generator: Adobe Illustrator 27.5.0, SVG Export Plug-In . SVG Version: 6.00 Build 0)  -->
<svg version="1.1" xmlns="http://www.w3.org/2000/svg" xmlns:xlink="http://www.w3.org/1999/xlink" x="0px" y="0px"
	 viewBox="0 0 750 500" style="enable-background:new 0 0 750 500;" xml:space="preserve">
<g id="BACKGROUND" style="opacity:0.32;">
</g>
<g id="OBJECTS">
	<path style="fill:#424094;" d="M394.992,392.018c-0.064,0-0.065,0.1,0,0.1C395.057,392.118,395.057,392.018,394.992,392.018z"/>
	<g>
		<g>
			<path style="fill:#611B20;" d="M556.686,271.523c1.566-1.932,4.21-2.513,6.43-3.633c2.816-1.42,5.098-3.871,6.313-6.782
				c0.404-0.968,0.695-2.053,0.399-3.06c-0.327-1.111-1.288-1.893-2.148-2.669c-2.854-2.577-5.186-6.516-3.909-10.143
				c1.418-4.027,6.258-5.397,10.277-6.839c4.019-1.442,8.48-4.864,7.353-8.983c-0.618-2.258-2.733-3.706-4.382-5.368
				c-1.649-1.662-2.931-4.348-1.571-6.254c0.756-1.06,2.092-1.502,3.337-1.882c1.901-0.579,3.803-1.158,5.704-1.737
				c1.27-0.387,2.666-0.873,3.293-2.043c0.638-1.189,0.247-2.644-0.156-3.931c-1.887-6.027-3.774-12.055-5.661-18.082
				c-2.259-7.215-4.537-14.542-4.755-22.098c-0.529-18.366,7.658-40.867,24.249-48.763c16.591-7.896,45.33-7.656,61.664,10.596
				c5.324,5.949,10.215,12.303,14.221,19.208c3.736,6.44,6.863,14.106,4.525,21.175c-0.941,2.844-2.756,5.622-2.264,8.577
				c0.401,2.407,2.298,4.319,4.405,5.55c2.107,1.231,4.474,1.94,6.673,2.999c4.578,2.205,8.474,6.13,9.884,11.011
				c0.327,1.131,0.518,2.348,0.194,3.48c-0.589,2.059-2.65,3.266-4.476,4.385c-4.677,2.865-9.362,7.811-7.902,13.098
				c1.041,3.767,4.791,5.999,8.153,7.991s6.98,4.634,7.401,8.52c0.452,4.175-3.014,7.688-6.442,10.114
				c-3.428,2.426-7.375,4.789-8.728,8.765c-1.173,3.448,0.006,7.371,2.264,10.229c2.258,2.857,5.457,4.811,8.711,6.445
				c1.876,0.943,3.959,1.966,4.753,3.91c0.997,2.438-0.615,5.313-2.893,6.633c-2.279,1.32-5.085,1.523-7.715,1.647H560.56
				C556.571,281.073,553.715,275.187,556.686,271.523z"/>
			<path style="opacity:0.22;fill:#611B20;" d="M601.72,281.835c1.092-3.146,2.574-6.139,4.03-9.128
				c3.769-7.735,7.832-15.358,10.659-23.508c2.878-8.298,4.903-17.059,4.982-25.874c0.081-9.047-2.2-17.816-3.816-26.652
				c-1.26-6.888-1.962-13.774-0.611-20.695c1.133-5.801,3.346-11.443,6.701-16.324c5.779-8.407,16.209-14.525,26.516-10.917
				c8.763,3.068,10.791,10.206,13.921,17.918c2.496,6.148,5.726,12.263,6.286,18.982c0.336,4.031-0.13,8.423-1.981,12.074
				c-1.474,2.909-4.208,5.225-4.963,8.486c-0.701,3.029,0.563,6.051,2.104,8.604c1.712,2.835,3.915,5.361,5.489,8.281
				c1.578,2.926,2.141,6.262,1.105,9.461c-0.944,2.915-2.828,5.42-4.304,8.074c-1.414,2.544-2.498,5.172-2.315,8.133
				c0.189,3.069,1.317,5.999,2.561,8.778c1.321,2.95,2.877,5.788,4.194,8.74c1.266,2.836,2.21,5.708,1.908,8.854
				c-0.303,3.157-1.682,6.141-3.767,8.47h-69.27C601.332,282.998,601.521,282.41,601.72,281.835z"/>
		</g>
		<g>
			<path style="fill:#B24D39;" d="M569.701,304.22c-1.093,2.093-2.525,4.884-3.348,6.451c-2.049,2.204-10.201,16.001-8.195,17.476
				c1.378,0.958,4.929-4.929,5.382-5.464c-0.468,0.884-0.521,14.81,1.913,15.202c1.622,0.284,2.214-8.773,2.495-9.784
				c-0.254,1.127,1.019,13.035,3.596,12.831c1.848-0.227,0.459-12.685,0.874-12.67c-0.288,0.092,3.181,10.352,5.046,9.816
				c1.257-0.385-0.71-11.052-0.381-11.089c-0.114,0.055,2.348,6.317,3.627,5.921c0.951-0.269-1.45-9.519-0.87-13.241
				c0.004-3.079,2.129-9.163,2.95-11.119C578.369,307.254,574.011,305.795,569.701,304.22z M567.971,328.033
				c0.009-0.019,0.018-0.028,0.026-0.026C567.988,328.007,567.979,328.02,567.971,328.033z"/>
			<path style="fill:#E0ECFF;" d="M603.351,243.348c-0.33,10.467-6.881,16.188-12.236,38.543
				c-3.713,15.482-6.758,29.23-8.282,36.225c-0.052,0.229-0.095,0.459-0.147,0.678c-0.589,2.694-0.904,4.211-0.904,4.211
				c-6.446-0.438-22.143-3.663-21.606-7.148c0.204-1.318,0.408-2.626,0.632-3.944c0.032-0.199,0.064-0.399,0.106-0.599
				c7.173-42.037,23.749-78.738,29.556-85.087C597.562,218.482,603.681,232.881,603.351,243.348z"/>
			<path style="fill:#ACCEFF;" d="M582.833,318.599c-0.052,0.229-0.095,0.459-0.147,0.678c-3.43-0.936-6.808-2.102-10.187-3.167
				c-3.897-1.231-7.794-2.482-11.692-3.713c0.032-0.199,0.064-0.399,0.106-0.599c3.928,1.201,7.855,2.403,11.783,3.624
				C576.065,316.468,579.496,317.424,582.833,318.599z"/>
		</g>
		<path style="fill:#E0ECFF;" d="M646.689,282.296c-0.508,0.265-1.029,0.506-1.561,0.721c-4.83,1.954-10.143,2.296-15.28,2.701
			c-5.596,0.441-11.165,1.1-16.777,1.355c-5.921,0.27-11.948,0.2-17.707-1.36c-5.033-1.363-10.248-3.062-13.754-7.147
			c-1.393-1.622-2.499-3.539-2.904-5.638c-0.723-3.749,0.8-7.42,1.455-11.059c0.683-3.8,1.325-7.587,2.168-11.366
			c1.311-5.873,2.742-11.775,4.824-17.429c0.964-2.618,2.045-5.474,3.924-7.593c0.94-1.06,5.27-2.59,11-3.96
			c0.22-0.06,0.46-0.11,0.69-0.17c7.46-1.74,17.09-3.18,24.76-3.02c2.77,0.06,5.38,0.29,7.79,0.66c0.3,0.04,0.6,0.09,0.89,0.15
			c9.26,1.55,15.48,5.02,16.63,7.41c0.929,1.926,1.623,25.249,2.559,46.273c0.046,1.043-1.036,2.085-1.589,2.874
			c-0.756,1.077-1.481,2.126-2.401,3.076C650.035,280.189,648.437,281.385,646.689,282.296z"/>
		<path style="fill:#ACCEFF;" d="M582.789,279.794c-2.285-2.432-4.01-5.545-3.886-8.831c0.076-3.269,1.357-6.449,1.904-9.811
			c0.618-3.299,1.234-6.598,1.774-9.916c0.286-1.655,0.686-3.286,1.019-4.933c0.315-1.652,0.664-3.297,0.951-4.96
			c-0.979,3.217-1.912,6.458-2.72,9.728c-0.72,3.288-1.364,6.595-2.006,9.902c-0.495,3.27-1.779,6.485-1.686,9.998
			c0.037,1.737,0.536,3.463,1.377,4.954C580.361,277.421,581.514,278.696,582.789,279.794z"/>
		<ellipse style="fill:#E0ECFF;" cx="622.513" cy="415.037" rx="70.066" ry="8.103"/>
		<g>
			<g>
				<g>
					<path style="fill:#B24D39;" d="M614.753,318.538c-4.31,0.015-8.618-0.079-12.916-0.309c-5.682-0.303-11.381-0.876-16.95-2.076
						c-0.065-0.014-0.129-0.031-0.194-0.045c0.403,10.385,1.025,19.016,1.726,23.936c2.819,19.784,7.347,63.099,7.347,63.099h23.189
						C616.858,387.319,614.478,333.437,614.753,318.538z"/>
					<path style="fill:#C4311D;" d="M588.91,336.425c4.247,0.742,8.526,1.237,12.823,1.577c4.415,0.35,8.858,0.549,13.308,0.633
						c-0.233-8.639-0.365-15.91-0.288-20.098c-4.31,0.015-8.618-0.079-12.916-0.309c-5.682-0.303-11.381-0.876-16.95-2.076
						c-0.065-0.014-0.129-0.031-0.194-0.045c0.306,7.904,0.74,14.786,1.239,19.795C586.934,336.085,587.931,336.254,588.91,336.425z
						"/>
					<g>
						<path style="fill:#E0ECFF;" d="M609.641,379.559c2.238,0.129,4.479,0.228,6.72,0.303c0.322,9.874,0.572,18.399,0.599,23.277
							h-23.19c0,0-1.193-11.411-2.736-25.188C597.221,378.646,603.425,379.2,609.641,379.559z"/>
					</g>
				</g>
				<path style="fill:#CF1E58;" d="M593.369,402.067c0.821-0.392,22.659-0.036,23.718,0.259c1.059,0.295,3.287,9.73,2.099,11.794
					c-1.04,1.808-31.572,0.449-39.147,0.084c-0.888-0.043-1.454-0.98-1.057-1.776c0.806-1.616,2.739-3.866,6.407-6.269
					C591.388,402.229,593.369,402.067,593.369,402.067z"/>
				<g>
					<path d="M593.206,407.343c-1.218-0.659-2.537-1.131-3.892-1.41c-1.565-0.322-3.147-0.398-4.719-0.099
						c-0.552,0.105-0.414,0.97,0.131,0.967c2.805-0.016,5.509,0.477,7.96,1.897c0.464,0.269,1.395,0.922,1.729,0.128
						C594.733,408.07,593.724,407.623,593.206,407.343z"/>
					<path d="M598.387,406.789c-0.088-0.093-0.189-0.172-0.297-0.236c-0.591-0.454-1.352-0.785-2.008-1.072
						c-0.788-0.345-1.594-0.646-2.421-0.885c-1.675-0.484-3.406-0.719-5.149-0.675c-0.694,0.017-0.683,1.025,0,1.07
						c1.624,0.107,3.242,0.397,4.794,0.892c0.759,0.242,1.5,0.533,2.218,0.879c0.739,0.357,1.443,0.869,2.208,1.153
						C598.397,408.161,598.816,407.244,598.387,406.789z"/>
					<path d="M599.063,403.439c-0.784-0.366-1.597-0.676-2.43-0.91c-1.658-0.466-3.332-0.534-5.033-0.327
						c-0.416,0.051-0.439,0.645,0,0.666c1.582,0.075,3.183,0.422,4.69,0.904c0.741,0.237,1.454,0.535,2.146,0.889
						c0.36,0.184,0.714,0.377,1.062,0.582c0.372,0.219,0.685,0.335,1.095,0.132c0.15-0.074,0.223-0.245,0.231-0.402
						C600.865,404.162,599.674,403.724,599.063,403.439z"/>
				</g>
			</g>
			<g>
				<g>
					<path style="fill:#B24D39;" d="M641.573,316.887c-6.175,0.748-12.39,1.235-18.616,1.479
						c5.318,13.395,17.631,84.777,17.631,84.777h22.963c-1.725-16.56-8.094-61.198-11.738-87.785
						C648.42,315.966,645.007,316.472,641.573,316.887z"/>
					<path style="fill:#C4311D;" d="M645.273,337.299c3.144-0.337,6.277-0.782,9.39-1.331c-1.034-7.448-2.015-14.507-2.851-20.61
						c-3.393,0.607-6.806,1.113-10.24,1.529c-6.175,0.748-12.39,1.235-18.616,1.479c1.394,3.511,3.268,11.008,5.276,20.157
						C633.937,338.311,639.629,337.904,645.273,337.299z"/>
					<g>
						<path style="fill:#E0ECFF;" d="M659.235,377.149c0.354-0.055,0.707-0.121,1.061-0.178c1.446,10.878,2.644,20.292,3.254,26.168
							h-22.96c0,0-1.746-10.144-4.214-23.514C644.03,379.163,651.659,378.323,659.235,377.149z"/>
					</g>
				</g>
				<path style="fill:#CF1E58;" d="M640.303,402.067c0.821-0.392,22.659-0.036,23.718,0.259c1.059,0.295,3.287,9.73,2.099,11.794
					c-1.04,1.808-31.572,0.449-39.147,0.084c-0.888-0.043-1.454-0.98-1.057-1.776c0.807-1.616,2.739-3.866,6.407-6.269
					C638.323,402.229,640.303,402.067,640.303,402.067z"/>
				<g>
					<path d="M639.989,407.343c-1.218-0.659-2.537-1.131-3.892-1.41c-1.565-0.322-3.147-0.398-4.719-0.099
						c-0.552,0.105-0.414,0.97,0.131,0.967c2.805-0.016,5.509,0.477,7.959,1.897c0.465,0.269,1.395,0.922,1.729,0.128
						C641.515,408.07,640.506,407.623,639.989,407.343z"/>
					<path d="M645.17,406.789c-0.088-0.093-0.189-0.172-0.297-0.236c-0.591-0.454-1.352-0.785-2.008-1.072
						c-0.788-0.345-1.594-0.646-2.421-0.885c-1.674-0.484-3.407-0.719-5.149-0.675c-0.694,0.017-0.683,1.025,0,1.07
						c1.624,0.107,3.242,0.397,4.794,0.892c0.759,0.242,1.5,0.533,2.218,0.879c0.739,0.357,1.444,0.869,2.208,1.153
						C645.179,408.161,645.599,407.244,645.17,406.789z"/>
					<path d="M645.845,403.439c-0.784-0.366-1.597-0.676-2.43-0.91c-1.658-0.466-3.332-0.534-5.033-0.327
						c-0.416,0.051-0.439,0.645,0,0.666c1.582,0.075,3.183,0.422,4.69,0.904c0.741,0.237,1.454,0.535,2.146,0.889
						c0.36,0.184,0.714,0.377,1.062,0.582c0.372,0.219,0.685,0.335,1.095,0.132c0.15-0.074,0.223-0.245,0.231-0.402
						C647.647,404.162,646.456,403.724,645.845,403.439z"/>
				</g>
			</g>
			<g>
				<path d="M661.967,328.022c0,0-1.106,2.146-5.048,3.931c-0.195,0.096-0.401,0.182-0.616,0.268
					c-2.612,1.084-6.35,1.969-11.592,2.065c-14.183,0.27-22.205-2.304-22.205-2.304s-3.144-14.714-5.046-17.259l0-0.009
					c-0.19-0.255-0.37-0.392-0.538-0.374c-0.065,0.009-0.13,0.046-0.177,0.1c-1.26,1.443,2.888,17.905,2.888,17.905
					s-7.829,1.401-17.979,0.518c-10.125-0.891-21.797-3.019-21.797-3.019s-0.482-3.193-0.579-15.076
					c-0.041-5.944,0.633-15.233,1.279-22.709c0.021-0.282,0.05-0.547,0.07-0.82c0-0.009,0-0.009,0-0.009
					c0.583-6.557,1.126-11.591,1.126-11.591h1.087c0.169,0,1.816,0.041,4.495,0.116c0.205,0,0.418,0.008,0.632,0.008
					c4.648,0.124,11.961,0.314,19.938,0.528c0.161,0,0.321,0.008,0.482,0.008c0.758,0.025,1.516,0.041,2.283,0.066
					c0.187,0,0.375,0.008,0.562,0.017c6.619,0.174,13.5,0.355,19.546,0.521c0.232,0.008,0.464,0.008,0.697,0.017
					c6.165,0.165,11.394,0.306,14.488,0.389c0.286,0.008,0.555,0.017,0.805,0.025c1.422,0.033,2.218,0.058,2.218,0.058
					C651.109,286.293,661.967,328.022,661.967,328.022z"/>
				<g>
					<path style="fill:#424094;" d="M656.919,331.953c-0.195,0.096-0.401,0.182-0.616,0.268c-0.254-1.1-0.479-2.206-0.73-3.28
						c-0.53-2.309-1.047-4.602-1.551-6.891c-1.556-7.008-2.971-13.899-4.295-20.657c-2.713-0.851-5.258-2.137-7.563-3.748
						c-5.944-4.155-10.044-10.291-11.388-16.741c0.232,0.008,0.464,0.008,0.697,0.017c0.954,4.373,3.097,8.574,6.308,12.08
						c3.234,3.525,7.336,6.212,11.881,8.067c-0.182-0.911-0.372-1.821-0.554-2.736c-0.741-3.827-1.446-7.613-2.126-11.357
						c-0.346-1.865-0.673-3.712-0.998-5.557c-0.002-0.033-0.013-0.075-0.024-0.108c0.286,0.008,0.555,0.017,0.805,0.025
						c0.04,0.232,0.08,0.464,0.119,0.697c0.366,2.049,0.734,4.11,1.113,6.184c1.393,7.609,2.908,15.372,4.541,23.301
						c0.83,4.019,1.687,8.074,2.573,12.176c0.437,2.064,0.896,4.149,1.348,6.237C656.609,330.597,656.769,331.274,656.919,331.953z"
						/>
					<path style="fill:#424094;" d="M610.925,300.542c0.019,0.158-0.146,0.254-0.284,0.272c-0.891,0.105-1.782,0.211-2.683,0.325
						c-0.165,0.018-0.257-0.14-0.275-0.272c-0.486-4.098-0.667-8.183-0.521-12.211c0.097-2.816,0.318-5.618,0.743-8.363
						c0.161,0,0.321,0.008,0.482,0.008c-0.369,2.821-0.651,5.665-0.737,8.558c-0.107,3.868,0.087,7.788,0.558,11.719
						c0.707-0.088,1.423-0.175,2.139-0.263c-0.261-2.122-0.438-4.239-0.514-6.352c-0.132-3.822,0.043-7.619,0.512-11.333
						c0.097-0.756,0.202-1.511,0.325-2.263c0.187,0,0.375,0.008,0.562,0.017C610.173,286.916,610.05,293.713,610.925,300.542z"/>
					<path style="fill:#424094;" d="M587.966,279.764c-1.314,4.509-3.863,8.79-7.409,12.295c0.021-0.282,0.05-0.547,0.07-0.82
						c0-0.009,0-0.009,0-0.009c0.34-0.341,0.662-0.699,0.975-1.056c2.586-2.981,4.493-6.411,5.611-9.99
						c0.04-0.14,0.089-0.289,0.121-0.429C587.539,279.755,587.752,279.764,587.966,279.764z"/>
					<path style="fill:#424094;" d="M618.296,314.693c-4.046-1.973-8.455-3.333-12.909-3.927c-0.184-0.024-0.273,0.236-0.081,0.279
						c4.395,0.966,8.664,2.258,12.861,3.954C618.348,315.073,618.471,314.778,618.296,314.693z"/>
				</g>
			</g>
		</g>
		<path d="M582.33,325.482c-0.064,0-0.065,0.1,0,0.1C582.394,325.582,582.394,325.482,582.33,325.482z"/>
		<g>
			<g>
				<g>
					<path style="fill:#7636D8;" d="M641.185,309.844c2.219-1.913,10.533-6.455,16.856-5.909c6.323,0.546,12.71,1.173,15.107,10.219
						c2.396,9.047,10.14,36.159,7.618,38.297c-2.522,2.138-11.85,5.683-15.101,6.558c-3.251,0.874-11.473,3.039-14.219,1.578
						C648.699,359.128,637.128,313.341,641.185,309.844z"/>
					<path style="fill:#FF96E6;" d="M662.729,341.444c0.559,1.427,8.042,0.22,11.057-0.226c2.049-0.303,4-0.803,5.894-1.424
						c5.114-1.272,4.879-11.177-0.475-24.784c-5.354-13.607-14.841-10.53-21.163-11.076c-2.064-0.178-4.339,0.191-6.546,0.828
						c1.704,3.588,3.079,7.308,4.245,11.081c1.566,5.065,2.836,10.204,4.183,15.324C660.584,333.678,662.084,339.8,662.729,341.444z
						"/>
					<path d="M673.807,338.764c-0.119-0.381-0.245-0.76-0.379-1.136c-0.131-0.368-0.271-0.748-0.244-1.139
						c0.132-1.922,2.563-1.552,3.483-0.52c0.603,0.676,0.898,1.571,1.085,2.458c0.253,1.198,0.445,2.402,0.67,3.6
						c0.15,0.801,0.436,1.899-0.08,2.641c-0.464,0.668-1.799,0.837-2.549,0.826c-0.127-0.002-0.259-0.01-0.373-0.067
						c-0.282-0.141-0.346-0.507-0.382-0.82C674.816,342.626,674.402,340.667,673.807,338.764z"/>
					<path style="fill:#7636D8;" d="M656.655,329.917c-1.981-8.25-3.691-16.671-6.999-24.556c-3.824,1.373-7.18,3.371-8.472,4.484
						c-4.057,3.497,7.514,49.284,10.26,50.744c2.11,1.122,7.447,0.105,11.284-0.824C661.847,349.651,659.02,339.767,656.655,329.917
						z"/>
				</g>
				<g>
					<path style="fill:#7636D8;" d="M591.464,224.496l6.915-2.565c0.28-0.119,0.605,0.032,0.688,0.324
						c1.1,3.9,9.187,31.811,23.082,51.834c15.52,22.364,29.345,39.124,29.345,39.124L642.18,316c0,0-21.054-23.245-34.107-45.128
						c-12.106-20.295-16.345-42.761-16.895-45.86C591.138,224.792,591.257,224.584,591.464,224.496z"/>
					<path style="fill:#FF96E6;" d="M641.47,316c0.132-0.331,10.012-3.488,10.302-3.317c0.29,0.171,2.075,7.432,1.886,7.715
						c-0.189,0.283-10.853,2.499-11.478,2.351C641.554,322.602,641.19,316.703,641.47,316z"/>
					<path style="fill:#FF96E6;" d="M649.446,353.944c0.132-0.331,10.893-3.187,11.183-3.015c0.29,0.171,1.408,8.005,1.286,8.322
						c-0.348,0.899-8.989,1.531-9.743,1.106C651.417,359.933,649.166,354.647,649.446,353.944z"/>
				</g>
			</g>
			<g>
				<g>
					<defs>
						<path id="XMLID_1_" d="M601.476,214.614l3.075,11.146c0,0,2.419,3.899,14.178,0.764c11.199-2.986,10.13-8.401,10.13-8.401
							l-2.637-8.837L601.476,214.614z"/>
					</defs>
					<use xlink:href="#XMLID_1_"  style="overflow:visible;fill:#B24D39;"/>
					<clipPath id="XMLID_00000163792662474846282860000004111302658096135559_">
						<use xlink:href="#XMLID_1_"  style="overflow:visible;"/>
					</clipPath>
					<path style="clip-path:url(#XMLID_00000163792662474846282860000004111302658096135559_);fill:#C4311D;" d="M603.3,223.182
						c2.695,0.261,5.476-0.165,8.155-0.788c3.273-0.761,6.515-1.842,9.266-3.575s4.986-4.179,5.722-6.929
						c0.25-0.933,0.3-1.973-0.35-2.711c-0.593-0.674-1.644-0.95-2.657-1.079c-1.898-0.241-3.869-0.093-5.803,0.166
						c-5.861,0.786-11.534,2.578-17.066,4.556c-1.348,0.482-2.794,1.051-3.513,2.121c-0.902,1.342-1.136,4.154-0.239,5.477
						C597.971,222.13,601.069,222.966,603.3,223.182z"/>
				</g>
				<g>
					<path style="fill:#ACCEFF;" d="M632.507,223.032c0.438-0.947-2.743-8.917-5.395-6.902c-2.652,2.016-8.953,9.625-19.936,8.844
						c-2.56-0.182-3.541-3.202-4.037-4.521c-0.101-0.269-0.448-0.312-0.585-0.069c-0.901,1.605-2.724,5.74-2.754,6.762
						c-0.051,1.732,1.434,7.672,2.445,7.803c1.012,0.132,5.169-6.229,5.169-6.229s4.357,8.103,5.756,7.688
						C615.469,235.729,626.772,235.421,632.507,223.032z"/>
					<path style="fill:#E0ECFF;" d="M633.088,221.701c0.446-0.945-2.792-8.932-5.491-6.93c-2.699,2.001-9.111,9.577-20.289,8.738
						c-2.606-0.196-3.604-3.221-4.109-4.543c-0.103-0.27-0.456-0.314-0.595-0.072c-0.917,1.6-2.773,5.725-2.803,6.747
						c-0.052,1.732,1.459,7.679,2.489,7.816c1.03,0.137,5.261-6.201,5.261-6.201s4.435,8.126,5.858,7.719
						C615.747,234.307,627.251,234.059,633.088,221.701z"/>
				</g>
				<g>
					<path style="fill:#CF1E58;" d="M607.377,227.549c1.164,0.067,4.719,6.705,4.212,7.411c-0.506,0.705-2.934,2.431-5.171,2.175
						c-2.237-0.256-3.727-2.068-3.653-2.695C602.84,233.812,605.14,227.421,607.377,227.549z"/>
					<path style="fill:#CF1E58;" d="M607.75,231.309c-0.28,3.056,1.325,5.921,2.685,8.672c1.648,3.333,3.019,6.867,3.357,10.569
						c0.338,3.702-0.448,7.613-2.744,10.537c-1.769-0.66-3.772-1.134-5.654-1.284c1.9-1.913,6.161-9.057,2.214-18.144
						c0.289,3.814,0,8.576-2.584,13.989c-0.528,1.107-1.127,2.185-1.539,3.34c-0.412,1.155-0.619,2.426-0.3,3.61
						c-2.221-0.808-4.157-2.106-5.413-4.108c-0.931-1.484,0.611-3.29,1.659-4.694c1.047-1.404,2.34-2.621,3.294-4.09
						c2.117-3.26,2.338-7.363,2.374-11.25c0.02-2.195,0.028-4.498,1.083-6.424C606.477,231.491,607.186,231.057,607.75,231.309z"/>
				</g>
			</g>
			<g>
				<path style="fill:#E0ECFF;" d="M662.251,271.64c1.15,9.1-3.99,15.92-9.06,22.06c-0.16,0.19-0.32,0.37-0.47,0.56
					c-1.32,1.58-2.62,3.13-3.79,4.66c1.04,0.5,2.07,1.01,3.09,1.53c3.22,1.64,6.42,3.33,9.56,5.12c2.53,1.45,5.04,2.95,7.53,4.47
					c0.8-0.99,1.57-1.99,2.31-2.99c0.08-0.11,0.17-0.22,0.25-0.34c10.53-14.3,15.51-29.59,8.78-44.66
					c-8.68-19.43-29.95-41.45-36.63-40.74c-6.68,0.71-7.3,11.98-1.64,20.71C648.461,251.72,661.171,263.14,662.251,271.64z"/>
				<path style="fill:#ACCEFF;" d="M652.721,294.26c0.78,0.2,1.56,0.44,2.32,0.7c6.52,2.25,12.33,6.52,16.38,12.09
					c0.08-0.11,0.17-0.22,0.25-0.34c-0.78-1.11-1.64-2.17-2.56-3.18c-2.63-2.87-5.76-5.3-9.2-7.12c-1.74-0.92-3.55-1.69-5.42-2.3
					c-0.42-0.14-0.85-0.28-1.3-0.41C653.031,293.89,652.871,294.07,652.721,294.26z"/>
				<path style="fill:#ACCEFF;" d="M642.179,242.02c1.533,3.069,3.612,5.813,5.75,8.455c2.17,2.627,4.433,5.151,6.846,7.574
					c-1.796-2.917-3.935-5.575-6.073-8.207L642.179,242.02z"/>
				<path style="fill:#B24D39;" d="M668.152,309.458c0,0-0.272-3.345-9.013-9.012c-8.74-5.667-12.991-6.095-15.448-3.068
					c-2.457,3.026-1.588,10.868,0.251,10.987s2.817-5.521,2.817-5.521s-0.786,6.734,1.731,8.147
					c2.517,1.413,3.347-5.574,3.347-5.574s0.217,5.81,1.592,6.575c1.375,0.765,3.054-4.543,3.054-4.543s0.139,2.995,1.414,4.496
					c1.275,1.501,3.009-2.789,3.009-2.789S665.165,310.636,668.152,309.458z"/>
				<path style="fill:#ACCEFF;" d="M651.344,253.82c-1.021-2.08-2.58-3.882-4.406-5.326c-1.835-1.424-3.951-2.547-6.234-2.982
					c0.993,0.599,1.96,1.178,2.897,1.802c0.933,0.626,1.847,1.269,2.719,1.967c0.883,0.684,1.726,1.418,2.559,2.175L651.344,253.82z
					"/>
			</g>
		</g>
		<g>
			<path style="fill:#B24D39;" d="M653.217,173.809c-0.49,8.13-2.88,15.63-6.69,22.05c-8.35,14.04-23.5,22.96-40.45,22.2
				c-1.27-0.06-2.49-0.14-3.68-0.24c-12.79-1.1-19.33-4.28-23.99-8.53c-0.68-0.62-1.32-1.31-1.92-2.04
				c-5.02-6.1-7.39-15.81-7.29-24.77c0.05-4.27,0.4-8.77,0.88-13.41c3.03-29.26,17.08-46.25,41.58-44.79
				C636.147,125.739,654.757,147.908,653.217,173.809z"/>
			<path style="fill:#611B20;" d="M569.911,147.53v0.26c0.04,1.07,0.23,2.18,1.04,2.96c0.76,0.75,2.05,0.95,2.88,0.24
				c0.55,0.35,1.17,0.61,1.8,0.76c2,0.46,3.66-0.21,5-1.39c1.03,1.36,2.52,2.18,4.27,2.05c1.38-0.1,2.56-0.72,3.54-1.62
				c0.17,0.3,0.35,0.6,0.55,0.89c1.55,2.14,4.4,3.09,6.75,1.63c0.95-0.6,1.64-1.51,2.18-2.53c0.12,0.24,0.22,0.49,0.35,0.72
				c0.96,1.72,2.48,3.21,4.42,3.72c2.14,0.56,4.26-0.22,5.89-1.62c0.32-0.27,0.6-0.57,0.87-0.87c0.11,0.03,0.22,0.06,0.33,0.09
				c1.05,1.66,2.42,3.11,4.2,4.17c1.89,1.14,4.47,1.92,6.65,1.22c2.49-0.81,3.52-3.39,3.3-5.83c-0.18-1.92-0.68-3.8-1.06-5.69
				c-0.13-0.63-0.24-1.27-0.32-1.91c-0.29-2.17-0.41-4.5-0.02-6.67c0.13-0.75,0.33-1.52,0.58-2.28c0.78-2.33,2.14-4.55,4.14-5.89
				c0.26,0.48,0.4,1.06,0.44,1.6c0.13,1.33-0.11,2.71-0.34,4.04c-0.04,0.24-0.08,0.48-0.12,0.72c-0.28,1.72-0.6,3.43-0.72,5.17
				c-0.09,1.29-0.08,2.59,0.01,3.88c0.14,2.18,0.52,4.35,1.13,6.44c1,3.4,2.7,6.35,4.58,9.32c1.2,1.89,2.47,3.88,3.2,6.02
				c0.38,0.69,0.7,1.4,0.95,2.14c0.93,2.71,0.01,5.75-0.13,8.54c-0.15,2.61-0.55,5.14,2.41,5.3c2.87,0.16,4.55-5.62,9.67-5.46
				c5.11,0.17,5.36,5.63,8.58,4.38c1.9-0.74,3.38-3.1,4.64-4.52c9.06-10.13,12.15-24.98,7.03-37.82c-0.55-1.4-1.21-2.75-1.93-4.06
				c-0.08-0.15-0.17-0.3-0.26-0.45c-1.97-3.48-4.49-6.6-7.32-9.37c-0.79-0.79-1.61-1.53-2.44-2.25c-1.72-1.47-3.54-2.84-5.43-4.07
				c-12.97-8.5-29.34-11.22-44.57-8.17c-6.29,1.23-12.39,3.48-17.98,6.7c-2.04,1.15-4,2.45-5.88,3.88
				c-2.03,1.54-3.97,3.24-5.76,5.09c-0.1,0.1-0.19,0.2-0.28,0.3c-1.18,1.23-2.29,2.54-3.28,3.93c-0.92,1.29-1.73,2.64-2.39,4.04
				c-0.52,1.09-0.94,2.2-1.25,3.34c-0.26,0.95-0.44,1.92-0.53,2.9C569.101,143.46,569.281,145.48,569.911,147.53z"/>
			<g style="opacity:0.44;">
				<path style="opacity:0.41;fill:#BB6142;" d="M626.521,145.35c3.66-1.71,7.28-4.07,10.92-2.79c2.34,0.82,4.33,3.1,6.78,2.72
					c3.73-0.57,4.79-6.72,8.56-6.79c2.05-0.03,3.62,1.89,5.61,2.4c3.19,0.81,6.05-2.15,7.64-5.03c0.13-0.23,0.25-0.45,0.36-0.68
					c-1.97-3.48-4.49-6.6-7.32-9.37c-9.54,5.71-20.57,8.84-31.72,9.77c-0.04,0.24-0.08,0.48-0.12,0.72
					c-0.28,1.72-0.6,3.43-0.72,5.17C626.421,142.76,626.431,144.06,626.521,145.35z"/>
				<path style="opacity:0.41;fill:#BB6142;" d="M569.281,141.5c0.62,0.46,1.3,0.87,2.05,1.01c3.11,0.54,5.17-3.48,8.26-4.11
					c1.93-0.39,3.88,0.65,5.34,1.97c1.46,1.32,2.64,2.94,4.21,4.13c3.93,3,9.55,2.68,14.14,0.86c2.75-1.09,5.57-2.69,8.48-2.14
					c2.75,0.52,4.86,2.87,7.59,3.51c1.18,0.28,2.35,0.22,3.52-0.04c-0.13-0.63-0.24-1.27-0.32-1.91c-0.29-2.17-0.41-4.5-0.02-6.67
					c0.13-0.75,0.33-1.52,0.58-2.28c-0.42,0.02-0.84,0.03-1.26,0.04c-14.66,0.29-31.14-3.69-45.12-8.58
					c-1.18,1.23-2.29,2.54-3.28,3.93c-0.92,1.29-1.73,2.64-2.39,4.04c-0.52,1.09-0.94,2.2-1.25,3.34
					C569.551,139.55,569.371,140.52,569.281,141.5z"/>
			</g>
			<g>
				<path style="fill:#B24D39;" d="M664.787,171.581c1.614,0.814,2.963,2.179,3.805,4.267c0.929,2.304,0.877,4.812,0.359,7.097
					c-1.123,4.956-4.416,9.054-8.846,11.308c-3.691,1.878-9.916,3.408-13.468-0.598c-1.573-1.774-1.826-4.272-1.659-6.496
					c0.362-4.817,1.626-10.618,5.518-13.421C653.94,171.258,660.361,169.35,664.787,171.581z"/>
				<path style="fill:#C4311D;" d="M651.669,185.268c0.555-1.603,1.201-3.051,2.345-4.339c1.137-1.279,2.495-2.339,4.038-3.085
					c1.612-0.78,3.497-1.166,5.258-0.713c0.779,0.201,1.514,0.537,2.136,1.055c0.569,0.474,1.354,1.35,1.194,2.141
					c-0.094,0.466-0.536,0.748-0.996,0.575c-0.549-0.206-0.901-0.814-1.367-1.173c-0.472-0.364-1.054-0.639-1.633-0.778
					c-0.358-0.086-0.72-0.122-1.081-0.123c0.589,0.968,0.886,2.082,0.799,3.247c-0.052,0.702-0.245,1.419-0.552,2.052
					c-0.169,0.35-0.384,0.682-0.628,0.985c-0.11,0.137-0.228,0.268-0.352,0.393c-0.202,0.201-0.406,0.27-0.677,0.337
					c-0.383,0.095-0.819-0.341-0.727-0.724c0.045-0.186,0.078-0.363,0.186-0.526c0.089-0.133,0.197-0.253,0.29-0.384
					c0.148-0.209,0.269-0.426,0.385-0.653c0.264-0.519,0.437-1.056,0.498-1.636c0.103-0.99-0.13-2.042-0.635-2.911
					c-0.687,0.169-1.355,0.437-1.973,0.757c-2.332,1.204-4.529,3.463-5.576,5.887C652.341,186.252,651.458,185.879,651.669,185.268z
					"/>
			</g>
			<g style="opacity:0.18;">
				<path style="fill:#EC372F;" d="M601.833,216.304c0.158,0.516,0.348,1.019,0.563,1.51c1.186,0.106,2.411,0.18,3.677,0.24
					c16.954,0.765,32.107-8.156,40.449-22.196c-0.541-1.027-1.21-1.985-1.98-2.851c-3.526-3.94-8.932-5.895-14.217-5.905
					c-5.285-0.01-10.453,1.776-15.059,4.37c-4.436,2.502-8.515,5.839-11.172,10.178C601.439,205.999,600.33,211.435,601.833,216.304
					z"/>
				<path style="fill:#EC372F;" d="M576.487,207.249c-5.02-6.1-7.39-15.81-7.29-24.77c2.77,3.4,4.63,7.59,5.7,11.87
					C575.957,198.549,576.337,202.899,576.487,207.249z"/>
			</g>
			<g>
				<g>
					<path style="fill:#C4311D;" d="M601.684,184.183c-2.651-1.306-5.218,0.621-10.336,0.677c-5.118,0.056-8.163-1.462-8.981-0.428
						c-1.895,2.393,1.881,8.676,9.005,9.197C598.496,194.149,604.334,185.488,601.684,184.183z"/>
					<path style="fill:#FF582C;" d="M594.991,187.375c-2.612,1.223-5.269,3.051-7.255,5.417c1.084,0.439,2.302,0.739,3.636,0.836
						c5.567,0.407,10.349-4.793,10.908-7.708C600.267,185.135,596.899,186.482,594.991,187.375z"/>
				</g>
				<path d="M613.804,175.881c-0.569-0.5-1.173-0.934-1.827-1.317c-1.301-0.761-2.777-1.292-4.29-1.388
					c-1.376-0.087-2.792,0.167-4.03,0.785c-1.144,0.571-2.433,1.567-2.792,2.855c-0.147,0.529,0.436,0.871,0.82,0.47
					c0.848-0.885,1.576-1.658,2.732-2.147c1.058-0.448,2.246-0.612,3.387-0.483c1.27,0.144,2.482,0.616,3.584,1.253
					c0.548,0.317,1.082,0.685,1.586,1.068c0.504,0.383,1.067,0.901,1.667,1.116c0.342,0.122,0.626-0.195,0.517-0.524
					C614.94,176.91,614.312,176.327,613.804,175.881z"/>
				<path d="M583.217,171.542c-0.859-1.281-2.198-2.328-3.645-2.857c-1.631-0.597-4.229-0.801-4.728,1.353
					c-0.108,0.467,0.595,0.611,0.781,0.21c0.357-0.773,1.418-0.777,2.127-0.657c0.712,0.12,1.412,0.381,2.038,0.741
					c1.281,0.736,2.234,1.9,2.808,3.249c0.139,0.326,0.33,0.815,0.682,0.961c0.503,0.208,0.852-0.227,0.87-0.695
					C584.181,173.038,583.651,172.189,583.217,171.542z"/>
				<path style="fill:#C4311D;" d="M590.84,173.499c-0.045-0.797-0.188-1.592-0.464-2.342c-0.216-0.586-0.622-1.657-1.219-1.93
					c-0.349-0.159-0.742,0.028-0.758,0.435c-0.016,0.396,0.222,0.706,0.372,1.059c0.151,0.358,0.255,0.756,0.358,1.131
					c0.193,0.705,0.303,1.424,0.3,2.155c-0.002,0.596,0.013,1.518-0.435,1.985c-0.452,0.472-1.26,0.221-1.762-0.015
					c-1.154-0.542-2.856-1.743-3.984-0.472c-0.978,1.102-0.655,3.108-0.155,4.34c0.178,0.439,0.873,0.279,0.731-0.202
					c-0.249-0.84-0.273-1.722-0.059-2.574c0.075-0.297,0.166-0.71,0.487-0.834c0.323-0.125,0.75,0.074,1.034,0.211
					c1.293,0.627,2.647,1.654,4.137,0.923C590.788,176.699,590.915,174.827,590.84,173.499z"/>
				<g>
					<path style="fill:#611B20;" d="M615.179,166.062c-0.063-0.729-0.477-1.272-0.842-1.883c-0.379-0.633-0.833-1.172-1.357-1.694
						c-1.054-1.049-2.275-1.925-3.601-2.594c-1.297-0.655-2.674-1.143-4.11-1.378c-0.714-0.117-1.44-0.203-2.164-0.178
						c-0.656,0.023-1.517-0.025-2.005,0.476c-0.274,0.282-0.187,0.666,0.104,0.886c0.473,0.356,1.228,0.256,1.793,0.32
						c0.633,0.072,1.263,0.164,1.884,0.305c1.243,0.282,2.455,0.714,3.577,1.32c1.09,0.588,2.109,1.317,3.009,2.167
						c0.469,0.443,0.89,0.931,1.348,1.381c0.477,0.469,0.77,1.075,1.327,1.46C614.554,166.935,615.223,166.572,615.179,166.062z"/>
					<path style="fill:#611B20;" d="M576.445,161.209c0.158-0.69,0.515-1.11,0.852-1.609c0.349-0.516,0.733-0.923,1.159-1.295
						c0.857-0.748,1.796-1.286,2.771-1.599c0.953-0.305,1.932-0.43,2.909-0.293c0.486,0.068,0.974,0.168,1.445,0.376
						c0.425,0.188,0.996,0.359,1.235,0.968c0.134,0.343,0.016,0.692-0.21,0.83c-0.366,0.225-0.845-0.063-1.224-0.144
						c-0.425-0.09-0.852-0.16-1.281-0.181c-0.858-0.042-1.721,0.07-2.551,0.372c-0.807,0.293-1.59,0.74-2.316,1.335
						c-0.377,0.31-0.732,0.676-1.103,0.995c-0.388,0.333-0.676,0.845-1.102,1.077C576.715,162.211,576.335,161.691,576.445,161.209z
						"/>
				</g>
			</g>
		</g>
	</g>
	<g>
		<g>
			<path style="fill:#FCA4C2;" d="M127.045,226.701c-1.513-2.127-20.986-5.766-40.185-4.935
				c-19.199,0.83-24.166,15.888-25.005,28.217c-0.839,12.329-5.806,41.207,0,45.923c5.806,4.716,57.839,8.595,64.573,3.44
				C133.164,294.19,138.198,242.381,127.045,226.701z"/>
			<path style="opacity:0.55;fill:#FCA4C2;" d="M76.689,223.966c1.366,0.943,2.525,2.203,3.403,3.67
				c2.073,3.461,2.562,7.505,2.674,11.464c0.258,9.108,0.023,18.289-0.487,27.384c-0.263,4.687-0.686,9.36-1.283,14.016
				c-0.36,2.804-0.777,5.589-1.51,8.324c-0.712,2.659-1.708,5.209-3.439,7.38c-0.995,1.248-2.24,2.159-3.627,2.78
				c-5.282-0.909-9.199-1.971-10.564-3.079c-5.806-4.716-0.839-33.594,0-45.923C62.521,240.205,65.791,228.718,76.689,223.966z"/>
		</g>
		<ellipse style="fill:#E0ECFF;" cx="121.267" cy="415.037" rx="70.066" ry="8.103"/>
		<g>
			<g>
				<path d="M160.934,290.37c0.02,20.95-0.97,41.03-2.2,49.68c-0.99,6.91-2.18,16.69-3.31,26.49c-0.03,0.2-0.05,0.4-0.07,0.6
					c-2.09,18.06-3.97,36-3.97,36h-23.18c0.04-6.88,0.51-20.94,1.01-35.87c0.01-0.25,0.02-0.49,0.03-0.73
					c0.83-24.79,1.71-51.67,0.79-51.85c-0.26-0.05-0.52-0.09-0.81-0.11h-0.01c-0.14-0.01-0.3-0.02-0.45-0.02c-0.01,0-0.01,0-0.02,0
					c-1.13,0-2.54,0.31-4.47,1.26h-0.01c-0.25,0.13-0.5,0.26-0.77,0.41c-0.01,0-0.01,0-0.02,0.02h-0.01c-0.01,0-0.02,0-0.03,0.01
					c-0.07,0.04-0.15,0.1-0.22,0.18c-0.01,0-0.01,0.01-0.01,0.01c-0.03,0.03-0.05,0.06-0.09,0.1c-0.01,0-0.01,0.01-0.01,0.02
					c-2.43,3.15-7.38,26.65-11.56,48.38c-0.02,0.15-0.05,0.3-0.08,0.45c-3.78,19.67-6.9,37.74-6.9,37.74h-22.96
					c0.82-7.83,2.67-21.96,4.79-37.48c0.03-0.22,0.06-0.45,0.09-0.68c3.97-29.09,8.8-62.84,9.4-69.27c0.1-1.07,0.14-2.65,0.14-4.62
					c0.88,0.11,1.76,0.21,2.64,0.29c0.23,0.03,0.45,0.06,0.68,0.07c0.38,0.05,0.76,0.08,1.15,0.12c0.23,0.03,0.46,0.05,0.7,0.07
					c11,1.06,22.13,1.32,33.16,1.06c6.58-0.16,13.17-0.63,19.7-1.47C156.314,290.94,158.634,290.71,160.934,290.37z"/>
				<g>
					<path style="fill:#424094;" d="M99.344,291.45c-0.38,3.2-0.76,6.39-1.15,9.58c-2.16,17.74-4.4,35.46-6.72,53.18
						c-2.13,16.32-4.29,32.64-6.63,48.93h-0.45c1.14-8.62,2.3-17.24,3.45-25.85c2.36-17.71,4.64-35.43,6.84-53.16
						c1.11-8.86,2.19-17.72,3.26-26.59c0.25-2.05,0.48-4.11,0.72-6.16C98.894,291.41,99.114,291.44,99.344,291.45z"/>
					<path style="fill:#424094;" d="M123.154,316.49c0.02-0.01,0.03-0.03,0.05-0.04c-0.03,0.03-0.05,0.06-0.09,0.1
						C123.114,316.52,123.134,316.5,123.154,316.49z"/>
					<path style="fill:#424094;" d="M141.094,312.43c-2.64,0.44-5.3,0.66-7.94,1.11c1.24,6.77,1.58,13.72,1.63,20.59
						c0.09,12.63-0.97,25.24-1.62,37.85c-0.33,6.41-0.54,12.81-0.67,19.22c-0.07,3.19-0.14,6.38-0.16,9.56c0,0.79,0,1.59,0.01,2.38
						h-0.74c0-1.21,0-2.42-0.01-3.62c-0.03-3.56-0.05-7.11,0.01-10.67c0.23-12.7,1.14-25.34,1.79-38.01
						c0.33-6.31,0.52-12.61,0.45-18.92c-0.06-6.12-0.52-12.21-1.12-18.3c-0.26,0.04-0.53,0.08-0.79,0.14
						c-1.07,0.21-2.13,0.48-3.17,0.8c-0.01,0-0.01,0-0.02,0c-1.13,0-2.54,0.31-4.47,1.26h-0.01c-0.25,0.13-0.5,0.26-0.77,0.41
						c1.07-0.8,2.42-1.32,3.65-1.78c1.46-0.56,2.97-0.98,4.5-1.32c3.07-0.67,6.26-1.07,9.4-1.05
						C141.244,312.08,141.294,312.4,141.094,312.43z"/>
				</g>
			</g>
			<g>
				<path style="fill:#CF1E58;" d="M151.785,402.067c-0.822-0.392-22.659-0.036-23.718,0.259c-1.059,0.295-3.287,9.73-2.099,11.794
					c1.04,1.808,31.572,0.449,39.147,0.084c0.888-0.043,1.454-0.98,1.057-1.776c-0.807-1.616-2.739-3.866-6.407-6.269
					C153.766,402.229,151.785,402.067,151.785,402.067z"/>
				<path style="fill:#FFD9C4;" d="M152.057,413.935c1.212-3.441,3.24-6.482,5.844-8.955c0.575,0.351,1.189,0.738,1.862,1.179
					c3.668,2.403,5.601,4.654,6.407,6.269c0.397,0.795-0.169,1.733-1.057,1.776c-2.532,0.122-7.635,0.355-13.34,0.544
					C151.869,414.477,151.962,414.206,152.057,413.935z"/>
				<path d="M165.859,411.872c-0.148,0.016-0.294,0.037-0.442,0.053c-7.737,0.828-15.499,1.344-23.282,1.306
					c-3.557-0.017-7.115,0.074-10.67-0.061c-1.932-0.073-3.882-0.195-5.81-0.451c0.039,0.593,0.133,1.089,0.313,1.402
					c1.04,1.808,31.572,0.449,39.147,0.084c0.888-0.043,1.454-0.98,1.057-1.776C166.083,412.251,165.975,412.064,165.859,411.872z"
					/>
			</g>
			<g>
				<path style="fill:#CF1E58;" d="M104.851,402.067c-0.822-0.392-22.659-0.036-23.718,0.259c-1.059,0.295-3.287,9.73-2.099,11.794
					c1.04,1.808,31.572,0.449,39.147,0.084c0.888-0.043,1.454-0.98,1.057-1.776c-0.806-1.616-2.739-3.866-6.407-6.269
					C106.831,402.229,104.851,402.067,104.851,402.067z"/>
				<path style="fill:#FFD9C4;" d="M104.673,410.675c1.198-2.363,2.839-4.702,4.881-6.53c0.928,0.528,2.007,1.182,3.275,2.014
					c3.668,2.403,5.601,4.654,6.407,6.269c0.397,0.795-0.169,1.733-1.057,1.776c-2.789,0.135-8.694,0.404-15.091,0.6
					C103.481,413.378,104.008,411.987,104.673,410.675z"/>
				<path d="M117.78,412.791c-7.552,0.691-15.147,1.002-22.73,0.81c-5.449-0.137-11.001-0.559-16.345-1.785
					c-0.024,1.008,0.064,1.844,0.329,2.304c1.04,1.808,31.573,0.449,39.147,0.084c0.81-0.039,1.343-0.822,1.13-1.563
					C118.8,412.691,118.29,412.744,117.78,412.791z"/>
			</g>
		</g>
		<g>
			<g>
				<path style="fill:#E0ECFF;" d="M90.482,300.469c5.35,0.66,41.49,4.97,74.02-1.91c-0.01-2.99-0.09-6.12-0.23-9.33
					c-0.13-3.25-0.33-6.59-0.58-9.95c-0.28-3.69-0.61-7.4-1-11.05c-0.43-4.07-0.93-8.06-1.47-11.86c-0.56-3.89-1.16-7.59-1.8-10.97
					c-0.68-3.6-1.4-6.85-2.13-9.59c-1.01-3.78-2.06-6.59-3.09-8.07c-0.44-0.64-1.89-1.44-4.02-2.29c-6.9-2.75-21.01-5.99-31.65-5.74
					c-12.25,0.29-21.02,2.65-23.74,5.51c-0.38,0.39-0.64,0.79-0.78,1.19c-0.25,0.72-0.63,4.76-1.05,10.67
					c-0.19,2.68-0.39,5.76-0.58,9.09c-0.23,3.76-0.45,7.84-0.66,12.05c-0.18,3.68-0.36,7.45-0.51,11.19
					c-0.18,4.13-0.34,8.22-0.46,12.08c-0.1,3.23-0.18,6.3-0.23,9.12C90.452,294.459,90.432,297.829,90.482,300.469z"/>
			</g>
			<g>
				<path style="fill:#CF1E58;" d="M153.796,225.367c-0.923-0.981-5.172-2.411-10.796-3.7c-0.216-0.056-0.451-0.104-0.677-0.16
					c-7.322-1.638-16.773-3.01-24.3-2.899c-2.719,0.042-5.28,0.242-7.646,0.571c-0.295,0.035-0.589,0.08-0.874,0.134
					c-9.088,1.384-15.193,4.551-16.321,6.747c-1.492,2.895-6.354,67.933-8.66,80.773c-0.157,0.865-0.402,2.098-0.717,3.663
					c8.627,1.193,21.37,1.806,30.163,2.143c4.516,0.173,9.063,0.29,13.612,0.313c-0.022-1.028,0.053-2.06,0.13-3.086
					c0.327-4.359,0.595-17.962,0.398-22.335c-0.195-4.337-0.629-8.676-1.277-12.975c-0.644-4.279-1.489-8.53-2.426-12.762
					c-0.929-4.196-1.904-8.384-3.065-12.53c-1.169-4.175-2.48-8.314-3.8-12.449c-0.523-1.636-1.048-3.24-1.733-4.824
					c-0.619-1.429-1.254-2.885-1.477-4.423c-0.195-1.34,0.024-2.61,0.893-3.705c0.693-0.874,1.632-1.507,2.704-1.916
					c2.394-0.915,5.15-0.743,7.657-0.383c2.666,0.383,5.271,1.089,7.831,1.88c2.578,0.796,5.055,1.724,7.16,3.387
					c4.612,3.643,5.621,9.562,6.267,14.863c1.047,8.599,1.019,17.264,0.722,25.896c-0.302,8.775-0.91,26.743-1.58,35.498
					c-0.239,3.12-0.472,6.24-0.704,9.36c5.532-0.376,17.292-1.51,21.659-3.58C165.809,268.383,160.175,232.086,153.796,225.367z"/>
			</g>
			<g>
				<defs>
					<path id="XMLID_10_" d="M140.816,213.367l-2.366,11.344c0,0-2.094,4.061-13.323,1.737c-10.695-2.213-9.946-7.695-9.946-7.695
						l2.063-9.008L140.816,213.367z"/>
				</defs>
				<use xlink:href="#XMLID_10_"  style="overflow:visible;fill:#FFBB9A;"/>
				<clipPath id="XMLID_00000170272453851099452400000015301970245741953970_">
					<use xlink:href="#XMLID_10_"  style="overflow:visible;"/>
				</clipPath>
				<path style="clip-path:url(#XMLID_00000170272453851099452400000015301970245741953970_);fill:#B22E2E;" d="M137.019,221.254
					c-2.887,0.495-5.904,0.251-8.821-0.215c-3.563-0.569-7.109-1.486-10.161-3.151c-3.052-1.665-5.584-4.142-6.519-7.068
					c-0.317-0.993-0.425-2.117,0.236-2.968c0.604-0.778,1.72-1.159,2.805-1.379c2.031-0.411,4.16-0.405,6.256-0.276
					c6.351,0.392,12.552,1.892,18.609,3.604c1.476,0.417,3.063,0.921,3.893,2.025c1.041,1.385,1.438,4.417,0.542,5.924
					C142.702,219.693,139.409,220.844,137.019,221.254z"/>
			</g>
			<g>
				<path style="fill:#ACCEFF;" d="M110.277,222.4c-0.439-0.947,2.743-8.917,5.395-6.902c2.652,2.016,8.953,9.625,19.936,8.844
					c2.56-0.182,3.541-3.202,4.037-4.521c0.101-0.269,0.448-0.312,0.584-0.069c0.901,1.605,2.724,5.74,2.754,6.761
					c0.051,1.732-1.434,7.672-2.445,7.803c-1.012,0.132-5.169-6.229-5.169-6.229s-4.357,8.103-5.756,7.688
					C127.316,235.097,116.013,234.789,110.277,222.4z"/>
				<path style="fill:#E0ECFF;" d="M109.697,221.07c-0.446-0.945,2.792-8.932,5.491-6.93c2.699,2.001,9.111,9.577,20.289,8.738
					c2.605-0.195,3.604-3.22,4.109-4.543c0.103-0.27,0.456-0.314,0.595-0.072c0.917,1.6,2.772,5.725,2.803,6.747
					c0.052,1.732-1.459,7.679-2.489,7.816c-1.03,0.137-5.261-6.201-5.261-6.201s-4.435,8.126-5.858,7.719
					C127.038,233.676,115.534,233.428,109.697,221.07z"/>
			</g>
			<g>
				<path style="fill:#7636D8;" d="M135.408,226.917c-1.164,0.066-4.719,6.705-4.212,7.411s2.934,2.431,5.171,2.175
					c2.237-0.256,3.727-2.068,3.653-2.695C139.945,233.18,137.644,226.79,135.408,226.917z"/>
				<path style="fill:#7636D8;" d="M135.035,230.678c0.28,3.056-1.325,5.922-2.685,8.672c-1.648,3.333-3.019,6.867-3.356,10.569
					c-0.338,3.702,0.447,7.613,2.744,10.537c1.77-0.66,3.772-1.134,5.655-1.284c-1.899-1.913-6.161-9.057-2.214-18.144
					c-0.289,3.814,0,8.576,2.584,13.989c0.528,1.107,1.127,2.185,1.539,3.34c0.412,1.155,0.619,2.426,0.3,3.61
					c2.221-0.808,4.157-2.106,5.413-4.108c0.931-1.484-0.612-3.29-1.659-4.694c-1.047-1.404-2.34-2.621-3.294-4.09
					c-2.117-3.26-2.338-7.363-2.374-11.25c-0.02-2.195-0.028-4.498-1.082-6.424C136.307,230.859,135.599,230.426,135.035,230.678z"
					/>
			</g>
			<path style="fill:#611B20;" d="M109.706,219.723c0.22-0.031,0.37,0.155,0.537,0.392c8.652,12.318,8.946,28.849,6.112,41.545
				c-2.63,11.779-11.892,22.497-19.804,27.825c-0.916,0.617-2.214,0.391-2.789-0.652c-0.688-1.248,0.004-2.866,0.772-4.066
				c2.121-3.313,9.8-13.21,11.574-26.092c1.821-13.225-1.163-24.672-6.161-35.037c-0.221-0.458-0.09-0.754,0.259-0.975
				C102.502,221.211,107.256,220.067,109.706,219.723z"/>
			<path style="fill:#611B20;" d="M154.535,224.773c0.957,0.661,5.049,5.102,7.775,12.651c7.236,20.034,4.797,40.201,4.514,41.427
				c-0.383,1.654-1.819,1.338-2.077-0.816c-2.797-23.308-7.747-36.64-10.958-42.935c-1.438-2.82-3.109-5.484-5.028-7.936
				c-0.974-1.244-2.011-2.423-3.03-3.623c-0.317-0.373-1.26-1.17-1.206-1.779C144.639,220.472,153.577,224.112,154.535,224.773z"/>
		</g>
		<g>
			<path style="fill:#FFBB9A;" d="M160.121,232.434c0.891,1.725,1.302,3.425,0.336,2.766c-0.974-0.664-9.871-7.317-12.742-2.007
				c-0.306,0.566-0.595,1.271-0.861,2.061c-0.157,0.874-0.208,1.758-0.095,2.633c0.169,1.303,0.456,2.457,0.093,3.763
				c-0.305,1.097-0.796,1.858-0.313,2.925c0.392,0.865,0.852,1.659,0.857,2.642c0.007,1.239-0.542,2.217-0.245,3.47
				c0.048,0.204,0.123,0.398,0.19,0.594c0.043,0.029,0.08,0.064,0.123,0.092c0.269,0.175,0.543,0.337,0.817,0.5
				c2.519,1.501,5.612,1.89,8.294,2.813c4.034,1.389,7.596,3.368,10.985,5.422l7.285-12.827
				C168.701,241.954,166.365,232.235,160.121,232.434z"/>
			<path style="fill:#CF1E58;" d="M173.526,241.766c6.026,6.078,19.994,20.819,12.44,29.786c-8.726,10.358-23.98-10.74-23.98-10.74
				L173.526,241.766z"/>
		</g>
		<g>
			<path style="fill:#FFBB9A;" d="M85.316,325.335c0.236,4.289-0.507,15.559,0.808,15.661c1.315,0.103,2.615-7.351,2.615-7.351
				s0.596,12.245,2.374,12.189c1.778-0.056,2.769-11.377,2.769-11.377s1.95,13.004,4.33,12.486
				c2.38-0.518,0.325-13.296,0.325-13.296s2.973,9.718,4.901,8.888c1.928-0.829-0.709-14.447-0.709-14.447s4.794,5.685,6.28,4.526
				c1.485-1.159-7.292-13.27-8.519-15.961c-1.228-2.691-2.751-9.464-2.751-9.464l-14.231,3.926
				C83.507,311.116,85.08,321.045,85.316,325.335z"/>
			<path style="fill:#CF1E58;" d="M100.618,255.206c3.988-13.452,0.898-25.687-0.925-30.556c-0.508-1.358-2.096-1.951-3.383-1.285
				c-4.816,2.495-10.254,8.464-13.06,13.768c-3.963,7.49-6.35,15.727-7.715,24.076c-2.327,14.236-2.747,37.107,6.241,57.72
				c2.775-1.054,18.433-4.853,19.377-5.499C94.85,286.536,95.141,270.237,100.618,255.206z"/>
			<path style="fill:#611B20;" d="M101.154,313.432c-1.362-4.908-2.499-9.881-3.378-14.908c-0.88-5.026-1.43-10.116-1.642-15.227
				c-0.133-5.11,0.086-10.249,0.92-15.301l0.733-3.766l0.94-3.716l1.189-3.641l1.417-3.551c-1.671,4.812-2.853,9.767-3.518,14.787
				c-0.669,5.019-0.892,10.094-0.683,15.155c0.127,5.066,0.687,10.114,1.4,15.14C99.249,303.431,100.194,308.43,101.154,313.432z"/>
		</g>
		<g>
			<path d="M155.969,123.517c6.391,4.231,17.858,18.212,17.502,49.659c-0.357,31.447,11.892,48.547,11.892,48.547
				s-58.034-2.984-77.893-18.822s-20.903-56.727-1.193-75.136C124.33,110.902,147.467,117.888,155.969,123.517z"/>
			<g>
				<path style="fill:#FFBB9A;" d="M163.156,207.226c-4.83,5.444-12.548,9.316-24.653,11.004c-1.123,0.161-2.283,0.294-3.483,0.416
					c-16.086,1.596-30.691-6.103-39.062-19.25c-3.893-6.111-6.452-13.418-7.181-21.544c-2.371-26.505,15.876-50.882,40.748-53.51
					c24.773-2.627,38.481,14.839,40.699,44.781c0.344,4.632,0.564,9.111,0.496,13.336
					C170.564,192.301,168.804,200.863,163.156,207.226z"/>
				<g>
					<path style="fill:#FF5560;" d="M128.844,153.391c-0.008-0.014-0.01-0.027-0.018-0.041
						C128.779,153.278,128.759,153.248,128.844,153.391z"/>
				</g>
				<path style="fill:#FFBB9A;" d="M77.24,176.167c-1.57,0.901-2.852,2.344-3.6,4.489c-0.822,2.359-0.665,4.868-0.058,7.121
					c1.309,4.863,4.696,8.739,9.106,10.729c3.66,1.651,9.758,2.831,13.102-1.259c1.486-1.818,1.671-4.287,1.453-6.472
					c-0.475-4.758-1.867-10.491-5.782-13.121C87.981,175.317,81.549,173.693,77.24,176.167z"/>
				<path style="fill:#C4311D;" d="M90.647,189.234c-0.591-1.564-1.27-2.972-2.434-4.199c-1.159-1.221-2.532-2.215-4.078-2.887
					c-1.618-0.703-3.494-1-5.217-0.459c-0.762,0.239-1.476,0.613-2.07,1.162c-0.543,0.502-1.284,1.419-1.094,2.202
					c0.112,0.461,0.558,0.72,1.006,0.525c0.534-0.233,0.857-0.858,1.303-1.239c0.451-0.387,1.016-0.691,1.582-0.858
					c0.35-0.104,0.706-0.157,1.062-0.175c-0.545,0.997-0.796,2.125-0.668,3.283c0.077,0.697,0.293,1.4,0.618,2.015
					c0.179,0.339,0.402,0.659,0.653,0.947c0.113,0.13,0.233,0.255,0.36,0.372c0.205,0.19,0.408,0.247,0.677,0.301
					c0.379,0.075,0.791-0.379,0.688-0.754c-0.05-0.182-0.089-0.357-0.201-0.513c-0.092-0.128-0.203-0.242-0.299-0.367
					c-0.153-0.2-0.279-0.41-0.401-0.631c-0.278-0.503-0.468-1.029-0.548-1.604c-0.137-0.983,0.054-2.044,0.521-2.938
					c0.684,0.135,1.351,0.371,1.972,0.661c2.336,1.088,4.567,3.23,5.668,5.585C90.018,190.242,90.872,189.828,90.647,189.234z"/>
				<g style="opacity:0.2;">
					<path style="fill:#EC372F;" d="M139.044,216.775c-0.152,0.496-0.334,0.981-0.54,1.455c-1.123,0.161-2.283,0.294-3.483,0.416
						c-16.086,1.596-30.691-6.103-39.062-19.25c0.499-1.031,1.126-2.001,1.853-2.888c3.342-4.046,8.571-6.241,13.719-6.511
						c5.142-0.27,10.177,1.236,14.653,3.555c4.292,2.227,8.219,5.273,10.758,9.34C139.464,206.942,140.493,212.079,139.044,216.775z
						"/>
					<path style="fill:#EC372F;" d="M163.156,207.226c0.233-4.293,0.673-8.611,1.808-12.86c1.125-4.224,3.01-8.42,5.757-11.908
						C170.564,192.301,168.804,200.863,163.156,207.226z"/>
				</g>
				<g>
					<g>
						<path style="fill:#FFFFFF;" d="M139.57,185.486c1.795-2.017,4.447,0.233,9.753,0.392c4.941,0.148,7.122-1.811,8.65-0.572
							c2.238,1.815,0.082,8.976-8.383,9.536C141.554,195.375,137.121,188.238,139.57,185.486z"/>
					</g>
					<g>
						<path d="M137.494,174.267c0.082,2.351-1.089,4.301-2.616,4.354c-1.527,0.054-2.832-1.809-2.914-4.16
							c-0.083-2.351,1.088-4.301,2.615-4.354C136.107,170.053,137.411,171.915,137.494,174.267z"/>
						<path d="M163.153,172.941c0.069,1.97-0.863,3.602-2.083,3.645c-1.22,0.043-2.264-1.52-2.334-3.49
							c-0.069-1.97,0.864-3.602,2.083-3.645C162.039,169.408,163.084,170.97,163.153,172.941z"/>
					</g>
					<g>
						<path d="M141.875,158.538c-0.007-0.009-0.013-0.018-0.02-0.027c-0.186-0.237-0.458-0.39-0.735-0.507
							c-0.938-0.395-1.896-0.598-2.913-0.659c-1.223-0.073-2.459,0.088-3.633,0.436c-1.864,0.552-3.565,1.771-4.494,3.479
							c-0.43,0.79-0.047,0.905,0.648,0.68c1.829-0.592,3.727-0.97,5.643-1.126c1.098-0.089,2.2,0.121,3.299,0.012
							c0.53-0.053,1.073-0.174,1.523-0.473C141.755,159.978,142.354,159.191,141.875,158.538z"/>
					</g>
					<path d="M164.385,160.087c-0.678-1.675-1.92-2.832-3.28-3.318c-0.932-0.333-1.956-0.416-2.928-0.231
						c-0.709,0.135-1.502,0.366-2.059,0.849c-0.237,0.206-0.424,0.486-0.458,0.798c-0.102,0.938,0.868,1.621,1.685,1.735
						c0.817,0.114,1.631-0.105,2.449-0.054c1.399,0.087,2.784,0.398,4.119,0.924C164.419,160.99,164.699,160.861,164.385,160.087z"
						/>
					<path style="fill:#C4311D;" d="M155.293,176.794c-0.779,0.032-1.558,0.172-2.333,0.25c-0.391,0.039-0.535,0.025-0.633-0.382
						c-0.092-0.379-0.115-0.778-0.137-1.166c-0.094-1.701,0.221-3.38,0.209-5.074c-0.003-0.389-0.518-0.422-0.645-0.087
						c-0.534,1.407-0.832,2.993-0.857,4.499c-0.018,1.086-0.068,3.084,1.27,3.459c0.65,0.182,1.43-0.055,2.081-0.148
						c0.447-0.064,1.457-0.378,1.866-0.06c0.462,0.36-0.172,1.527-0.363,1.917c-0.33,0.675-0.753,1.291-1.251,1.852
						c-0.351,0.396,0.207,0.968,0.586,0.586c0.946-0.954,1.874-2.219,2.186-3.55C157.591,177.527,156.574,176.74,155.293,176.794z"
						/>
				</g>
				<path d="M173.022,152.359c-9.296-2.687-21.719-3.279-30.409-2.149c-1.24,0.16-2.48,0.35-3.71,0.57
					c-0.01-0.82,0.05-1.61,0.1-2.27c0.18-3.03-0.19-6.08-1.05-8.98c0.28,1.96,0.31,3.96,0.09,5.93c-0.21,1.85-0.66,3.63-1.36,5.35
					c-0.07,0.18-0.34,0.11-0.28-0.08c1.23-3.88,1.55-8.06,0.8-12.08c-0.2-1.07-0.48-2.13-0.82-3.16c-0.21-0.45-0.43-0.89-0.67-1.32
					c1.05,3.52,1.92,12.56-0.53,17.32c-2.17,0.48-4.32,1.04-6.45,1.69c-0.77-1.46-0.59-2.64-0.06-4.18
					c1.37-3.99,2.02-7.89,1.32-12.13c-0.33-2.06-0.96-4.05-1.8-5.94c-0.1-0.19-0.19-0.36-0.28-0.53c0.23,1.29,0.54,2.59,0.71,3.92
					c0.24,1.72,0.32,3.45,0.32,5.18c-0.01,3.27-0.53,6.66-1.89,9.61c-1.77,3.87-7.276,7.761-15.054,9.025
					c-7.03,20.9-0.093,51.944,9.924,63.395c-6.53-0.99-13.05-1.98-19.58-2.97c-11.79-1.79-24.7-3.41-34.23-10.58
					c-6.77-16.85-9.99-48.07,3.87-71.1c3.81-6.36,8.92-12.09,15.62-16.71c0.33-0.24,0.66-0.46,0.99-0.68
					c12.77-8.43,28.92-11.15,43.98-8.28c0.2,0.03,0.39,0.07,0.59,0.11c6.28,1.23,12.38,3.48,17.97,6.7
					c0.82,0.46,1.522,1.175,2.42,1.47C174.14,126.262,176.57,148.166,173.022,152.359z"/>
				<path style="opacity:0.49;fill:#7636D8;" d="M158.133,127.7c-0.42,2.18-3.43,2.5-5.54,2.03c-6.9-1.62-12.96-5.74-19.86-7.12
					c-2.93-0.58-6.26-0.58-8.63,1.32c-2.41,1.9-4.04,5.69-7.05,5.41c-1.04-0.11-1.93-0.74-2.97-0.87c-2.16-0.31-4.12,1.63-4.9,3.74
					c-0.81,2.08-0.84,4.37-1.4,6.53c-1.04,3.94-3.96,7.29-7.65,8.79c-2.46,1-5.54,1.07-7.44-0.81c-2.83-2.77-1.63-8.11-4.39-10.95
					c-2.3-2.37-6.25-1.75-9.12-0.21c-2.11,1.13-4.49,2.72-6.64,1.68c-0.2-0.1-0.39-0.22-0.56-0.36c3.81-6.36,8.92-12.09,15.62-16.71
					c2.03,1.64,3.33,4.49,5.87,4.89c1.77,0.27,3.5-0.85,4.82-2.14c1.33-1.3,2.44-2.84,4.02-3.83c3.04-1.87,6.92-1.09,10.16,0.25
					c1.9,0.77,4.32,1.65,5.84,0.17c0.58-0.55,0.87-1.35,1.27-2.02c1.23-2.05,3.69-3.23,5.98-2.86c1.39,0.21,2.68,0.96,4.08,1.08
					c3.61,0.29,2.61-2.41,2.93-4.5c0.2,0.03,0.39,0.07,0.59,0.11c6.28,1.23,12.38,3.48,17.97,6.7c0.82,0.46,1.63,0.95,2.42,1.47
					c1.48,1.68,2.77,3.53,3.87,5.51C157.893,125.83,158.343,126.75,158.133,127.7z"/>
			</g>
		</g>
	</g>
	<g>
		<g>
			<g>
				<path style="fill:#CF1E58;" d="M370.289,369.73c-0.38,0.17-2.79,0.96-6.22,2.03c-5.87,1.85-14.73,4.55-21.62,6.58
					c-5.31,1.57-9.45,2.73-10.16,2.79h-0.04c-2.21,0.16-8.93-1.45-11.31-3.37c-2.39-1.93-5.9-37.18-4.42-39.5
					c0.02-0.04,0.04-0.06,0.07-0.09c2.49-2.95,37.45-9.84,39.83-9.67c2.4,0.16,9.2,1.23,10.75,3.24c0.02,0.02,0.04,0.06,0.07,0.1
					c0.25,0.47,0.55,1.8,0.85,3.69l0.01,0.01C369.669,345.12,371.569,369.14,370.289,369.73z"/>
				<path style="fill:#7636D8;" d="M364.069,371.76c-5.87,1.85-14.73,4.55-21.62,6.58c-0.69-7-2.36-24.78-1.77-25.89
					c0.73-1.39,18.62-7.14,19.93-5.69C361.549,347.82,363.219,363.27,364.069,371.76z"/>
				<path style="opacity:0.71;fill:#CF1E58;" d="M367.489,332.54c-2.28,0.42-4.55,0.87-6.81,1.35c-4.17,0.89-8.36,1.76-12.48,2.78
					c-4.04,0.99-7.96,2.25-11.91,3.44c-2.02,0.61-4.32,1.17-6.25,2.17c-0.05-0.23-0.09-0.4-0.13-0.5
					c-0.49-1.25-10.42-3.95-13.32-3.61c2.49-2.95,37.45-9.84,39.83-9.67c2.4,0.16,9.2,1.23,10.75,3.24c0.02,0.02,0.04,0.06,0.07,0.1
					C367.319,331.99,367.399,332.23,367.489,332.54z"/>
				<path style="fill:#CF1E58;" d="M332.253,381.125c-2.212,0.164-8.932-1.447-11.309-3.367c-2.395-1.929-5.906-37.181-4.425-39.501
					c0.018-0.032,0.037-0.056,0.073-0.088c2.898-0.336,12.827,2.365,13.321,3.608C330.707,343.812,332.006,374.669,332.253,381.125z
					"/>
				<path style="fill:#7636D8;" d="M351.516,320.332c-2.764-1.2-7.63,0.132-12.357,1.057c-4.571,0.894-9.567,2.125-11.202,4.031
					c-1.636,1.905,0.039,11.38,0.621,11.703c1.264,0.702,4.408,0.409,5.098-0.606c0.436-0.642-1.291-6.45-0.466-7.603
					c0.825-1.153,5.304-2.435,7.243-2.822c1.939-0.386,7.007-1.672,7.604-0.802c0.598,0.87,0.609,5.424,0.847,6.048
					c0.238,0.624,2.621,1.774,5.035,0.472C354.513,331.502,353.571,321.225,351.516,320.332z"/>
			</g>
			<g>
				<path style="fill:#B24D39;" d="M329.666,324.935c2.854-1.923,2.453-2.021,2.698-0.977c0.246,1.044,2.08,10.574,6.778,8.94
					c0.505-0.176,1.08-0.449,1.69-0.789c0.595-0.458,1.135-0.986,1.572-1.609c0.656-0.933,1.158-1.847,2.146-2.475
					c0.834-0.53,1.584-0.729,1.931-1.723c0.284-0.812,0.484-1.623,1.078-2.284c0.752-0.838,1.686-1.156,2.28-2.194
					c0.097-0.17,0.173-0.349,0.254-0.526c-0.008-0.047-0.009-0.095-0.017-0.141c-0.055-0.291-0.121-0.577-0.186-0.864
					c-0.607-2.673-2.288-4.982-3.398-7.443c-1.707-3.784-2.773-7.792-3.704-11.849l-14.348,5.299
					C331.901,314.203,325.517,321.2,329.666,324.935z"/>
				<path style="fill:#E0ECFF;" d="M328.629,317.845c0,0-0.401-1.932-1.112-5.286c-0.036-0.155-0.064-0.31-0.1-0.474
					c-1.476-6.917-4.165-19.357-7.4-33.291c-4.939-21.271-10.954-27.149-11.273-36.918c-0.319-9.779,5.24-23.23,11.738-15.411
					c5.313,6.388,20.487,42.331,27.176,81.947c0.046,0.246,0.082,0.492,0.128,0.738c0.21,1.294,0.419,2.588,0.611,3.882
					C348.888,316.314,334.525,317.991,328.629,317.845z"/>
				<path style="fill:#ACCEFF;" d="M347.785,309.151c-6.507,2.023-13.415,3.308-20.268,3.408c-0.036-0.155-0.064-0.31-0.1-0.474
					c1.175-0.064,2.351-0.137,3.536-0.246c4.119-0.383,8.202-1.085,12.212-2.105c1.522-0.383,3.017-0.838,4.493-1.321
					C347.703,308.659,347.74,308.905,347.785,309.151z"/>
			</g>
		</g>
		<g>
			<path style="fill:#7636D8;" d="M299.932,219.918c-1.513-2.127-20.986-5.766-40.185-4.935
				c-19.198,0.83-24.166,15.888-25.005,28.217c-0.839,12.329-5.806,41.207,0,45.922c5.806,4.716,57.839,8.595,64.573,3.44
				S311.085,235.598,299.932,219.918z"/>
			<path style="fill:#7636D8;" d="M249.576,217.183c1.366,0.943,2.525,2.204,3.403,3.67c2.073,3.461,2.561,7.505,2.674,11.464
				c0.258,9.108,0.023,18.289-0.487,27.384c-0.263,4.687-0.686,9.36-1.283,14.016c-0.359,2.804-0.777,5.589-1.51,8.324
				c-0.712,2.659-1.708,5.209-3.439,7.38c-0.995,1.249-2.24,2.159-3.627,2.78c-5.282-0.909-9.2-1.971-10.564-3.079
				c-5.806-4.716-0.839-33.593,0-45.922C235.408,233.422,238.678,221.935,249.576,217.183z"/>
		</g>
		<ellipse style="fill:#E0ECFF;" cx="286.275" cy="415.037" rx="70.066" ry="8.103"/>
		<g>
			<g>
				<path style="fill:#B24D39;" d="M261.294,301.335c13.379,1.539,26.906,1.704,40.348,0.968c7.792-0.427,15.785-1.245,23.416-3.237
					c-0.213,17.637-1.093,33.543-2.152,40.978c-2.819,19.784-7.347,63.099-7.347,63.099h-23.189
					c0.114-18.387,3.309-88.162,1.839-88.453c-1.471-0.29-3.374-0.203-6.607,1.565c-4.28,2.341-18.863,86.887-18.863,86.887h-22.963
					c2.098-20.14,11.065-81.806,13.643-102.028C260.045,301.189,260.671,301.263,261.294,301.335z"/>
				<path style="fill:#C4311D;" d="M294.209,314.691c0.632,0.125,0.403,13.066-0.073,29.248c2.967-0.034,5.934-0.059,8.901-0.102
					c6.522-0.095,13.057-0.38,19.521-1.288c0.118-0.867,0.235-1.709,0.348-2.505c1.059-7.435,1.939-23.341,2.152-40.978
					c-7.632,1.992-15.624,2.811-23.416,3.237c-13.442,0.736-26.969,0.571-40.348-0.968c-0.623-0.072-1.249-0.146-1.874-0.22
					c-1.086,8.512-3.303,24.368-5.663,41.378c0.388,0.096,0.774,0.197,1.164,0.286c5.427,1.248,10.983,1.985,16.549,2.173
					c2.762,0.093,5.531,0.049,8.286-0.18c3.19-15.201,6.243-27.638,7.848-28.516C290.835,314.488,292.738,314.4,294.209,314.691z"/>
				<path d="M315.958,402.067c-0.821-0.392-22.659-0.036-23.718,0.259c-1.059,0.295-3.287,9.73-2.099,11.794
					c1.04,1.808,31.572,0.449,39.147,0.084c0.888-0.043,1.454-0.98,1.057-1.776c-0.807-1.616-2.739-3.866-6.407-6.269
					C317.938,402.229,315.958,402.067,315.958,402.067z"/>
				<path d="M269.023,402.067c-0.822-0.392-22.659-0.036-23.718,0.259c-1.059,0.295-3.287,9.73-2.099,11.794
					c1.04,1.808,31.572,0.449,39.147,0.084c0.888-0.043,1.454-0.98,1.057-1.776c-0.807-1.616-2.739-3.866-6.407-6.269
					C271.004,402.229,269.023,402.067,269.023,402.067z"/>
			</g>
			<g>
				<g>
					<g>
						<path d="M248.023,336.325c0,0,1.263,1.993,5.319,3.643c0.201,0.088,0.411,0.168,0.631,0.247
							c2.669,0.997,6.439,1.808,11.653,1.896c14.102,0.247,22.023-2.117,22.023-2.117s2.918-13.839,4.822-16.291v-0.009
							c0.191-0.247,0.373-0.379,0.545-0.362c0.067,0.009,0.134,0.044,0.182,0.097c1.301,1.393-2.679,16.899-2.679,16.899
							s7.807,1.288,17.909,0.476c10.103-0.82,21.822-2.787,21.822-2.787s0.612-2.972,1.206-14.271
							c0.297-5.795,0-15.047-0.354-22.676c-0.01-0.291-0.029-0.564-0.038-0.847c0-0.009,0-0.009,0-0.009
							c-0.335-6.844-0.698-12.189-0.698-12.189h-1.167c-0.182,0-1.952,0.044-4.831,0.124c-0.22,0-0.45,0.009-0.679,0.009
							c-4.994,0.132-12.849,0.335-21.411,0.564c-0.172,0-0.344,0.009-0.517,0.009c-0.813,0.026-1.626,0.044-2.449,0.07
							c-0.201,0-0.402,0.009-0.603,0.018c-7.099,0.185-14.475,0.379-20.952,0.556c-0.249,0.009-0.498,0.009-0.746,0.018
							c-6.601,0.176-12.198,0.326-15.508,0.415c-0.306,0.009-0.593,0.018-0.861,0.026c-1.521,0.035-2.373,0.062-2.373,0.062
							C256.317,295.073,248.023,336.325,248.023,336.325z"/>
					</g>
					<g>
						<path style="fill:#424094;" d="M253.342,339.968c0.201,0.088,0.411,0.168,0.631,0.247c0.182-1.014,0.335-2.037,0.517-3.034
							c0.383-2.152,0.756-4.304,1.119-6.465c1.139-6.703,2.162-13.424,3.119-20.145c2.775-0.855,5.358-2.152,7.682-3.784
							c6.046-4.242,10.141-10.602,11.347-17.411c-0.249,0.009-0.498,0.009-0.746,0.018c-0.861,4.631-2.975,9.023-6.219,12.648
							c-3.234,3.607-7.386,6.333-12.016,8.203c0.134-0.917,0.277-1.835,0.411-2.761c0.545-3.898,1.062-7.797,1.559-11.695
							c0.258-1.958,0.497-3.907,0.737-5.865c0-0.035,0.01-0.079,0.019-0.115c-0.306,0.009-0.593,0.018-0.861,0.026
							c-0.029,0.247-0.057,0.494-0.086,0.741c-0.268,2.17-0.536,4.339-0.813,6.509c-1.005,7.85-2.105,15.682-3.291,23.506
							c-0.593,3.898-1.205,7.788-1.837,11.678c-0.306,1.94-0.631,3.89-0.947,5.83C253.562,338.715,253.447,339.341,253.342,339.968z
							"/>
						<path style="fill:#424094;" d="M299.101,309.715c-0.019,0.159,0.153,0.256,0.296,0.273c0.928,0.106,1.856,0.212,2.794,0.326
							c0.172,0.018,0.268-0.141,0.287-0.273c0.517-4.145,0.718-8.326,0.574-12.498c-0.096-2.946-0.325-5.901-0.775-8.82
							c-0.172,0-0.344,0.009-0.517,0.009c0.392,2.999,0.689,5.998,0.775,9.023c0.105,4.004-0.105,8.017-0.603,11.995
							c-0.737-0.088-1.483-0.176-2.229-0.265c0.268-2.143,0.45-4.295,0.526-6.456c0.134-3.943-0.057-7.903-0.565-11.819
							c-0.105-0.803-0.22-1.605-0.354-2.408c-0.201,0-0.402,0.009-0.603,0.018C299.857,295.726,300.001,302.773,299.101,309.715z"/>
						<path style="fill:#424094;" d="M323.688,288.158c1.253,4.789,3.808,9.279,7.414,12.913c-0.01-0.291-0.029-0.564-0.038-0.847
							c0-0.009,0-0.009,0-0.009c-0.344-0.353-0.67-0.723-0.985-1.094c-2.621-3.105-4.525-6.712-5.597-10.514
							c-0.038-0.15-0.086-0.309-0.115-0.459C324.148,288.149,323.918,288.158,323.688,288.158z"/>
						<path style="fill:#424094;" d="M291.617,323.675c4.116-1.913,8.628-3.238,13.201-3.818c0.189-0.024,0.279,0.231,0.081,0.272
							c-4.51,0.942-8.875,2.199-13.147,3.842C291.57,324.041,291.441,323.757,291.617,323.675z"/>
					</g>
				</g>
			</g>
		</g>
		<g>
			<g>
				<path style="fill:#E0ECFF;" d="M259.77,291.01c0.508,0.265,1.029,0.506,1.561,0.721c4.83,1.953,10.143,2.296,15.28,2.701
					c5.596,0.441,11.165,1.1,16.777,1.355c5.921,0.27,17.582,0.889,23.341-0.671c3.809-1.031,7.681-2.264,10.938-4.563
					c2.176-1.536,4.042-3.605,4.982-6.098c1.604-4.253,0.211-8.395-0.67-12.605c-0.72-3.438-1.638-6.893-2.262-10.363
					c-0.684-3.8-1.324-7.587-2.168-11.366c-1.311-5.873-2.742-11.775-4.824-17.429c-0.964-2.618-2.045-5.474-3.924-7.593
					c-0.94-1.06-5.27-2.59-11-3.96c-0.22-0.06-0.46-0.11-0.69-0.17c-7.46-1.74-17.09-3.18-24.76-3.02
					c-2.77,0.06-5.38,0.29-7.79,0.66c-0.3,0.04-0.6,0.09-0.89,0.15c-9.26,1.55-15.48,5.02-16.63,7.41
					c-0.929,1.926-5.041,34.345-5.977,55.369c-0.046,1.043,1.036,2.086,1.589,2.875c0.756,1.077,1.481,2.126,2.401,3.076
					C256.425,288.903,258.023,290.099,259.77,291.01z"/>
			</g>
			<g>
				<defs>
					<path id="XMLID_12_" d="M307.85,214.614l-3.075,11.146c0,0-2.419,3.899-14.178,0.764c-11.199-2.986-10.13-8.401-10.13-8.401
						l2.637-8.837L307.85,214.614z"/>
				</defs>
				<use xlink:href="#XMLID_12_"  style="overflow:visible;fill:#B24D39;"/>
				<clipPath id="XMLID_00000118368915059373843940000018120642505988930186_">
					<use xlink:href="#XMLID_12_"  style="overflow:visible;"/>
				</clipPath>
				<path style="clip-path:url(#XMLID_00000118368915059373843940000018120642505988930186_);fill:#C4311D;" d="M303.982,219.926
					c-2.721,0.392-5.529,0.101-8.234-0.392c-3.305-0.602-6.578-1.525-9.356-3.125c-2.778-1.6-5.034-3.936-5.778-6.651
					c-0.252-0.921-0.303-1.959,0.353-2.728c0.599-0.703,1.659-1.029,2.683-1.208c1.916-0.334,3.906-0.281,5.86-0.116
					c5.918,0.501,11.646,2.018,17.232,3.727c1.361,0.416,2.821,0.916,3.548,1.95c0.911,1.298,1.147,4.099,0.242,5.466
					C309.363,218.614,306.235,219.601,303.982,219.926z"/>
			</g>
			<g>
				<path style="fill:#CF1E58;" d="M302.383,233.216c-1.236-0.051-6.458,52.494-5.587,54.375c0.87,1.881,6.111,8.933,8.241,9.168
					c2.13,0.235,6.487-8.601,6.44-10.599C311.43,284.162,305.251,233.333,302.383,233.216z"/>
				<path style="fill:#CF1E58;" d="M301.879,227.154c-1.164,0.066-4.719,6.705-4.212,7.411c0.506,0.705,2.935,2.431,5.171,2.175
					c2.237-0.256,3.727-2.068,3.653-2.695C306.416,233.417,304.116,227.027,301.879,227.154z"/>
			</g>
			<g>
				<path style="fill:#ACCEFF;" d="M277.435,222.567c-0.439-0.947,2.743-8.917,5.395-6.902c2.652,2.016,8.953,9.625,19.936,8.844
					c2.56-0.182,3.541-3.202,4.037-4.521c0.101-0.269,0.448-0.312,0.585-0.069c0.901,1.605,2.724,5.74,2.754,6.762
					c0.051,1.732-1.434,7.672-2.445,7.803c-1.012,0.132-5.169-6.229-5.169-6.229s-4.357,8.103-5.756,7.688
					C294.474,235.264,283.17,234.955,277.435,222.567z"/>
				<path style="fill:#E0ECFF;" d="M276.855,221.236c-0.446-0.945,2.792-8.932,5.491-6.93c2.698,2.002,9.111,9.577,20.289,8.738
					c2.605-0.195,3.604-3.22,4.109-4.543c0.103-0.27,0.456-0.314,0.595-0.072c0.917,1.6,2.772,5.725,2.803,6.747
					c0.052,1.732-1.459,7.679-2.489,7.816c-1.03,0.137-5.261-6.201-5.261-6.201s-4.435,8.126-5.858,7.719
					C294.195,233.842,282.692,233.594,276.855,221.236z"/>
			</g>
			<g>
				<path d="M277.399,217.836c0.221-0.024,0.422,0.096,0.524,0.304c5.559,11.281,5.574,26.015,2.035,39.058
					c-3.644,13.431-12.261,25.531-23.322,32.7c-1.318,0.854-3.021,0.54-3.62-0.897c-0.71-1.702,0.464-3.877,1.657-5.469
					c3.223-4.304,11.677-15.781,15.368-30.015c3.691-14.234,0.117-25.702-2.446-32.321c-0.147-0.379-0.077-0.828,0.291-1.002
					C270.296,219.052,274.934,218.102,277.399,217.836z"/>
				<path d="M315.955,222.255c3.77,1.693,7.059,4.295,9.223,8.184c13.793,24.792,10.709,49.517,9.975,50.511
					c-0.918,1.243-2.326-1.853-2.417-2.373c-4.206-24.075-9.547-37.239-13.241-43.728c-1.655-2.907-3.53-5.655-5.637-8.182
					c-1.069-1.283-2.197-2.498-3.308-3.735c-0.346-0.385-1.35-1.207-1.343-1.834c0.015-1.331,5.023,0.469,5.614,0.691
					C315.207,221.933,315.585,222.088,315.955,222.255z"/>
			</g>
		</g>
		<g>
			<path style="fill:#B24D39;" d="M230.34,317.563c-1.471,4.036-6.587,14.104-5.418,14.717c1.169,0.612,5.295-5.73,5.295-5.73
				s-4.269,11.492-2.612,12.14c1.656,0.648,7.021-9.371,7.021-9.371s-3.322,12.723-0.931,13.183
				c2.391,0.46,5.529-12.096,5.529-12.096s-1.089,10.104,1.009,10.1c2.098-0.004,5.032-13.561,5.032-13.561s2.171,7.113,3.993,6.631
				c1.822-0.482-1.484-15.069-1.554-18.026c-0.07-2.957,1.193-9.783,1.193-9.783l-14.628-1.988
				C234.27,303.779,231.811,313.526,230.34,317.563z"/>
			<path style="fill:#E0ECFF;" d="M269.229,243.56c0.02,10.4-6.36,16.66-10.98,39.3c-3.16,15.51-5.74,29.27-7.05,36.41
				c-0.03,0.19-0.06,0.38-0.1,0.57c-0.53,2.93-0.83,4.59-0.83,4.59c-6.46,0.15-22.28-1.63-21.86-5.13c0.16-1.38,0.34-2.76,0.52-4.13
				c0.05-0.33,0.09-0.65,0.14-0.97c5.85-42.09,21.11-80.25,26.69-87.04C262.609,218.84,269.209,233.16,269.229,243.56z"/>
			<path style="fill:#ACCEFF;" d="M251.199,319.27c-0.03,0.19-0.06,0.38-0.1,0.57c-1.91-0.04-3.82-0.22-5.71-0.46
				c-5.02-0.64-9.95-1.85-14.71-3.56c-0.58-0.21-1.17-0.43-1.75-0.65c0.05-0.33,0.09-0.65,0.14-0.97c3.25,1.33,6.6,2.4,10.02,3.22
				C243.089,318.38,247.119,318.91,251.199,319.27z"/>
			<path style="fill:#ACCEFF;" d="M253.227,308.422c1.076-4.674,2.071-9.363,3.053-14.054c1.003-4.684,1.86-9.409,2.9-14.075
				c1.013-4.674,2.282-9.287,3.752-13.838c1.442-4.56,3.261-9.006,4.647-13.602c-0.834,2.248-1.738,4.465-2.646,6.684
				c-0.887,2.227-1.748,4.469-2.548,6.733c-1.59,4.534-2.862,9.177-3.936,13.86c-0.508,2.351-0.947,4.705-1.398,7.06
				c-0.446,2.355-0.916,4.706-1.334,7.066C254.852,298.972,253.999,303.69,253.227,308.422z"/>
		</g>
		<g>
			<path d="M325.971,125.454c8.662,6.626,12.634,18.844,9.535,29.334c-0.519,1.758-1.239,3.499-2.456,4.866
				c-1.217,1.366-3.002,2.315-4.821,2.17c-3.284-0.262-5.27-3.666-6.668-6.663c-2.395-5.135-4.747-10.34-6.013-15.867
				c-0.937-4.09-2.146-11.065,0.11-14.946C317.791,120.679,323.522,123.58,325.971,125.454z"/>
			<path style="fill:#B24D39;" d="M338.177,172.455c0.043,3.762-0.088,7.401-0.453,10.85c0,0.058-0.008,0.117-0.016,0.177
				c-0.103,1.071-0.252,2.122-0.405,3.157c-1.361,8.922-4.482,16.482-10.409,21.84c-0.032,0.033-0.073,0.061-0.105,0.095
				c-1.044,0.932-2.172,1.797-3.392,2.598l-0.008,0.002c-5.127,3.321-11.911,5.407-20.838,5.877
				c-0.404,0.023-0.81,0.038-1.218,0.045c-0.454,0.02-0.91,0.033-1.375,0.04c-1.037,0.019-2.044-0.003-3.066-0.078
				c-12.67-0.855-24.016-8.569-30.894-20.282c-0.055-0.108-0.115-0.206-0.168-0.306c-0.556-0.96-1.078-1.947-1.573-2.957
				c-2.526-5.16-4.247-11.021-4.933-17.377c-2.835-26.275,13.421-50.587,36.879-52.085
				C320.049,122.535,337.828,141.546,338.177,172.455z"/>
			<path d="M348.189,121.819c-0.7-1.969-2.073-3.646-3.819-4.784c-1.986-1.296-4.376-1.739-6.713-1.805
				c-2.715-0.076-5.492,0.192-8.169,0.646c0.249-1.299,0.147-2.644-0.499-3.95c-1.698-3.435-5.913-4.106-9.348-3.873
				c-3.753,0.255-7.482,1.113-10.972,2.514c-1.96,0.788-3.852,1.743-5.643,2.864c-0.877,0.549-1.74,1.129-2.553,1.769
				c-0.247,0.195-0.486,0.394-0.718,0.598c-3.762-0.137-8.076-0.169-12.612,0.042c-3.947,0.156-8.038,0.525-12.068,1.148
				c-5.463,0.856-10.801,2.199-15.392,4.28c-0.205,0.093-0.396,0.195-0.596,0.291c-0.262-0.402-0.533-0.795-0.808-1.177
				c-0.961-1.333-2.108-2.871-3.618-3.614c-1.241-0.61-2.947-0.539-3.799,0.69c-0.943,1.362-0.068,3.32,0.574,4.632
				c0.391,0.799,0.88,1.536,1.435,2.219c-1.178-0.39-2.385-0.674-3.634-0.701c-1.361-0.03-4.999,0.498-3.465,2.625
				c0.951,1.319,2.431,2.254,4.04,2.682c-3.962,5.038-5.695,11.239-6.206,17.296c-0.581,7.354,0.644,14.495,1.953,19.125
				c0.549,1.953,1.468,3.634,2.629,5.062c0.473,0.397,0.988,0.746,1.563,1.017c2.466,1.162,5.226,1.512,7.918,1.546
				c1.143,0.014,2.287,0.014,3.335,0.533c1.781,0.882,2.493,3.016,4.09,4.15c0.223,0.158,0.461,0.3,0.723,0.378
				c0.204,0.061,0.419,0.082,0.632,0.087c1.655,0.04,3.21-0.862,4.015-2.302c0.992-1.774,1.162-4.054,0.997-6.04
				c-0.109-1.316-0.384-2.602-0.76-3.861c-0.001-0.039,0.002-0.078,0.001-0.118c0.95-0.011,1.886-0.351,2.758-0.773
				c1.252-0.606,2.578-1.296,3.54-2.323c1.642-1.754,2.167-4.231,2.165-6.568c-0.002-2.96-0.911-5.844-0.838-8.809
				c0.065-2.684,1.201-5.11,2.705-7.284c0.443-0.641,0.925-1.251,1.419-1.853c0.439,0.396,0.893,0.757,1.332,1.079
				c1.905,1.401,4.162,2.338,6.501,2.684c2.19,0.323,4.535,0.137,6.501-0.952c1.435-0.795,2.464-2.061,3.025-3.541
				c1.68,1.261,3.624,2.129,5.721,2.379c2.387,0.285,5.45-0.426,7.298-2.081c0.787,0.818,1.616,1.594,2.533,2.273
				c2.713,2.008,5.97,3.233,9.348,3.401c2.239,0.112,4.967-0.221,7.063-1.411c0.896,0.052,1.792,0.061,2.662-0.012
				c2.221-0.186,4.415-0.918,6.008-2.534c1.158-1.175,1.824-2.685,1.846-4.276c0.77-0.479,1.512-0.993,2.184-1.577
				C347.722,130.784,349.691,126.045,348.189,121.819z"/>
			<path style="opacity:0.49;fill:#7636D8;" d="M287.373,118.291c-0.665,2.607-3.697,3.95-6.46,4.631
				c-0.478,0.117-0.956,0.253-1.329,0.545c-0.685,0.545-0.727,1.557-0.54,2.393c0.187,0.837,0.561,1.654,0.457,2.51
				c-0.208,1.771-2.347,2.821-4.258,2.86c-1.911,0.02-3.76-0.623-5.671-0.759c-1.911-0.136-4.133,0.486-4.84,2.14
				c-0.789,1.829,0.602,4.144-0.54,5.817c-0.872,1.304-2.908,1.479-4.466,0.934c-1.537-0.564-2.804-1.634-4.217-2.432
				c-0.644-0.37-1.392-0.681-2.118-0.564c-1.288,0.233-1.869,1.634-2.223,2.821c-0.519,1.751-1.038,3.522-1.558,5.273
				c-0.478,1.576-1.288,3.463-3.012,3.658c-1.101,0.136-2.181-0.545-2.742-1.42c-0.104-0.156-0.187-0.311-0.249-0.486
				c0.519-6.148,2.285-12.452,6.377-17.53c0.665,0.058,1.329,0.195,1.953,0.37c2.929,0.798,4.84,0.759,6.751-1.751
				c0.872-1.148,1.6-2.451,2.783-3.346c3.22-2.393,8.558-0.953,11.466-3.677c0.976-0.895,1.496-2.14,2.139-3.288
				c4.03-0.622,8.122-0.992,12.068-1.148C287.477,116.618,287.581,117.455,287.373,118.291z"/>
			<path style="fill:#B24D39;" d="M249.174,166.909c-1.911,0.353-3.667,1.364-5.05,3.287c-1.526,2.121-2.052,4.758-2.03,7.305
				c0.048,5.524,2.609,10.82,6.813,14.539c2.6,2.301,5.961,4.365,9.523,4.682c4.003,0.356,7.237-2.129,8.134-5.961
				c0.454-1.942,0.335-3.967,0.045-5.936C265.382,176.473,259.529,164.996,249.174,166.909z"/>
			<path style="fill:#C4311D;" d="M250.45,174.665c1.878-0.042,3.533,1.164,4.718,2.515c2.743,3.128,3.916,7.153,3.481,11.266
				c-0.063,0.595-0.989,0.625-0.951,0.003c0.201-3.272-0.895-6.684-2.87-9.293c-0.436-0.576-0.944-1.169-1.522-1.666
				c-0.573,0.683-0.973,1.472-1.151,2.339c-0.101,0.491-0.126,0.939-0.099,1.483c0.007,0.132,0.017,0.265,0.034,0.396
				c-0.012-0.094,0.023,0.131,0.022,0.126c0.012,0.065,0.026,0.13,0.04,0.195c0.071,0.312,0.153,0.582,0.141,0.906
				c-0.02,0.493-0.614,0.775-0.986,0.42c-0.511-0.488-0.613-1.283-0.681-1.959c-0.064-0.637,0.007-1.307,0.17-1.924
				c0.269-1.023,0.792-1.941,1.531-2.674c-0.312-0.175-0.639-0.317-0.983-0.409c-0.624-0.167-1.296-0.143-1.891,0.125
				c-0.613,0.275-0.91,0.878-1.467,1.188c-0.325,0.181-0.832,0.047-0.912-0.362C246.742,175.63,249.11,174.696,250.45,174.665z"/>
			<path style="fill:#FFFFFF;" d="M303.006,185.732c2.948-1.04,5.179,0.94,10.368,1.344c5.189,0.404,8.579-0.808,9.208,0.217
				c1.456,2.371-3.61,7.994-10.95,7.992C304.293,195.283,300.057,186.772,303.006,185.732z"/>
			<g style="opacity:0.32;">
				<path style="fill:#EC372F;" d="M303.241,213.822c-0.466,1.18-1.116,2.289-1.907,3.274c-0.454,0.02-0.91,0.033-1.375,0.04
					c-1.037,0.019-2.044-0.003-3.066-0.078c-12.67-0.855-24.016-8.569-30.894-20.282c-0.055-0.108-0.115-0.206-0.168-0.306
					c-0.556-0.96-1.078-1.947-1.573-2.957c0.655-1.266,1.512-2.425,2.544-3.402c3.41-3.268,8.361-4.636,13.072-4.279
					c4.711,0.356,9.196,2.31,13.114,4.939c3.784,2.527,7.191,5.792,9.253,9.851C304.298,204.665,304.914,209.596,303.241,213.822z"
					/>
				<path style="fill:#EC372F;" d="M337.724,183.305c0,0.058-0.008,0.117-0.016,0.177c-0.103,1.071-0.252,2.122-0.405,3.157
					c-1.361,8.922-4.482,16.482-10.409,21.84c-0.032,0.033-0.073,0.061-0.105,0.095c0.434-4.347,1.071-8.669,2.45-12.804
					C330.873,190.932,333.648,186.332,337.724,183.305z"/>
			</g>
			<g>
				<path d="M302.6,173.692c0.083,2.351-1.089,4.301-2.615,4.354c-1.527,0.054-2.832-1.809-2.914-4.16
					c-0.083-2.351,1.088-4.301,2.615-4.354C301.212,169.479,302.517,171.341,302.6,173.692z"/>
				<path d="M328.259,172.366c0.069,1.97-0.863,3.602-2.083,3.645c-1.22,0.043-2.264-1.52-2.334-3.49
					c-0.069-1.97,0.864-3.602,2.083-3.645C327.145,168.834,328.189,170.396,328.259,172.366z"/>
			</g>
			<g>
				<path d="M294.273,159.497c-0.176,0.316-0.35,0.647-0.376,1.008c-0.187,2.517,4.268-0.539,5.006-0.903
					c1.293-0.638,2.591-1.226,3.948-1.716c2.107-0.762,4.508-1.683,4.978-4.152c0.2-1.047-0.079-2.207-0.879-2.94
					c-0.951-0.871-2.262-0.863-3.423-0.475c-3.22,1.078-5.978,4.083-7.958,7.055C295.09,158.093,294.657,158.809,294.273,159.497z"
					/>
				<path d="M329.789,153.91c-1.511-2.307-3.735-4.551-6.588-5.093c-1.028-0.195-2.235-0.047-3.203,0.81
					c-0.814,0.72-1.193,1.745-1.119,2.617c0.173,2.055,2.288,2.56,4.148,2.962c1.198,0.259,2.332,0.609,3.456,1.002
					c0.642,0.225,4.424,2.312,4.517,0.182c0.013-0.305-0.111-0.568-0.241-0.817C330.478,155.03,330.154,154.468,329.789,153.91z"/>
			</g>
			<path style="fill:#C4311D;" d="M316.563,176.264c0.05-0.961,0.197-1.921,0.446-2.85c0.248-0.926,0.597-1.832,1.029-2.688
				c0.215-0.426,0.456-0.833,0.738-1.218c0.296-0.405,0.592-0.948,1.067-1.15c0.462-0.196,0.896,0.123,0.815,0.626
				c-0.082,0.504-0.503,0.954-0.748,1.398c-0.234,0.423-0.472,0.842-0.68,1.278c-0.417,0.876-0.72,1.806-0.923,2.754
				c-0.216,1.008-0.318,2.059-0.259,3.09c0.025,0.425,0.046,0.876,0.555,0.904c0.498,0.028,0.979-0.334,1.409-0.535
				c1.601-0.749,3.563-0.356,4.519,1.222c0.899,1.484,0.334,3.366-1.081,4.266c-0.349,0.221-0.737-0.285-0.44-0.571
				c1.307-1.254,0.796-3.651-1.128-3.864c-0.944-0.104-1.659,0.603-2.521,0.846c-0.88,0.248-1.896,0.071-2.412-0.75
				C316.458,178.241,316.517,177.148,316.563,176.264z"/>
		</g>
	</g>
	<g>
		<ellipse style="fill:#E0ECFF;" cx="457.461" cy="415.037" rx="70.066" ry="8.103"/>
		<g>
			<g>
				<path d="M418.703,291.12c0.06,20.33,1.02,39.45,2.2,47.88c2.82,20.11,7.35,64.14,7.35,64.14h23.19
					c-0.11-18.69-3.31-89.62-1.84-89.91c0.35-0.07,0.74-0.12,1.16-0.13c0.01,0,0.01,0,0.02,0c0.59-0.01,1.26,0.06,2.03,0.27
					c0.01,0,0.02,0,0.03,0.01c0.94,0.26,2.04,0.71,3.37,1.44c4.28,2.38,18.86,88.32,18.86,88.32h22.96
					c-2.35-22.97-13.36-99.12-14.28-109.21c-0.08-0.89-0.127-2.59-0.137-4.1c-0.041-0.039-1.563,0.17-2.123,0.25
					c-0.17,0.03-0.34,0.06-0.51,0.07c-3.92,0.59-7.86,1.04-11.79,1.43c-7.86,0.77-15.77,1.18-23.68,1.19
					c-7.91,0.02-15.84-0.23-23.7-1.2C420.774,291.44,419.744,291.27,418.703,291.12z"/>
				<g>
					<path style="fill:#424094;" d="M481.493,290.08c-0.17,0.03-0.34,0.06-0.51,0.07c0.12,8.56,0.73,17.13,1.39,25.66
						c0.79,10.24,1.59,20.47,2.56,30.69c0.97,10.2,2.12,20.39,3.64,30.52c1.32,8.77,2.95,17.5,4.98,26.12h0.38
						c-1.69-7.37-3.08-14.8-4.27-22.27c-1.63-10.17-2.85-20.4-3.87-30.64c-1.01-10.18-1.81-20.38-2.61-30.58
						C482.423,309.8,481.623,299.95,481.493,290.08z"/>
					<path style="fill:#424094;" d="M457.368,314.124c-0.104-0.05-0.211-0.092-0.315-0.14c-0.018-0.042-0.053-0.078-0.111-0.095
						c-0.084-0.024-0.167-0.043-0.251-0.067c-3.072-1.415-6.267-2.539-9.563-3.305c-3.487-0.811-7.202-1.382-10.792-1.202
						c-0.187,0.009-0.185,0.275,0,0.289c1.75,0.133,3.487,0.204,5.229,0.433c1.828,0.24,3.639,0.519,5.439,0.928
						c2.467,0.562,4.889,1.315,7.247,2.233c-1.945-0.454-3.901-0.794-5.926-0.933c-2.866-0.197-5.932-0.139-8.742,0.507
						c-0.224,0.051-0.18,0.425,0.055,0.407c2.875-0.221,5.68-0.449,8.569-0.291c2.785,0.153,5.654,0.538,8.353,1.278
						c0.207,0.092,0.419,0.174,0.624,0.269C457.395,314.53,457.578,314.224,457.368,314.124z"/>
				</g>
			</g>
			<path style="fill:#7636D8;" d="M474.787,402.067c0.821-0.392,22.659-0.036,23.718,0.259c1.059,0.295,3.287,9.73,2.099,11.794
				c-1.04,1.808-31.572,0.449-39.147,0.084c-0.888-0.043-1.454-0.98-1.057-1.776c0.806-1.616,2.739-3.866,6.407-6.269
				C472.807,402.229,474.787,402.067,474.787,402.067z"/>
			<path d="M485.333,412.744c-8.037-0.057-16.119-0.396-24.06-1.697c-0.372,0.497-0.662,0.961-0.872,1.381
				c-0.397,0.795,0.169,1.733,1.057,1.776c7.574,0.366,38.107,1.724,39.147-0.084c0.181-0.315,0.275-0.815,0.313-1.414
				C495.722,412.78,490.524,412.781,485.333,412.744z"/>
			<path style="fill:#7636D8;" d="M427.853,402.067c0.822-0.392,22.659-0.036,23.718,0.259c1.059,0.295,3.287,9.73,2.099,11.794
				c-1.04,1.808-31.572,0.449-39.147,0.084c-0.888-0.043-1.454-0.98-1.057-1.776c0.807-1.616,2.739-3.866,6.407-6.269
				C425.873,402.229,427.853,402.067,427.853,402.067z"/>
			<path d="M452.704,412.924c-4.46,0.21-8.936,0.273-13.401,0.24c-6.996-0.052-14.01-0.526-20.93-1.598
				c-1.424-0.068-2.849-0.134-4.274-0.159c-0.004,0-0.008,0-0.013,0c-0.248,0.36-0.462,0.706-0.62,1.021
				c-0.397,0.795,0.169,1.733,1.057,1.776c7.574,0.366,38.107,1.724,39.147-0.084c0.165-0.287,0.26-0.725,0.305-1.254
				C453.552,412.885,453.128,412.904,452.704,412.924z"/>
		</g>
		<g>
			<path style="fill:#43CAD0;" d="M445.935,219.507c1.621-2.046,21.256-4.673,40.386-2.852c19.13,1.822,23.312,17.116,23.512,29.472
				c0.2,12.356,3.668,41.452-2.374,45.861c-6.042,4.409-58.206,5.593-64.665,0.097C436.335,286.589,433.986,234.589,445.935,219.507
				z"/>
			<path style="opacity:0.52;fill:#43CAD0;" d="M496.365,219.378c-1.413,0.871-2.635,2.07-3.588,3.489
				c-2.249,3.349-2.946,7.362-3.263,11.311c-0.729,9.083-0.968,18.263-0.929,27.373c0.02,4.694,0.202,9.383,0.557,14.064
				c0.214,2.819,0.487,5.621,1.077,8.391c0.574,2.692,1.436,5.29,3.053,7.548c0.929,1.298,2.125,2.272,3.479,2.964
				c5.322-0.635,9.289-1.493,10.709-2.529c6.042-4.409,2.574-33.505,2.374-45.861C509.674,236.328,507.002,224.688,496.365,219.378z
				"/>
		</g>
		<g>
			<path style="fill:#E0ECFF;" d="M429.151,224.809c0,0-30.074,23.811-31.556,34.054c-1.482,10.243,21.249,40.53,21.249,40.53
				L429.151,224.809z"/>
			<path style="fill:#E0ECFF;" d="M426.871,226.658c-0.012,0.1-0.016,0.201-0.029,0.301c-1.252,10.303-5.729,19.848-10.776,28.798
				c-2.492,4.419-4.965,8.91-7.788,13.127c-1.337,1.997-2.761,3.943-4.319,5.774c-0.227,0.267-0.457,0.535-0.689,0.802
				c6.314,11.592,15.573,23.934,15.573,23.934l10.307-74.584C429.151,224.809,428.29,225.492,426.871,226.658z"/>
			<path style="fill:#ACCEFF;" d="M419.279,269.069c-0.623-0.836-1.297-1.625-2.002-2.386c-0.212-0.437-0.468-0.86-0.72-1.271
				c-0.321-0.525-0.643-1.05-0.964-1.575c-0.639-1.044-1.248-2.139-1.99-3.113c-0.144-0.189-0.433-0.032-0.324,0.189
				c0.542,1.098,1.253,2.128,1.904,3.163c0.279,0.443,0.557,0.886,0.836,1.329c-0.652-0.622-1.323-1.224-2.034-1.785
				c-1.921-1.514-4.117-3.007-6.454-3.785c-0.245-0.082-0.396,0.289-0.175,0.414c1.055,0.595,2.148,1.113,3.191,1.733
				c1.085,0.645,2.134,1.357,3.131,2.132c1.951,1.519,3.718,3.286,5.258,5.219C419.088,269.526,419.428,269.268,419.279,269.069z"/>
		</g>
		<g>
			<path style="fill:#CF1E58;" d="M455.804,306.759c7.297-0.091,14.574-0.522,21.825-1.186c3.45-0.316,6.884-0.743,10.315-1.168
				c-0.098-0.673-0.179-1.253-0.238-1.71c-1.553-12.151-0.282-72.861-1.646-76.438c-1.353-3.549-11.035-9.242-24.98-9.585
				c-13.926-0.342-33.866,5.538-35.811,8.372c-5.624,8.196-8.137,44.086-8.769,78.374
				C429.371,306.209,442.634,306.923,455.804,306.759z"/>
			<path style="fill:#E0ECFF;" d="M438.913,242.42c0,0,0.01,0.01,0,0.01c1.02,2.2,1.84,3.6,1.84,3.6s1.31-1.03,3.4-2.74
				c4.84-3.96,13.85-11.6,20.4-18.63c7.27-7.81-2.56-8.2-13.37-6.71c-7.48,1.03-13.99,0.85-15.47,4.78
				C433.413,228.86,436.653,237.57,438.913,242.42z"/>
			<g>
				<defs>
					<path id="XMLID_3_" d="M437.439,211.821l2.044,11.047c0.063,0.343,0.224,0.658,0.464,0.913
						c0.987,1.047,4.155,3.198,12.863,1.734c10.717-1.802,10.086-7.317,10.086-7.317l-1.866-9.093L437.439,211.821z"/>
				</defs>
				<use xlink:href="#XMLID_3_"  style="overflow:visible;fill:#FFA672;"/>
				<clipPath id="XMLID_00000096038722325316080470000008050953605839978904_">
					<use xlink:href="#XMLID_3_"  style="overflow:visible;"/>
				</clipPath>
				<path style="clip-path:url(#XMLID_00000096038722325316080470000008050953605839978904_);fill:#B22E2E;" d="M439.862,218.283
					c2.511,0.544,5.151,0.411,7.708,0.071c3.124-0.416,6.242-1.152,8.943-2.592c2.702-1.44,4.967-3.645,5.848-6.311
					c0.299-0.905,0.418-1.937-0.141-2.741c-0.511-0.734-1.477-1.12-2.42-1.355c-1.765-0.44-3.624-0.5-5.458-0.444
					c-5.555,0.168-11.003,1.36-16.332,2.752c-1.298,0.339-2.695,0.755-3.444,1.747c-0.939,1.243-1.352,4.024-0.602,5.439
					C434.932,216.673,437.783,217.833,439.862,218.283z"/>
			</g>
			<g>
				<path style="fill:#ACCEFF;" d="M466.5,221.04c0.417-0.947-2.605-8.917-5.123-6.902c-2.518,2.016-8.502,9.625-18.932,8.844
					c-2.431-0.182-3.363-3.202-3.834-4.521c-0.096-0.269-0.426-0.312-0.555-0.069c-0.855,1.605-2.587,5.74-2.616,6.762
					c-0.049,1.732,1.362,7.672,2.322,7.803c0.961,0.132,4.909-6.229,4.909-6.229s4.138,8.103,5.467,7.688
					C450.319,233.737,461.053,233.428,466.5,221.04z"/>
				<path style="fill:#E0ECFF;" d="M467.051,219.709c0.424-0.945-2.651-8.932-5.214-6.93c-2.563,2.001-8.653,9.577-19.268,8.738
					c-2.474-0.195-3.423-3.22-3.902-4.543c-0.098-0.27-0.433-0.314-0.565-0.072c-0.871,1.6-2.633,5.725-2.662,6.747
					c-0.049,1.732,1.386,7.679,2.363,7.816c0.978,0.137,4.996-6.201,4.996-6.201s4.211,8.126,5.563,7.719
					C450.583,232.315,461.508,232.067,467.051,219.709z"/>
			</g>
			<g>
				<g>
					<g>
						<path style="fill:#7636D8;" d="M438.913,242.42c0,0,0.01,0.01,0,0.01c1.02,2.2,1.84,3.6,1.84,3.6s1.31-1.03,3.4-2.74
							c-0.42-3.46-0.82-6.43-1.16-8.56c-0.35-2.18-0.64-3.47-0.84-3.47c-0.44,0.02-0.96,1.23-1.52,3.27
							C440.093,236.49,439.513,239.23,438.913,242.42z"/>
					</g>
					<g>
						<path style="fill:#7636D8;" d="M442.658,224.821c1.164,0.066,4.719,6.705,4.212,7.411c-0.506,0.705-2.934,2.431-5.171,2.175
							c-2.237-0.256-3.727-2.068-3.653-2.695C438.12,231.084,440.421,224.694,442.658,224.821z"/>
					</g>
				</g>
			</g>
			<g>
				<path d="M468.247,216.705c-0.219-0.024-0.43,0.097-0.549,0.307c-6.475,11.409-7.687,26.312-5.209,39.504
					c2.553,13.585,10.187,25.822,20.665,33.073c1.249,0.864,2.977,0.546,3.693-0.907c0.848-1.721-0.149-3.921-1.212-5.532
					c-2.873-4.353-10.395-15.961-12.929-30.358c-2.535-14.397,1.972-25.995,5.072-32.689c0.178-0.384,0.144-0.837-0.21-1.014
					C475.252,217.934,470.69,216.974,468.247,216.705z"/>
				<path d="M429.831,221.121c-3.626,1.69-6.693,4.288-8.525,8.171c-11.681,24.751-6.489,49.436-5.67,50.428
					c1.024,1.241,2.168-1.849,2.215-2.369c2.154-24.035,6.373-37.178,9.514-43.657c1.407-2.902,3.048-5.645,4.939-8.169
					c0.96-1.281,1.984-2.494,2.99-3.729c0.313-0.384,1.247-1.205,1.186-1.831c-0.128-1.328-4.983,0.468-5.555,0.69
					C430.552,220.799,430.187,220.955,429.831,221.121z"/>
			</g>
		</g>
		<g>
			<g>
				<path style="fill:#FF96E6;" d="M453.252,334.324l3.941,4.313c0.149,0.163,0.375,0.232,0.59,0.18l62.227-15.017
					c0.287-0.069,0.482-0.334,0.463-0.629l-2.874-44.174l-0.394-0.329l-68.436,7.9c-0.33,0.038-0.568,0.335-0.534,0.665l4.86,46.744
					C453.11,334.107,453.165,334.228,453.252,334.324z"/>
				<polygon style="fill:#FFFFFF;" points="453.826,334.199 457.125,337.376 521.452,324.733 520.644,283.849 516.904,279.628 
					449.12,287.69 				"/>
				<path style="fill:#FFB4E6;" d="M457.927,338.825l66.35-10.333c0.31-0.048,0.532-0.325,0.512-0.638l-2.895-44.501l-0.406-0.373
					l-68.409,8.313c-0.326,0.04-0.562,0.332-0.53,0.659l4.318,45.339c0.005,0.052,0.016,0.102,0.034,0.151l0.363,0.993
					C457.363,338.706,457.641,338.87,457.927,338.825z"/>
				<path style="fill:#FF96E6;" d="M463.982,333.36c0.035-0.004,0.07-0.008,0.105-0.013c9.841-1.357,19.659-2.911,29.486-4.375
					c8.339-1.242,16.677-2.484,25.016-3.726c0.236-0.035,0.484-0.098,0.723-0.108c0.259-0.039,0.443-0.261,0.426-0.513
					c-0.537-7.822-1.075-15.644-1.612-23.466c-0.173-2.524-0.347-5.048-0.52-7.572c-0.047-0.689,0.111-4.615-0.56-4.93
					c-0.194-0.091-0.42-0.068-0.632-0.042c-6.919,0.824-13.993,2.14-20.95,2.436c-10.554,1.224-21.108,2.446-31.662,3.67
					c-1.259,0.146-2.518,0.295-3.777,0.442c-0.164,0.019-0.342,0.046-0.453,0.169c-0.129,0.143-0.118,0.362-0.099,0.554
					c0.919,9.272,1.272,18.834,2.802,28.02c0.294,2.939,0.444,5.934,0.995,8.835c0.039,0.206,0.094,0.433,0.268,0.548
					C463.666,333.375,463.826,333.376,463.982,333.36z"/>
			</g>
			<path style="fill:#FFA672;" d="M484.908,319.464c1.468,7.481-6.34,14.809-3.491,14.205c2.849-0.604,5.76-3.847,6.652-2.961
				c0.893,0.886-2.591,3.944,1.743,4.375c4.333,0.43,14.883-3.955,15.278-6.801c0.395-2.845-1.966-11.237-1.966-11.237
				L484.908,319.464z"/>
			<path style="fill:#E0ECFF;" d="M486.771,226.42c5.115,6.993,17.383,47.627,18.345,91.284c0.076,3.461-15.918,5.231-22.369,5.079
				c0,0-1.504-18.756-3.911-41.185c-2.407-22.429-8.171-28.626-7.137-38.932C472.733,232.361,480.74,218.175,486.771,226.42z"/>
		</g>
		<g>
			<path style="fill:#BB6142;" d="M471.16,188.122c0.53-2.215,2.144-4.122,4.077-5.326c4.605-2.868,9.87,0.646,13.881,2.976
				c2.384,1.385,4.615,3.346,7.555,2.777c0.47-0.091,0.957-0.216,1.419-0.091c1.404,0.381,1.277,2.448,0.603,3.737
				c-2.749,5.259-9.711,7.851-15.23,5.67c1.108,1.503,2.215,3.005,3.323,4.508c0.121,0.165,0.247,0.34,0.27,0.543
				c0.058,0.52-0.541,0.846-1.044,0.991c-2.595,0.746-5.257,0.29-7.706-0.734c-1.228-0.513-2.221-1.372-3.354-2.044
				C472.031,199.395,469.526,194.95,471.16,188.122z"/>
			<path style="fill:#BB6142;" d="M404.559,151.792c0.484-6.576,3.137-12.782,6.359-18.464c0.587-1.035,1.213-2.08,2.123-2.821
				c0.91-0.741,2.17-1.129,3.245-0.689c1.121,0.458,1.781,1.681,2.096,2.889c0.668,2.556,0.186,5.267-0.298,7.867
				c-1.273,6.829-2.545,13.658-3.818,20.487c-0.428,2.296-0.888,4.702-2.057,6.735c-1.659,2.883-3.084,0.407-4.364-1.622
				C405.194,161.976,404.193,156.758,404.559,151.792z"/>
			<path style="fill:#FFA672;" d="M406.476,169.514c-0.043,3.762,0.088,7.401,0.453,10.85c0,0.058,0.008,0.117,0.016,0.177
				c0.103,1.071,0.252,2.122,0.405,3.157c1.361,8.922,4.482,16.482,10.409,21.84c0.032,0.033,0.073,0.061,0.105,0.095
				c1.044,0.932,2.172,1.797,3.392,2.598l0.008,0.002c5.127,3.321,11.911,5.407,20.838,5.877c0.404,0.023,0.81,0.038,1.218,0.045
				c0.454,0.02,0.91,0.033,1.376,0.04c1.037,0.019,2.044-0.003,3.066-0.078c12.669-0.855,24.016-8.569,30.894-20.283
				c0.055-0.108,0.115-0.206,0.168-0.306c0.556-0.96,1.078-1.947,1.573-2.957c2.526-5.16,4.247-11.021,4.933-17.377
				c2.835-26.275-13.421-50.587-36.879-52.085C424.604,119.594,406.825,138.605,406.476,169.514z"/>
			<g>
				<path style="fill:#BB6142;" d="M398.163,141.64c-0.08,0.8-0.06,1.72,0.69,2.21c1.06,0.68,2.14,0.05,3.04-0.78
					c-0.33,0.84-0.58,1.71-0.71,2.58c-0.24,1.65,0.26,3.58,1.95,4.25c1.6,0.64,3.53-0.16,4.94-0.94c0.51-0.28,0.99-0.61,1.44-0.96
					c0.72,0.37,1.56,0.55,2.38,0.63c3.2,0.31,6.45-0.54,9.31-1.99c2.86-1.45,5.37-3.46,7.75-5.58c1.11-1,2.21-2.05,3.23-3.15
					c-0.09,0.83-0.04,1.68,0.25,2.46c0.55,1.48,1.83,2.61,3.3,3.25c1.46,0.63,3.1,0.81,4.7,0.8c4.82-0.02,9.6-1.74,13.29-4.78
					c0.76-0.62,1.46-1.32,2.12-2.05c-0.02,0.13-0.04,0.26-0.06,0.39c-0.1,1.19,0.02,2.45,0.72,3.43c0.73,1.01,1.99,1.57,3.25,1.65
					s2.52-0.27,3.67-0.78c2.33-1.05,4.3-2.82,5.61-4.98c-0.46,1.93-0.65,3.93-0.75,5.91c-0.23,4.7,0,9.65,2.39,13.74
					c0.52,0.89,1.32,1.81,2.36,1.78c0.55-0.01,1.04-0.35,1.32-0.8c-0.17,1.2-0.16,2.43,0.04,3.62c0.07,0.38,0.16,0.77,0.41,1.06
					c0.53,0.59,1.56,0.48,2.17-0.02c-0.74,1.31-1.41,2.66-1.87,4.09c-0.69,2.17-1.59,4.86-0.51,6.88c1.51,2.85,5.59,3.78,8.55,2.39
					c2.96-1.39,4.72-4.6,4.98-7.79c1.07,1.8,3.38,2.53,5.51,2.55c3.43,0.02,7.03-1.43,10.05-2.96c1.59-0.81,3.1-1.76,4.51-2.84
					c0.32-0.24,0.72-0.66,1.14-1.11c0.65-0.7,0.23-1.8-0.71-1.95c-1.47-0.23-2.89-0.87-4.03-1.83c-0.43-0.36-0.8-0.74-1.14-1.13
					c1.2,0.11,2.44-0.14,3.5-0.78c0.76-0.47,2.03-1.75,0.85-2.53c-0.53-0.35-1.14-0.07-1.72-0.09c-1.08-0.02-2.09-0.91-2.5-1.86
					c-0.3-0.68-0.43-1.43-0.46-2.21c-0.08-1.8,0.37-3.75,0.58-5.35c0.38-2.83,0.8-5.68,0.7-8.55c-0.04-1.33-0.17-2.67-0.4-3.99
					c-0.75-4.29-2.61-8.34-6.47-10.76c-0.05-0.03-0.1-0.05-0.14-0.07c0.7-0.14,1.38-0.37,2-0.73c0.15-0.09,0.3-0.19,0.4-0.34
					c0.2-0.3,0.09-0.71-0.11-1.01c-0.57-0.82-1.71-1.03-2.72-1.06c-1.13-0.02-2.26,0.09-3.36,0.35c1.41-2.22,2.06-5.15,0.74-7.42
					c-0.72-1.25-2.22-2.22-3.62-1.79c-0.83,0.25-1.45,0.94-1.92,1.65c-0.46,0.7-0.8,1.47-1.05,2.26c-0.09-0.24-0.19-0.48-0.3-0.71
					c-1.95-3.97-5.26-7.24-9.23-9.34c-1.74-0.92-3.6-1.61-5.52-2.04c-5.57-1.24-11.56-0.31-16.57,2.38
					c-0.58,0.11-1.17,0.19-1.76,0.24c-0.94,0.08-1.9,0.07-2.84-0.03c-0.99-0.11-1.93-0.4-2.91-0.56c-0.16-0.02-0.31-0.04-0.47-0.05
					c-1.48-0.1-3.07,0.45-3.4,2.09c-0.01,0.09-0.01,0.17-0.02,0.25c-0.04-0.01-0.09-0.03-0.13-0.05c-3.13-1.31-5.91-3.59-9.31-1.35
					c-1.58,1.03-2.55,2.15-4.49,2.42c-1.1,0.15-2.21,0.12-3.31,0.21c-1.04,0.09-2.08,0.3-3.09,0.57c-4.05,1.08-7.63,3.48-10.61,6.37
					c-2.55,2.48-4.21,5.76-7.08,7.92c-1.29,0.97-2.71,1.39-4.21,1.9c-0.59,0.2-1.4,0.48-1.96,0.92c-0.06,0.44-0.01,0.88,0.19,1.28
					c0.18,0.35,0.46,0.61,0.78,0.8c-0.04,0.02-0.08,0.04-0.13,0.05c-1.41,0.61-4.75,2.19-3.07,4.21c0.85,1.02,2.24,1.09,3.54,0.81
					c-0.3,0.4-0.6,0.81-0.88,1.23c-0.98,1.5-1.81,3.14-2.31,4.87C398.423,139.86,398.254,140.75,398.163,141.64z"/>
				<path style="opacity:0.64;fill:#BB6142;" d="M448.154,104.5c0.08,0.12,0.18,0.24,0.28,0.35c0.51,0.54,1.21,0.81,1.89,1.04
					c3.95,1.37,8.12,2.09,11.75,4.26c1.08,0.64,2.16,1.51,2.51,2.81c0.78,2.83-2.23,5.92-1.11,8.58c0.94,2.22,3.77,2.03,5.96,1.69
					c2.94-0.43,6.28-0.35,8.31,2.01c1.71,1.99,1.97,4.98,2.68,7.64c0.72,2.64,2.56,5.45,5.03,5.16c1.44-0.18,2.63-1.38,4.04-1.67
					c2.13-0.46,4.17,1.25,5.27,3.3c1.11,2.07,1.54,4.49,2.36,6.7c0.83,2.22,2.24,4.39,4.34,4.95c0.55,0.15,1.1,0.18,1.66,0.1
					c-0.08-1.8,0.37-3.75,0.58-5.35c0.38-2.83,0.8-5.68,0.7-8.55c-0.04-1.33-0.17-2.67-0.4-3.99c-0.24-0.01-0.48-0.02-0.72-0.04
					c-3.06-0.24-6.32-1.21-8.17-3.93c-0.61-0.91-1.04-1.97-1.71-2.81c-1.37-1.7-3.51-2.26-5.5-2.75c-2.45-0.59-5-1.23-6.92-3
					c-1.93-1.78-2.97-5.06-1.64-7.46c0.67-1.21,1.87-2.08,2.22-3.46c0.47-1.91-0.93-3.72-2.38-4.82c-0.31-0.24-0.64-0.46-0.96-0.7
					c-1.74-0.92-3.6-1.61-5.52-2.04c-5.57-1.24-11.56-0.31-16.57,2.38c-0.58,0.11-1.17,0.19-1.76,0.24
					c-0.94,0.08-1.9,0.07-2.84-0.03c-0.99-0.11-1.93-0.4-2.91-0.56C448.464,104.53,448.313,104.51,448.154,104.5z"/>
			</g>
			<g>
				<path style="fill:#FFA672;" d="M495.477,160.29c1.911,0.353,3.667,1.364,5.05,3.287c1.526,2.121,2.052,4.758,2.03,7.305
					c-0.048,5.524-2.609,10.82-6.813,14.539c-2.601,2.301-5.961,4.365-9.523,4.682c-4.003,0.356-7.237-2.129-8.134-5.961
					c-0.455-1.941-0.335-3.967-0.045-5.936C479.27,169.853,485.123,158.376,495.477,160.29z"/>
				<path style="fill:#C4311D;" d="M493.201,168.046c-1.878-0.042-3.533,1.164-4.718,2.515c-2.743,3.128-3.916,7.153-3.481,11.266
					c0.063,0.595,0.989,0.625,0.951,0.003c-0.201-3.272,0.895-6.685,2.87-9.293c0.436-0.576,0.944-1.169,1.522-1.666
					c0.574,0.683,0.973,1.472,1.151,2.34c0.101,0.491,0.126,0.939,0.099,1.483c-0.007,0.132-0.017,0.264-0.034,0.396
					c0.012-0.094-0.023,0.132-0.022,0.126c-0.012,0.065-0.026,0.13-0.04,0.195c-0.071,0.313-0.154,0.582-0.141,0.906
					c0.02,0.493,0.614,0.775,0.986,0.42c0.511-0.488,0.613-1.283,0.681-1.959c0.064-0.637-0.008-1.306-0.17-1.924
					c-0.269-1.023-0.792-1.941-1.531-2.674c0.312-0.175,0.639-0.317,0.983-0.409c0.624-0.167,1.296-0.143,1.891,0.125
					c0.613,0.275,0.91,0.878,1.467,1.188c0.324,0.181,0.831,0.047,0.911-0.362C496.909,169.011,494.541,168.076,493.201,168.046z"/>
			</g>
			<path style="fill:#BB6142;" d="M441.872,154.738c1.332,0.525,2.775,0.632,4.174,0.933c2.698,0.579,5.24,1.679,7.41,3.193
				c0.849,0.592,1.918-0.129,1.687-0.805c-0.063-2.309-1.714-4.532-3.635-6.191c-1.842-1.591-4.395-2.924-6.998-3.235
				c-1.394-0.167-2.789,0.026-3.851,0.774c-0.899,0.633-1.505,1.629-1.333,2.66C439.523,153.25,440.594,154.234,441.872,154.738z"/>
			<path style="fill:#BB6142;" d="M424.103,151.264c0.095-0.903-0.434-1.78-1.185-2.341c-0.887-0.662-2.018-0.839-3.134-0.702
				c-2.083,0.256-4.083,1.409-5.5,2.792c-1.478,1.442-2.714,3.381-2.668,5.404c-0.158,0.591,0.733,1.23,1.392,0.716
				c1.684-1.314,3.685-2.262,5.834-2.753c1.114-0.254,2.272-0.339,3.322-0.792C423.172,153.156,423.994,152.3,424.103,151.264z"/>
			<g style="opacity:0.2;">
				<path style="fill:#EC372F;" d="M441.412,210.881c0.466,1.18,1.116,2.289,1.907,3.274c0.454,0.02,0.91,0.033,1.376,0.04
					c1.037,0.019,2.044-0.003,3.066-0.078c12.669-0.855,24.016-8.569,30.894-20.283c0.055-0.108,0.115-0.206,0.168-0.306
					c0.556-0.96,1.078-1.947,1.573-2.957c-0.655-1.266-1.512-2.425-2.544-3.403c-3.41-3.268-8.361-4.636-13.072-4.279
					c-4.711,0.356-9.195,2.31-13.114,4.939c-3.784,2.527-7.191,5.792-9.253,9.851C440.355,201.724,439.739,206.655,441.412,210.881z
					"/>
				<path style="fill:#EC372F;" d="M406.929,180.364c0,0.058,0.008,0.117,0.016,0.177c0.103,1.071,0.252,2.122,0.405,3.157
					c1.361,8.922,4.482,16.482,10.409,21.84c0.032,0.033,0.073,0.061,0.105,0.095c-0.434-4.347-1.071-8.669-2.45-12.804
					C413.78,187.991,411.005,183.391,406.929,180.364z"/>
			</g>
			<g>
				<path d="M442.053,170.751c-0.082,2.351,1.089,4.301,2.616,4.354c1.527,0.054,2.832-1.809,2.914-4.16s-1.089-4.301-2.616-4.354
					C443.441,166.538,442.136,168.4,442.053,170.751z"/>
				<path d="M416.394,169.425c-0.069,1.97,0.863,3.602,2.083,3.645c1.22,0.043,2.264-1.52,2.333-3.49
					c0.069-1.97-0.863-3.602-2.083-3.645C417.508,165.893,416.464,167.455,416.394,169.425z"/>
			</g>
			<path style="fill:#C4311D;" d="M421.44,174.544c0.356-0.804,1.469-0.733,2.185-0.867c0.983-0.183,2.085-0.396,2.977-0.868
				c0.926-0.49,1.012-1.426,1.006-2.376c-0.007-1.093-0.097-2.184-0.118-3.277c-0.021-1.09-0.119-2.222,0.054-3.303
				c0.054-0.342,0.512-0.256,0.61,0c0.384,0.999,0.476,2.129,0.589,3.184c0.11,1.031,0.151,2.071,0.177,3.108
				c0.021,0.846-0.008,1.715-0.38,2.493c-0.379,0.792-1.088,1.25-1.885,1.556c-0.901,0.346-1.857,0.571-2.81,0.709
				c-0.156,0.022-1.259,0.017-1.344,0.174c0.008-0.015,0.121,0.366,0.139,0.432c0.07,0.271,0.148,0.541,0.233,0.808
				c0.583,1.834,1.511,3.631,2.724,5.13c0.345,0.426-0.242,1.04-0.613,0.613c-1.271-1.458-2.294-3.038-2.996-4.847
				C421.715,176.512,421.11,175.289,421.44,174.544z"/>
			<path style="fill:#C4311D;" d="M422.839,184.182c2.44,1.563,5.457,1.98,8.292,1.493c1.375-0.236,2.717-0.63,3.984-1.218
				c0.614-0.285,1.213-0.612,1.796-0.956c0.626-0.37,1.17-0.861,1.844-1.137c0.459-0.188,0.886,0.439,0.635,0.826
				c-0.427,0.659-1.133,1.085-1.771,1.522c-0.617,0.422-1.275,0.776-1.956,1.083c-1.448,0.652-2.969,1.092-4.546,1.282
				c-2.868,0.344-6.699,0.007-8.671-2.386C422.228,184.426,422.507,183.969,422.839,184.182z"/>
		</g>
	</g>
</g>
</svg>
